Multivers-Semibold.sfdir
StartChar: exclam
Encoding: 33 33 349
Width: 301
Flags: HW
HStem: 0 144<79 223>
VStem: 79 144<0 144 584.409 740> 100 101<251 431.158>
LayerCount: 3
Fore
SplineSet
100 251 m 1xa0
 81 740 l 1
 220 740 l 1
 201 251 l 1
 100 251 l 1xa0
79 0 m 1xc0
 79 144 l 1
 223 144 l 1
 223 0 l 1
 79 0 l 1xc0
EndSplineSet
Validated: 1
Substitution2: "'ss01' Style Set 1 in Latin lookup 22 subtable" exclam.ss01
Substitution2: "'case' Case-Sensitive Forms in Latin lookup 20 subtable" exclam.case
AlternateSubs2: "'aalt' Access All Alternates in Latin lookup 1 subtable" exclam.case exclam.ss01
EndChar
StartChar: numbersign
Encoding: 35 35 356
Width: 716
Flags: HW
HStem: 0 21G<131 242.778 376 487.778> 198 103<39 653> 429 103<64 678> 700 20G<228.222 340 473.222 585>
LayerCount: 3
Fore
SplineSet
131 0 m 1
 231 720 l 1
 340 720 l 1
 240 0 l 1
 131 0 l 1
376 0 m 1
 476 720 l 1
 585 720 l 1
 485 0 l 1
 376 0 l 1
64 532 m 1
 678 532 l 1
 678 429 l 1
 64 429 l 1
 64 532 l 1
39 301 m 1
 653 301 l 1
 653 198 l 1
 39 198 l 1
 39 301 l 1
EndSplineSet
Validated: 5
EndChar
StartChar: dollar
Encoding: 36 36 430
Width: 631
GlyphClass: 2
Flags: HW
HStem: -9 29<273 376> 514 21G<459.667 587> 696 35<273 376>
VStem: 35 124<164.275 230> 69 124<490.294 598.941> 273 103<-109 20 696 830> 463 124<514 574.804> 473 125<125.914 245.107>
AnchorPoint: "Anchor-2" 331 0 basechar 0
AnchorPoint: "Anchor-0" 325 720 basechar 0
LayerCount: 3
Fore
SplineSet
273 696 m 1xe4
 273 830 l 1
 376 830 l 1
 376 696 l 1
 273 696 l 1xe4
376 20 m 1
 376 -109 l 1
 273 -109 l 1
 273 20 l 1
 376 20 l 1
336 -9 m 0
 248 -9 177.833007812 11.8330078125 125.5 53.5 c 0
 73.1669921875 95.1669921875 43 154 35 230 c 1
 159 230 l 1
 164.333007812 185.333007812 182.833007812 150.833007812 214.5 126.5 c 0
 246.166992188 102.166992188 288.333007812 90 341 90 c 0
 383.666992188 90 416.333007812 98.1669921875 439 114.5 c 0
 461.666992188 130.833007812 473 153.333007812 473 182 c 0xf5
 473 208 465.833007812 229.166992188 451.5 245.5 c 0
 437.166992188 261.833007812 413 275.333007812 379 286 c 2
 254 327 l 2
 190 347.666992188 143.166992188 374.333007812 113.5 407 c 0
 83.8330078125 439.666992188 69 480.333007812 69 529 c 0
 69 570.333007812 79.3330078125 606.166992188 100 636.5 c 0
 120.666992188 666.833007812 150 690.166992188 188 706.5 c 0
 226 722.833007812 270.333007812 731 321 731 c 0
 399 731 461.333007812 711.5 508 672.5 c 0
 554.666992188 633.5 581 580.666992188 587 514 c 1
 463 514 l 1xee
 456.333007812 554.666992188 440.5 584.333007812 415.5 603 c 0
 390.5 621.666992188 357 631 315 631 c 0
 277 631 247.166992188 623.5 225.5 608.5 c 0
 203.833007812 593.5 193 572.666992188 193 546 c 0
 193 524.666992188 199.833007812 506 213.5 490 c 0
 227.166992188 474 252 460.333007812 288 449 c 2
 416 407 l 2
 479.333007812 387 525.5 360.166992188 554.5 326.5 c 0
 583.5 292.833007812 598 251 598 201 c 0xed
 598 133.666992188 575 81.8330078125 529 45.5 c 0
 483 9.1669921875 418.666992188 -9 336 -9 c 0
EndSplineSet
Validated: 5
Substitution2: "'ss12' Style Set 12 in Latin lookup 33 subtable" dollar.ss12
Substitution2: "'aalt' Access All Alternates in Latin lookup 0 subtable" dollar.ss12
EndChar
StartChar: percent
Encoding: 37 37 445
Width: 786
Flags: HW
HStem: -10 77<537 639> 0 22G<76 196> 289 77<536 640> 372 77<146 248> 671 77<145 249> 717 20G<597 716>
VStem: 34 85<477 642> 277 84<479 642> 425 85<96 260> 669 85<97 259>
LayerCount: 3
Fore
SplineSet
76 0 m 1x77c0
 611 737 l 1
 716 737 l 1
 181 0 l 1
 76 0 l 1x77c0
588 -10 m 0xb3c0
 560 -10 534 -4 509 10 c 0
 484 24 463 45 448 73 c 0
 433 101 425 136 425 178 c 0
 425 221 433 256 448 284 c 0
 463 312 483 333 508 346 c 0
 533 359 559 366 588 366 c 0
 619 366 646 359 671 345 c 0
 696 331 716 311 731 284 c 0
 746 257 754 221 754 178 c 0
 754 136 746 101 730 73 c 0
 714 45 694 24 669 10 c 0
 644 -4 617 -10 588 -10 c 0xb3c0
588 67 m 256
 611 67 631 77 646 96 c 0
 661 115 669 143 669 179 c 0
 669 214 661 242 646 261 c 0
 631 280 611 289 588 289 c 256
 565 289 546 280 532 261 c 0
 518 242 510 214 510 179 c 0
 510 143 518 115 532 96 c 0
 546 77 565 67 588 67 c 256
197 372 m 0
 168 372 141 379 116 392 c 0
 91 405 71 426 56 454 c 0
 41 482 34 517 34 560 c 0
 34 602 41 637 56 665 c 0
 71 693 91 713 116 727 c 0
 141 741 168 748 197 748 c 0x3bc0
 227 748 254 741 279 727 c 0
 304 713 324 693 339 665 c 0
 354 637 361 602 361 560 c 0
 361 517 353 482 338 454 c 0
 323 426 303 405 278 392 c 0
 253 379 226 372 197 372 c 0
197 449 m 0
 220 449 239 458 254 477 c 0
 269 496 277 524 277 561 c 0
 277 596 270 624 255 643 c 0
 240 662 221 671 197 671 c 0
 174 671 154 662 140 643 c 0
 126 624 119 596 119 561 c 0
 119 524 126 496 140 477 c 0
 154 458 174 449 197 449 c 0
EndSplineSet
Substitution2: "'tnum' Tabular Numbers in Latin lookup 19 subtable" percent.tf
Substitution2: "'aalt' Access All Alternates in Latin lookup 0 subtable" percent.tf
EndChar
StartChar: ampersand.ss11
Encoding: 38 38 428
Width: 772
Flags: HW
HStem: 0 98<210 549> 338 96<247 744> 378 22<212 235> 644 103<239 462>
VStem: 34 134<140 292> 65 132<472 604> 479 132<98 568> 479 70<0 98>
LayerCount: 3
Fore
SplineSet
258 0 m 2xd9
 213 0 173 9 140 25 c 0
 107 41 81 64 62 94 c 0
 43 124 34 160 34 200 c 0xd9
 34 239 43 273 60 303 c 0
 77 333 102 357 132 374 c 0
 162 391 197 399 235 399 c 1
 246 378 l 1
 212 378 181 386 154 401 c 0
 127 416 105 437 89 465 c 0
 73 493 65 524 65 559 c 0
 65 617 87 663 133 697 c 0
 179 731 245 748 330 748 c 0
 354 748 376 746 398 743 c 0
 420 740 441 735 463 728 c 1
 463 626 l 1
 445 632 426 636 405 639 c 0
 384 642 362 644 342 644 c 0
 292 644 256 635 232 617 c 0
 208 599 197 573 197 540 c 256xb4
 197 507 207 480 229 462 c 0
 251 444 282 434 322 434 c 2
 744 434 l 1
 744 338 l 1
 290 338 l 2
 252 338 223 327 201 305 c 0
 179 283 168 252 168 214 c 0
 168 178 179 149 199 129 c 0
 219 109 248 98 285 98 c 2
 549 98 l 1
 549 0 l 1
 258 0 l 2xd9
479 0 m 1
 479 568 l 5
 611 618 l 5
 611 0 l 1x92
 479 0 l 1
EndSplineSet
EndChar
StartChar: quotesingle
Encoding: 39 39 411
Width: 268
InSpiro: 1
Flags: HW
HStem: 457 311<86 182>
VStem: 86 96<457 566>
LayerCount: 3
Fore
SplineSet
86.015625 456.704101562 m 1
 65.5361328125 768 l 1
 202.751953125 768 l 1
 182.272460938 456.704101562 l 1
 86.015625 456.704101562 l 1
  Spiro
    86.016 456.704 v
    65.536 768 v
    202.752 768 v
    182.272 456.704 v
    0 0 z
  EndSpiro
EndSplineSet
EndChar
StartChar: parenleft
Encoding: 40 40 388
Width: 443
Flags: HW
VStem: 78 119<167.251 469.78>
LayerCount: 3
Fore
SplineSet
273 -110 m 1
 206.333007812 -47.3330078125 157.166992188 20.8330078125 125.5 94.5 c 0
 93.8330078125 168.166992188 78 243.333007812 78 320 c 0
 78 395.333007812 94 470 126 544 c 0
 158 618 207 686.666992188 273 750 c 1
 395 750 l 1
 329 686.666992188 279.5 619.166992188 246.5 547.5 c 0
 213.5 475.833007812 197 400 197 320 c 0
 197 239.333007812 214 163.166992188 248 91.5 c 0
 282 19.8330078125 331 -47.3330078125 395 -110 c 1
 273 -110 l 1
EndSplineSet
Validated: 1
Substitution2: "'case' Case-Sensitive Forms in Latin lookup 20 subtable" parenleft.case
Substitution2: "'aalt' Access All Alternates in Latin lookup 0 subtable" parenleft.case
EndChar
StartChar: parenright
Encoding: 41 41 389
Width: 439
Flags: HW
VStem: 245 122<178 488>
LayerCount: 3
Fore
SplineSet
167 772 m 1
 235 708 286 638 318 563 c 0
 350 488 367 411 367 332 c 0
 367 255 351 178 318 102 c 0
 285 26 235 -45 167 -109 c 1
 42 -109 l 1
 110 -45 160 25 194 98 c 0
 228 171 245 249 245 332 c 256
 245 415 228 493 193 566 c 0
 158 639 108 708 42 772 c 1
 167 772 l 1
EndSplineSet
Substitution2: "'case' Case-Sensitive Forms in Latin lookup 20 subtable" parenright.case
Substitution2: "'aalt' Access All Alternates in Latin lookup 0 subtable" parenright.case
EndChar
StartChar: asterisk
Encoding: 42 42 355
Width: 447
Flags: HW
HStem: 427 331
LayerCount: 3
Fore
SplineSet
169 427 m 1
 195 543 l 1
 104 463 l 1
 49 557 l 1
 165 593 l 1
 49 629 l 1
 104 723 l 1
 195 643 l 1
 169 758 l 1
 280 758 l 1
 254 643 l 1
 344 723 l 1
 399 629 l 1
 284 593 l 1
 399 557 l 1
 344 463 l 1
 254 543 l 1
 280 427 l 1
 169 427 l 1
EndSplineSet
Validated: 1
EndChar
StartChar: plus
Encoding: 43 43 436
Width: 554
Flags: HW
HStem: 324 94<58 496>
VStem: 229 97<140 603>
LayerCount: 3
Fore
SplineSet
229 140 m 1
 229 603 l 1
 326 603 l 1
 326 140 l 1
 229 140 l 1
58 324 m 1
 58 418 l 1
 496 418 l 1
 496 324 l 1
 58 324 l 1
EndSplineSet
Validated: 5
Substitution2: "'tnum' Tabular Numbers in Latin lookup 19 subtable" plus.tf
Substitution2: "'aalt' Access All Alternates in Latin lookup 0 subtable" plus.tf
EndChar
StartChar: comma
Encoding: 44 44 345
Width: 287
Flags: HW
HStem: -122 253<103 141>
VStem: 42 207
LayerCount: 3
Fore
SplineSet
141 -122 m 5
 42 -122 l 1
 103 131 l 1
 249 131 l 5
 141 -122 l 5
EndSplineSet
Substitution2: "'ss01' Style Set 1 in Latin lookup 22 subtable" comma.ss01
Substitution2: "'aalt' Access All Alternates in Latin lookup 0 subtable" comma.ss01
EndChar
StartChar: hyphen
Encoding: 45 45 381
Width: 502
Flags: HW
HStem: 224 109<72 431>
LayerCount: 3
Fore
SplineSet
72 224 m 1
 72 333 l 1
 431 333 l 1
 431 224 l 1
 72 224 l 1
EndSplineSet
Substitution2: "'case' Case-Sensitive Forms in Latin lookup 20 subtable" hyphen.case
Substitution2: "'aalt' Access All Alternates in Latin lookup 0 subtable" hyphen.case
EndChar
StartChar: period
Encoding: 46 46 344
Width: 281
Flags: HW
HStem: 0 144<69 213>
VStem: 69 144<0 144>
LayerCount: 3
Fore
SplineSet
69 0 m 1
 69 144 l 1
 213 144 l 1
 213 0 l 1
 69 0 l 1
EndSplineSet
Validated: 1
Substitution2: "'ss01' Style Set 1 in Latin lookup 22 subtable" period.ss01
Substitution2: "'aalt' Access All Alternates in Latin lookup 0 subtable" period.ss01
EndChar
StartChar: slash
Encoding: 47 47 357
Width: 444
Flags: HW
LayerCount: 3
Fore
SplineSet
39 -75 m 1
 294 781 l 1
 406 781 l 1
 151 -75 l 1
 39 -75 l 1
EndSplineSet
EndChar
StartChar: zero
Encoding: 48 48 319
Width: 677
Flags: HW
HStem: -10 111<265 412> 637 111<263 415>
VStem: 37 140<217 523> 500 139<220 525>
LayerCount: 3
Fore
SplineSet
338 -10 m 0
 279 -10 227 6 182 38 c 0
 137 70 101 115 75 172 c 0
 49 229 37 296 37 372 c 256
 37 448 49 513 75 569 c 0
 101 625 137 669 182 700 c 0
 227 731 279 748 338 748 c 0
 397 748 450 731 495 700 c 0
 540 669 575 625 601 569 c 0
 627 513 639 448 639 372 c 0
 639 296 627 229 601 172 c 0
 575 115 540 70 495 38 c 0
 450 6 397 -10 338 -10 c 0
338 100 m 0
 373 100 403 112 427 135 c 0
 451 158 469 190 481 231 c 0
 493 272 500 320 500 373 c 0
 500 426 494 471 482 511 c 0
 470 551 452 582 428 604 c 0
 404 626 374 637 338 637 c 0
 303 637 273 626 249 604 c 0
 225 582 207 551 195 511 c 0
 183 471 177 426 177 373 c 0
 177 320 183 272 195 231 c 0
 207 190 225 158 249 135 c 0
 273 112 303 100 338 100 c 0
EndSplineSet
Substitution2: "'tnum' Tabular Numbers in Latin lookup 19 subtable" zero.tf
Substitution2: "'aalt' Access All Alternates in Latin lookup 0 subtable" zero.tf
EndChar
StartChar: one
Encoding: 49 49 320
Width: 387
Flags: HW
HStem: 0 22G<198 327> 717 20G<189 327>
VStem: 198 129<0 608>
LayerCount: 3
Fore
SplineSet
198 0 m 1
 198 623 l 1
 217 608 l 1
 217 608 218 608 16 476 c 1
 16 604 l 5
 220 737 l 1
 327 737 l 1
 327 0 l 1
 198 0 l 1
EndSplineSet
Substitution2: "'tnum' Tabular Numbers in Latin lookup 19 subtable" one.tf
Substitution2: "'aalt' Access All Alternates in Latin lookup 0 subtable" one.tf
EndChar
StartChar: two
Encoding: 50 50 321
Width: 568
Flags: HW
HStem: 0 104<179 543> 523 22G<29 164> 643 104<213 355>
VStem: 29 133<523 589> 390 140<445 608>
LayerCount: 3
Fore
SplineSet
37 0 m 1
 37 103 l 1
 104 160 160 211 205 253 c 0
 250 295 287 333 314 366 c 0
 341 399 361 428 373 455 c 0
 385 482 390 509 390 536 c 0
 390 570 380 596 362 615 c 0
 344 634 319 643 286 643 c 0
 251 643 223 633 201 612 c 0
 179 591 167 561 162 523 c 1
 29 523 l 1
 36 592 62 647 109 687 c 0
 156 727 217 748 292 748 c 0
 366 748 425 728 467 689 c 0
 509 650 530 596 530 528 c 0
 530 494 525 461 513 428 c 0
 501 395 481 361 454 325 c 0
 427 289 391 250 346 208 c 0
 301 166 245 117 179 63 c 1
 147 104 l 1
 543 104 l 1
 543 0 l 1
 37 0 l 1
EndSplineSet
Substitution2: "'ss10' Style Set 10 in Latin lookup 31 subtable" two.ss10
Substitution2: "'tnum' Tabular Numbers in Latin lookup 19 subtable" two.tf
AlternateSubs2: "'aalt' Access All Alternates in Latin lookup 1 subtable" two.ss10 two.tf
EndChar
StartChar: three
Encoding: 51 51 322
Width: 577
Flags: HW
HStem: -10 102<215.821 365.243> 326 100<208 353.597> 369 21<368 395.333> 514 21G<40 172> 628 102<218.225 359.792>
VStem: 31 129<151.705 225> 40 130<514 578.904> 390 136<461.727 597.571> 406 137<132.372 280.636>
LayerCount: 3
Fore
SplineSet
296 -10 m 0xb880
 246.666992188 -10 203 -1 165 17 c 0
 127 35 96.1669921875 61.6669921875 72.5 97 c 0
 48.8330078125 132.333007812 35 175 31 225 c 1
 160 225 l 1
 165.333007812 180.333007812 179.333007812 147 202 125 c 0
 224.666992188 103 254.666992188 92 292 92 c 0
 326 92 353.5 101.833007812 374.5 121.5 c 0
 395.5 141.166992188 406 169 406 205 c 256xbc80
 406 241 395.666992188 270.166992188 375 292.5 c 0
 354.333007812 314.833007812 322.333007812 326 279 326 c 2
 208 326 l 1
 208 426 l 1
 276 426 l 2
 314.666992188 426 343.333007812 435.5 362 454.5 c 0
 380.666992188 473.5 390 498.333007812 390 529 c 256
 390 559.666992188 381.666992188 583.833007812 365 601.5 c 0
 348.333007812 619.166992188 323 628 289 628 c 0
 258.333007812 628 231.833007812 618.5 209.5 599.5 c 0
 187.166992188 580.5 174 552 170 514 c 1
 40 514 l 1
 44.6669921875 558.666992188 57.8330078125 597 79.5 629 c 0
 101.166992188 661 130.333007812 685.833007812 167 703.5 c 0
 203.666992188 721.166992188 246 730 294 730 c 0
 340.666992188 730 381.333007812 722.166992188 416 706.5 c 0
 450.666992188 690.833007812 477.666992188 668.833007812 497 640.5 c 0
 516.333007812 612.166992188 526 578.333007812 526 539 c 0xdb
 526 505.666992188 518.333007812 476.166992188 503 450.5 c 0
 487.666992188 424.833007812 468.166992188 404.833007812 444.5 390.5 c 0
 420.833007812 376.166992188 395.333007812 369 368 369 c 1
 366 390 l 1
 402 390 433.333007812 381.5 460 364.5 c 0
 486.666992188 347.5 507.166992188 324.666992188 521.5 296 c 0
 535.833007812 267.333007812 543 235 543 199 c 0
 543 156.333007812 532.333007812 119.333007812 511 88 c 0
 489.666992188 56.6669921875 460.333007812 32.5 423 15.5 c 0
 385.666992188 -1.5 343.333007812 -10 296 -10 c 0xb880
EndSplineSet
Validated: 5
Substitution2: "'tnum' Tabular Numbers in Latin lookup 19 subtable" three.tf
Substitution2: "'aalt' Access All Alternates in Latin lookup 0 subtable" three.tf
EndChar
StartChar: four
Encoding: 52 52 323
Width: 624
Flags: HW
HStem: 0 22G<382 517> 148 104<145 382 388 596> 717 20G<371 517>
VStem: 388 129<0 611>
LayerCount: 3
Fore
SplineSet
382 0 m 1
 382 194 l 1
 388 214 l 1
 388 632 l 1
 438 611 l 1
 145 208 l 1
 92 253 l 1
 596 253 l 1
 596 148 l 1
 32 148 l 1
 32 250 l 1
 386 737 l 1
 517 737 l 1
 517 0 l 1
 382 0 l 1
EndSplineSet
Validated: 5
Substitution2: "'tnum' Tabular Numbers in Latin lookup 19 subtable" four.tf
Substitution2: "'aalt' Access All Alternates in Latin lookup 0 subtable" four.tf
EndChar
StartChar: five
Encoding: 53 53 324
Width: 580
Flags: HW
HStem: -10 102<218.745 358.657> 381 94<222.393 358.409> 618 102<221 501> 618 20<198.95 221>
VStem: 35 130<146.65 205> 406 137<141.075 330.476>
LayerCount: 3
Fore
SplineSet
292 -10 m 0xdc
 220 -10 161.666992188 9.1669921875 117 47.5 c 0
 72.3330078125 85.8330078125 45 138.333007812 35 205 c 1
 165 205 l 1
 171 169 185.333007812 141.166992188 208 121.5 c 0
 230.666992188 101.833007812 257.666992188 92 289 92 c 0
 323.666992188 92 351.833007812 103.666992188 373.5 127 c 0
 395.166992188 150.333007812 406 186.333007812 406 235 c 0
 406 283 395.5 319.333007812 374.5 344 c 0
 353.5 368.666992188 325.333007812 381 290 381 c 0
 267.333007812 381 247 376 229 366 c 0
 211 356 197.333007812 341.666992188 188 323 c 1
 72 323 l 1
 106 720 l 1
 501 720 l 1
 501 618 l 1xec
 158 618 l 1
 221 638 l 1
 203 391 l 1
 164 397 l 1
 178.666992188 421 198.5 440 223.5 454 c 0
 248.5 468 280 475 318 475 c 0
 362.666992188 475 401.833007812 465.166992188 435.5 445.5 c 0
 469.166992188 425.833007812 495.5 398.166992188 514.5 362.5 c 0
 533.5 326.833007812 543 284 543 234 c 0
 543 182.666992188 532.666992188 138.833007812 512 102.5 c 0
 491.333007812 66.1669921875 462.166992188 38.3330078125 424.5 19 c 0
 386.833007812 -0.3330078125 342.666992188 -10 292 -10 c 0xdc
EndSplineSet
Validated: 5
Substitution2: "'tnum' Tabular Numbers in Latin lookup 19 subtable" five.tf
Substitution2: "'aalt' Access All Alternates in Latin lookup 0 subtable" five.tf
EndChar
StartChar: six
Encoding: 54 54 325
Width: 614
Flags: HW
HStem: -10 104<238 393> 364 101<251 393> 643 104<254 410>
VStem: 36 142<186 526> 446 140<146 311>
LayerCount: 3
Fore
SplineSet
323 -10 m 0
 232 -10 161 21 111 84 c 0
 61 147 36 237 36 354 c 0
 36 437 48 508 72 566 c 0
 96 624 130 669 174 700 c 0
 218 731 271 748 331 748 c 0
 399 748 454 732 497 700 c 0
 540 668 566 620 575 554 c 5
 443 554 l 5
 439 588 426 611 406 624 c 0
 386 637 361 643 330 643 c 0
 278 643 239 620 213 574 c 0
 187 528 174 458 174 362 c 2
 174 299 l 1
 146 308 l 1
 154 340 166 368 185 392 c 0
 204 416 229 433 258 446 c 0
 287 459 318 465 353 465 c 0
 399 465 440 455 475 435 c 0
 510 415 538 388 557 353 c 0
 576 318 586 276 586 229 c 0
 586 181 575 139 553 103 c 0
 531 67 500 39 461 19 c 0
 422 -1 376 -10 323 -10 c 0
317 94 m 0
 355 94 385 106 409 129 c 0
 433 152 446 185 446 228 c 0
 446 272 434 306 409 329 c 0
 384 352 353 364 315 364 c 0
 276 364 243 353 217 330 c 0
 191 307 178 274 178 232 c 0
 178 204 185 180 197 159 c 0
 209 138 225 122 246 111 c 0
 267 100 291 94 317 94 c 0
EndSplineSet
Substitution2: "'tnum' Tabular Numbers in Latin lookup 19 subtable" six.tf
Substitution2: "'aalt' Access All Alternates in Latin lookup 0 subtable" six.tf
EndChar
StartChar: seven
Encoding: 55 55 326
Width: 561
Flags: HW
HStem: 0 22G<154 305> 625 113<85 416>
LayerCount: 3
Fore
SplineSet
154 0 m 1
 154 0 154 0 416 656 c 5
 426 625 l 1
 85 625 l 1
 85 737 l 1
 541 737 l 1
 541 642 l 1
 297 0 l 1
 154 0 l 1
EndSplineSet
Substitution2: "'tnum' Tabular Numbers in Latin lookup 19 subtable" seven.tf
Substitution2: "'aalt' Access All Alternates in Latin lookup 0 subtable" seven.tf
EndChar
StartChar: eight
Encoding: 56 56 327
Width: 596
Flags: HW
HStem: -10 102<220.169 376.293> 328 95<232.015 363.093> 369 21<195 220 376 400.667> 628 102<227.665 367.038>
VStem: 38 136<137.416 283.855> 57 135<458.763 592.517> 404 135<458.337 591.725> 421 137<136.349 283.843>
LayerCount: 3
Fore
SplineSet
298 -10 m 0xb1
 246 -10 200.5 -1 161.5 17 c 0
 122.5 35 92.1669921875 59.8330078125 70.5 91.5 c 0
 48.8330078125 123.166992188 38 159.666992188 38 201 c 0xb9
 38 237 45.8330078125 269.333007812 61.5 298 c 0
 77.1669921875 326.666992188 98.6669921875 349.166992188 126 365.5 c 0
 153.333007812 381.833007812 184.666992188 390 220 390 c 1
 231 369 l 1
 195 369 164 375.833007812 138 389.5 c 0
 112 403.166992188 92 422.666992188 78 448 c 0
 64 473.333007812 57 502.333007812 57 535 c 0
 57 573.666992188 67 607.666992188 87 637 c 0
 107 666.333007812 135 689.166992188 171 705.5 c 0
 207 721.833007812 249.333007812 730 298 730 c 256
 346.666992188 730 389 721.833007812 425 705.5 c 0
 461 689.166992188 489 666.333007812 509 637 c 0
 529 607.666992188 539 573.666992188 539 535 c 0xb6
 539 502.333007812 532 473.5 518 448.5 c 0
 504 423.5 484 404 458 390 c 0
 432 376 400.666992188 369 364 369 c 1
 376 390 l 1
 411.333007812 390 442.666992188 381.833007812 470 365.5 c 0
 497.333007812 349.166992188 518.833007812 326.666992188 534.5 298 c 0
 550.166992188 269.333007812 558 236.666992188 558 200 c 0
 558 158.666992188 547.166992188 122.166992188 525.5 90.5 c 0
 503.833007812 58.8330078125 473.666992188 34.1669921875 435 16.5 c 0
 396.333007812 -1.1669921875 350.666992188 -10 298 -10 c 0xb1
298 92 m 0
 336.666992188 92 366.833007812 102.5 388.5 123.5 c 0
 410.166992188 144.5 421 173.666992188 421 211 c 0
 421 247.666992188 409.833007812 276.333007812 387.5 297 c 0
 365.166992188 317.666992188 335.333007812 328 298 328 c 0xd9
 260 328 229.833007812 317.666992188 207.5 297 c 0
 185.166992188 276.333007812 174 247.666992188 174 211 c 0
 174 173.666992188 185.166992188 144.5 207.5 123.5 c 0
 229.833007812 102.5 260 92 298 92 c 0
298 423 m 0
 330 423 355.666992188 432.166992188 375 450.5 c 0
 394.333007812 468.833007812 404 493.666992188 404 525 c 0
 404 557 394.166992188 582.166992188 374.5 600.5 c 0
 354.833007812 618.833007812 329 628 297 628 c 0
 265.666992188 628 240.333007812 618.833007812 221 600.5 c 0
 201.666992188 582.166992188 192 557 192 525 c 0xd6
 192 493.666992188 201.833007812 468.833007812 221.5 450.5 c 0
 241.166992188 432.166992188 266.666992188 423 298 423 c 0
EndSplineSet
Validated: 5
Substitution2: "'tnum' Tabular Numbers in Latin lookup 19 subtable" eight.tf
Substitution2: "'aalt' Access All Alternates in Latin lookup 0 subtable" eight.tf
EndChar
StartChar: nine
Encoding: 57 57 328
Width: 618
Flags: HW
HStem: -10 104<207 369> 281 101<224 365> 643 104<224 377>
VStem: 30 145<433 592> 41 132<127 196> 429 151<201 550>
LayerCount: 3
Fore
SplineSet
291 -10 m 0xf4
 243 -10 200 -1 165 17 c 0
 130 35 102 58 81 85 c 0
 60 112 46 149 41 196 c 1
 173 196 l 1xec
 178 154 191 126 211 113 c 0
 231 100 260 94 295 94 c 0
 320 94 342 99 360 110 c 0
 378 121 392 137 403 159 c 0
 414 181 423 211 428 246 c 0
 433 281 435 324 435 375 c 2
 435 438 l 1
 470 437 l 1
 463 405 450 378 431 354 c 0
 412 330 388 313 359 300 c 0
 330 287 297 281 261 281 c 0
 215 281 175 291 141 310 c 0
 107 329 80 356 60 391 c 0
 40 426 30 466 30 511 c 0
 30 559 41 600 63 635 c 0
 85 670 116 698 156 718 c 0
 196 738 241 748 293 748 c 0
 386 748 457 716 506 653 c 0
 555 590 580 498 580 377 c 0
 580 295 569 225 546 167 c 0
 523 109 491 65 448 35 c 0
 405 5 352 -10 291 -10 c 0xf4
302 382 m 0
 342 382 372 393 395 416 c 0
 418 439 429 469 429 507 c 0
 429 533 424 556 414 577 c 0
 404 598 389 614 370 626 c 0
 351 638 327 643 300 643 c 0
 261 643 231 631 209 607 c 0
 187 583 175 551 175 512 c 0xf4
 175 474 187 442 209 418 c 0
 231 394 262 382 302 382 c 0
EndSplineSet
Substitution2: "'tnum' Tabular Numbers in Latin lookup 19 subtable" nine.tf
Substitution2: "'aalt' Access All Alternates in Latin lookup 0 subtable" nine.tf
EndChar
StartChar: less
Encoding: 60 60 442
Width: 543
Flags: HW
LayerCount: 3
Fore
SplineSet
496 590 m 1
 496 487 l 1
 145 369 l 1
 145 392 l 1
 496 275 l 1
 496 173 l 1
 47 327 l 1
 47 433 l 1
 496 590 l 1
EndSplineSet
Substitution2: "'tnum' Tabular Numbers in Latin lookup 19 subtable" less.tf
Substitution2: "'aalt' Access All Alternates in Latin lookup 0 subtable" less.tf
EndChar
StartChar: equal
Encoding: 61 61 440
Width: 543
Flags: HW
HStem: 229 96<47 496> 434 96<47 496>
LayerCount: 3
Fore
SplineSet
47 434 m 1
 47 530 l 1
 496 530 l 1
 496 434 l 1
 47 434 l 1
47 229 m 1
 47 326 l 1
 496 326 l 1
 496 229 l 1
 47 229 l 1
EndSplineSet
Substitution2: "'tnum' Tabular Numbers in Latin lookup 19 subtable" equal.tf
Substitution2: "'aalt' Access All Alternates in Latin lookup 0 subtable" equal.tf
EndChar
StartChar: greater
Encoding: 62 62 441
Width: 543
Flags: HW
LayerCount: 3
Fore
SplineSet
47 170 m 1
 47 272 l 1
 399 391 l 1
 399 368 l 1
 47 484 l 1
 47 587 l 1
 496 433 l 1
 496 327 l 1
 47 170 l 1
EndSplineSet
Substitution2: "'tnum' Tabular Numbers in Latin lookup 19 subtable" greater.tf
Substitution2: "'aalt' Access All Alternates in Latin lookup 0 subtable" greater.tf
EndChar
StartChar: question
Encoding: 63 63 351
Width: 550
Flags: HW
HStem: 0 147<155 302> 660 108<112 318>
VStem: 155 147<0 147> 166 124<257 333> 349 132<510 631>
LayerCount: 3
Fore
SplineSet
166 257 m 5xd8
 166 292 170 321 179 345 c 4
 188 369 200 388 214 404 c 4
 228 420 243 435 258 448 c 4
 273 461 288 472 302 484 c 4
 316 496 327 509 336 523 c 4
 345 537 349 553 349 572 c 4
 349 601 339 623 319 638 c 4
 299 653 271 660 236 660 c 4
 181 661 133 651 93 629 c 5
 91 742 l 5
 131 760 180 769 238 768 c 4
 287 768 330 760 366 744 c 4
 402 728 431 705 451 676 c 4
 471 647 481 612 481 573 c 4
 481 544 476 519 467 499 c 4
 458 479 446 460 432 445 c 4
 418 430 403 416 386 404 c 4
 369 392 353 380 339 366 c 4
 325 352 313 336 304 319 c 4
 295 302 290 282 290 257 c 5
 166 257 l 5xd8
155 0 m 5xe8
 155 147 l 5
 302 147 l 5
 302 0 l 5
 155 0 l 5xe8
EndSplineSet
Validated: 33
Substitution2: "'ss01' Style Set 1 in Latin lookup 22 subtable" question.ss01
Substitution2: "'case' Case-Sensitive Forms in Latin lookup 20 subtable" question.case
AlternateSubs2: "'aalt' Access All Alternates in Latin lookup 1 subtable" question.case question.ss01
EndChar
StartChar: at
Encoding: 64 64 419
Width: 889
Flags: HW
HStem: -10 83<299 589> 3 113<582 645> 155 83<599 692> 156 94<361 445> 492 94<387 498> 665 83<346 625>
VStem: 42 90<224 461> 219 117<275 434> 758 89<328 544>
LayerCount: 3
Fore
SplineSet
442 -10 m 0x8f80
 361 -10 291 4 231 32 c 0
 171 60 125 100 92 152 c 0
 59 204 42 264 42 334 c 0
 42 393 53 447 73 497 c 0
 93 547 123 591 162 629 c 0
 201 667 249 695 305 716 c 0
 361 737 425 748 495 748 c 0
 566 748 627 735 680 710 c 0
 733 685 774 650 803 606 c 0
 832 562 847 510 847 451 c 0
 847 412 840 374 828 339 c 0
 816 304 799 272 777 244 c 0
 755 216 729 195 701 179 c 0
 673 163 642 155 611 155 c 0xaf80
 586 155 564 160 547 171 c 0
 530 182 518 197 512 216 c 0
 506 235 506 256 513 280 c 1
 515 255 l 1
 499 224 477 199 451 182 c 0
 425 165 397 156 366 156 c 0x1f80
 323 156 287 171 260 202 c 0
 233 233 219 275 219 327 c 0
 219 362 225 394 236 425 c 0
 247 456 262 484 281 508 c 0
 300 532 323 551 348 565 c 0
 373 579 400 586 429 586 c 0
 471 586 503 574 525 551 c 0
 547 528 555 498 552 463 c 1
 542 464 l 1
 566 557 l 1
 680 557 l 1
 617 315 l 2
 610 288 609 270 613 257 c 0
 617 244 626 238 640 238 c 0
 656 238 671 243 685 254 c 0
 699 265 711 279 722 298 c 0
 733 317 742 339 748 364 c 0
 754 389 758 413 758 440 c 0
 758 488 748 529 726 562 c 0
 704 595 674 621 634 638 c 0
 594 655 548 665 493 665 c 0
 434 665 382 656 337 639 c 0
 292 622 255 600 225 570 c 0
 195 540 172 505 156 465 c 0
 140 425 132 382 132 336 c 0
 132 282 144 236 169 196 c 0
 194 156 228 125 274 104 c 0
 320 83 374 73 437 73 c 0xaf80
 472 73 508 76 544 84 c 0
 580 92 614 102 647 116 c 1
 678 40 l 1
 647 24 611 12 570 3 c 0x4f80
 529 -6 486 -10 442 -10 c 0x8f80
414 250 m 0x1f80
 429 250 443 254 456 262 c 0
 469 270 480 280 490 294 c 0
 500 308 508 323 513 340 c 0
 518 357 521 376 521 396 c 0
 521 425 515 449 501 466 c 0
 487 483 468 492 444 492 c 0
 429 492 415 488 402 480 c 0
 389 472 378 463 368 449 c 0
 358 435 349 419 344 402 c 0
 339 385 336 366 336 346 c 0
 336 315 343 292 357 275 c 0
 371 258 391 250 414 250 c 0x1f80
EndSplineSet
EndChar
StartChar: A
Encoding: 65 65 1
Width: 733
GlyphClass: 2
Flags: HW
HStem: 0 22G<30 179 554 704> 183 105<166 558> 717 20G<284 450>
AnchorPoint: "Anchor-3" 704 0 basechar 0
AnchorPoint: "Anchor-2" 367 0 basechar 0
AnchorPoint: "Anchor-0" 367 737 basechar 0
LayerCount: 3
Fore
SplineSet
30 0 m 1
 291 737 l 1
 416 737 l 1
 172 0 l 1
 30 0 l 1
561 0 m 1
 318 737 l 1
 442 737 l 1
 704 0 l 1
 561 0 l 1
166 289 m 1
 558 289 l 1
 558 183 l 1
 166 183 l 1
 166 289 l 1
EndSplineSet
Substitution2: "Single Substitution lookup 17 subtable" ordfeminine
Substitution2: "'aalt' Access All Alternates in Latin lookup 0 subtable" ordfeminine
EndChar
StartChar: B
Encoding: 66 66 13
Width: 654
Flags: HW
HStem: 0 98<172 431> 338 96<172 411> 378 22<417 446> 639 98<172 421>
VStem: 172 39<0 98 338 434 639 737> 454 142<468 607> 472 144<138 293>
LayerCount: 3
Fore
SplineSet
172 0 m 1xba
 172 98 l 1
 356 98 l 6
 393 98 422 109 442 129 c 4
 462 149 472 178 472 214 c 4xba
 472 252 462 283 440 305 c 4
 418 327 388 338 350 338 c 6
 172 338 l 1
 172 434 l 1
 341 434 l 6
 377 434 405 443 424 461 c 4
 443 479 454 505 454 539 c 4
 454 572 444 596 426 613 c 4
 408 630 380 639 345 639 c 6
 172 639 l 1
 172 737 l 1
 380 737 l 2
 446 737 498 721 537 688 c 0
 576 655 596 610 596 553 c 0xdc
 596 518 587 486 571 460 c 0
 555 434 533 413 505 399 c 0
 477 385 447 378 412 378 c 1
 417 399 l 1
 454 399 488 391 518 374 c 0
 548 357 572 334 590 304 c 0
 608 274 616 240 616 200 c 0
 616 160 607 124 588 94 c 0
 569 64 543 41 510 25 c 0
 477 9 437 0 392 0 c 2
 172 0 l 1xba
69 0 m 1
 69 737 l 1
 211 737 l 1
 211 0 l 1
 69 0 l 1
EndSplineSet
Validated: 5
EndChar
StartChar: C
Encoding: 67 67 14
Width: 747
GlyphClass: 2
Flags: HW
HStem: -10 108<300 479> 640 108<303 481>
VStem: 39 142<242 492> 565 147<194 271 466 545>
AnchorPoint: "Anchor-2" 386 0 basechar 0
AnchorPoint: "Anchor-0" 386 737 basechar 0
LayerCount: 3
Fore
SplineSet
391 -10 m 0
 340 -10 293 -1 250 17 c 0
 207 35 169 62 138 96 c 0
 107 130 82 171 65 217 c 0
 48 263 39 315 39 371 c 256
 39 427 48 477 65 523 c 0
 82 569 107 609 138 643 c 0
 169 677 206 702 249 720 c 0
 292 738 339 748 390 748 c 0
 448 748 500 736 546 713 c 0
 592 690 629 656 658 614 c 0
 687 572 705 523 711 466 c 1
 564 466 l 1
 555 529 529 640 391 640 c 0
 225 640 181 460 181 372 c 0
 181 289 213 97 392 97 c 0
 518 97 554 196 565 271 c 1
 713 271 l 1
 705 214 687 164 658 122 c 0
 629 80 592 47 546 24 c 0
 500 1 448 -10 391 -10 c 0
EndSplineSet
EndChar
StartChar: D
Encoding: 68 68 19
Width: 754
GlyphClass: 2
Flags: HW
HStem: 0 105<144 441> 632 105<147 444>
VStem: 144 62<0 105 632 737> 573 144<250 493>
AnchorPoint: "Anchor-2" 379 0 basechar 0
AnchorPoint: "Anchor-0" 379 737 basechar 0
LayerCount: 3
Fore
SplineSet
144 0 m 1
 144 105 l 1
 327 105 l 2
 381 105 427 116 465 139 c 0
 503 162 522 193 542 233 c 0
 562 273 573 320 573 373 c 0
 573 426 563 470 543 509 c 0
 523 548 504 578 466 600 c 0
 428 622 382 632 327 632 c 2
 147 632 l 1
 147 737 l 1
 327 737 l 2
 406 737 475 723 533 693 c 0
 591 663 637 621 669 566 c 0
 701 511 717 446 717 371 c 256
 717 296 700 231 668 175 c 0
 636 119 591 76 533 46 c 0
 475 16 407 0 328 0 c 2
 144 0 l 1
65 0 m 1
 65 737 l 1
 207 737 l 5
 207 0 l 5
 65 0 l 1
EndSplineSet
EndChar
StartChar: E
Encoding: 69 69 23
Width: 636
GlyphClass: 2
Flags: HW
HStem: 0 104<132 582> 328 103<132 547> 633 104<132 571>
VStem: 132 79<0 104 328 431 633 737>
AnchorPoint: "Anchor-3" 544 0 basechar 0
AnchorPoint: "Anchor-2" 319 0 basechar 0
AnchorPoint: "Anchor-0" 330 737 basechar 0
LayerCount: 3
Fore
SplineSet
69 0 m 1
 69 737 l 1
 211 737 l 5
 211 0 l 5
 69 0 l 1
132 0 m 1
 132 104 l 1
 582 104 l 1
 582 0 l 1
 132 0 l 1
132 328 m 1
 132 431 l 1
 547 431 l 1
 547 328 l 1
 132 328 l 1
132 633 m 1
 132 737 l 1
 571 737 l 1
 571 633 l 1
 132 633 l 1
EndSplineSet
EndChar
StartChar: F
Encoding: 70 70 32
Width: 593
Flags: HW
HStem: 0 22G<65 207> 297 103<128 526> 633 104<128 551>
VStem: 65 142<0 297 400 633> 128 79<297 400 633 737>
LayerCount: 3
Fore
SplineSet
65 0 m 1xf0
 65 737 l 1xf0
 207 737 l 5xe8
 207 0 l 5
 65 0 l 1xf0
128 297 m 1xe8
 128 400 l 1
 526 400 l 1
 526 297 l 1
 128 297 l 1xe8
128 633 m 1
 128 737 l 1
 551 737 l 1
 551 633 l 1
 128 633 l 1
EndSplineSet
EndChar
StartChar: G
Encoding: 71 71 33
Width: 764
GlyphClass: 2
Flags: HW
HStem: -10 106<307 566> 294 104<412 570> 640 108<297 492>
VStem: 39 144<230 500> 570 142<108 294 497 563>
AnchorPoint: "Anchor-2" 392 0 basechar 0
AnchorPoint: "Anchor-0" 392 737 basechar 0
LayerCount: 3
Fore
SplineSet
408 -10 m 0
 332 -10 266 5 211 36 c 0
 156 67 114 110 84 166 c 0
 54 222 39 290 39 366 c 0
 39 442 54 508 84 565 c 0
 114 622 155 667 208 699 c 0
 261 731 323 748 393 748 c 0
 450 748 502 737 547 715 c 0
 592 693 629 664 657 627 c 0
 685 590 703 547 708 497 c 1
 565 497 l 1
 559 541 550 576 518 602 c 0
 486 628 444 640 395 640 c 0
 268 640 234 564 211 514 c 0
 193 474 183 426 183 369 c 0
 183 105 359 96 415 96 c 3
 491 96 535 110 570 127 c 5
 570 294 l 1
 412 294 l 1
 412 398 l 1
 713 398 l 1
 713 52 l 1
 697 39 644 23 554 3 c 0
 516 -6 467 -10 408 -10 c 0
EndSplineSet
Substitution2: "'ss07' Style Set 7 in Latin lookup 28 subtable" G.ss07
Substitution2: "'aalt' Access All Alternates in Latin lookup 0 subtable" G.ss07
EndChar
StartChar: H
Encoding: 72 72 37
Width: 717
GlyphClass: 2
Flags: HW
HStem: 0 21G<67 206 512 651> 324 102<129 580> 700 20G<67 206 512 651>
VStem: 67 139<0 324 426 720> 129 77<324 426> 512 139<0 324 426 720> 512 68<324 426>
AnchorPoint: "Anchor-2" 359 0 basechar 0
AnchorPoint: "Anchor-0" 359 720 basechar 0
LayerCount: 3
Fore
SplineSet
67 0 m 1xf0
 67 720 l 1
 206 720 l 1
 206 0 l 1
 67 0 l 1xf0
512 0 m 5xe4
 512 720 l 5
 651 720 l 1
 651 0 l 1
 512 0 l 5xe4
129 426 m 1xea
 580 426 l 1
 580 324 l 1
 129 324 l 1
 129 426 l 1xea
EndSplineSet
Validated: 5
EndChar
StartChar: I
Encoding: 73 73 39
Width: 262
GlyphClass: 2
Flags: HW
HStem: 0 21G<62 201> 700 20G<62 201>
VStem: 62 139<0 720>
AnchorPoint: "Anchor-3" 177 0 basechar 0
AnchorPoint: "Anchor-2" 131 0 basechar 0
AnchorPoint: "Anchor-0" 131 720 basechar 0
LayerCount: 3
Fore
SplineSet
62 0 m 5
 62 720 l 5
 201 720 l 1
 201 0 l 1
 62 0 l 5
EndSplineSet
Validated: 1
EndChar
StartChar: J
Encoding: 74 74 48
Width: 427
Flags: HW
HStem: -10 103<19.7941 198.682> 700 20G<225 364>
VStem: 225 139<120.02 720>
LayerCount: 3
Fore
SplineSet
138 -10 m 0
 101.333007812 -10 61.3330078125 -8 18 -4 c 1
 18 100 l 1
 51.3330078125 95.3330078125 80.3330078125 93 117 93 c 4
 153.666992188 93 181.166992188 100.5 199.5 115.5 c 4
 217.833007812 130.5 225 155.333007812 225 190 c 6
 225 720 l 5
 364 720 l 1
 364 184 l 2
 364 118.666992188 344.666992188 70 306 38 c 0
 267.333007812 6 211.333007812 -10 138 -10 c 0
EndSplineSet
Validated: 1
Substitution2: "'ss08' Style Set 8 in Latin lookup 29 subtable" J.ss08
Substitution2: "'aalt' Access All Alternates in Latin lookup 0 subtable" J.ss08
EndChar
StartChar: K
Encoding: 75 75 49
Width: 720
GlyphClass: 2
Flags: HW
HStem: 0 22G<69 211 542 733> 717 20G<69 211 525 717>
VStem: 69 142<0 737>
AnchorPoint: "Anchor-2" 376 0 basechar 0
AnchorPoint: "Anchor-0" 372 737 basechar 0
LayerCount: 3
Fore
SplineSet
69 0 m 1
 69 737 l 1
 211 737 l 1
 211 0 l 1
 69 0 l 1
211 383 m 1
 545 737 l 1
 717 737 l 1
 383 383 l 1
 211 383 l 1
561 0 m 1
 211 383 l 1
 383 383 l 1
 733 0 l 1
 561 0 l 1
EndSplineSet
Substitution2: "'ss04' Style Set 4 in Latin lookup 25 subtable" K.ss04
Substitution2: "'aalt' Access All Alternates in Latin lookup 0 subtable" K.ss04
EndChar
StartChar: L
Encoding: 76 76 51
Width: 589
GlyphClass: 2
Flags: HW
HStem: 0 104<129 545> 717 20G<66 208>
VStem: 66 142<104 737> 129 79<0 104>
AnchorPoint: "Anchor-2" 320 0 basechar 0
AnchorPoint: "Anchor-1" 372 737 basechar 0
AnchorPoint: "Anchor-0" 131 737 basechar 0
LayerCount: 3
Fore
SplineSet
66 0 m 1xe0
 66 737 l 1
 208 737 l 1xe0
 208 0 l 1xd0
 66 0 l 1xe0
129 0 m 1xd0
 129 104 l 1
 545 104 l 1
 545 0 l 1
 129 0 l 1xd0
EndSplineSet
EndChar
StartChar: M
Encoding: 77 77 56
Width: 891
Flags: HW
HStem: 0 21G<67 206 368.793 516.19 685 824> 700 20G<67 272.205 617.824 824>
VStem: 168 38<644.444 667> 685 139<0 588> 693 25<649.385 672>
LayerCount: 3
Fore
SplineSet
67 0 m 1xe8
 67 720 l 1
 266 720 l 1
 481 27 l 1
 410 27 l 1
 624 720 l 1
 824 720 l 1
 824 0 l 1
 685 0 l 5xf0
 693 672 l 5
 718 672 l 1
 510 0 l 1
 375 0 l 1
 168 667 l 1
 206 667 l 1
 206 0 l 1
 67 0 l 1xe8
EndSplineSet
Validated: 5
Substitution2: "'ss06' Style Set 6 in Latin lookup 27 subtable" M.ss06
Substitution2: "'aalt' Access All Alternates in Latin lookup 0 subtable" M.ss06
EndChar
StartChar: N
Encoding: 78 78 57
Width: 735
GlyphClass: 2
Flags: HW
HStem: 0 22G<69 211 493 667> 717 20G<69 242 524 667>
VStem: 69 142<0 640> 524 142<97 737>
AnchorPoint: "Anchor-2" 368 0 basechar 0
AnchorPoint: "Anchor-0" 368 737 basechar 0
LayerCount: 3
Fore
SplineSet
69 0 m 1
 69 737 l 1
 231 737 l 1
 575 97 l 1
 524 89 l 5
 524 737 l 5
 667 737 l 1
 667 0 l 1
 504 0 l 1
 159 640 l 1
 211 648 l 1
 211 0 l 1
 69 0 l 1
EndSplineSet
EndChar
StartChar: O
Encoding: 79 79 63
Width: 782
GlyphClass: 2
Flags: HW
HStem: -10 105<297.966 479.614> 625 105<297.255 487.514>
VStem: 41 141<233.129 493.303> 599 141<235.292 495.961>
AnchorPoint: "Anchor-3" 537 20 basechar 0
AnchorPoint: "Anchor-2" 391 0 basechar 0
AnchorPoint: "Anchor-1" 757 720 basechar 0
AnchorPoint: "Anchor-0" 391 720 basechar 0
LayerCount: 3
Fore
SplineSet
391 -10 m 0
 339.666992188 -10 292.833007812 -1 250.5 17 c 0
 208.166992188 35 171.333007812 60.5 140 93.5 c 0
 108.666992188 126.5 84.3330078125 165.833007812 67 211.5 c 0
 49.6669921875 257.166992188 41 307.666992188 41 363 c 0
 41 436.333007812 55.8330078125 500.5 85.5 555.5 c 0
 115.166992188 610.5 156.333007812 653.333007812 209 684 c 0
 261.666992188 714.666992188 322 730 390 730 c 0
 458.666992188 730 519.333007812 714.666992188 572 684 c 0
 624.666992188 653.333007812 665.833007812 610.333007812 695.5 555 c 0
 725.166992188 499.666992188 740 435.333007812 740 362 c 0
 740 307.333007812 731.333007812 257.166992188 714 211.5 c 0
 696.666992188 165.833007812 672.5 126.5 641.5 93.5 c 0
 610.5 60.5 573.666992188 35 531 17 c 0
 488.333007812 -1 441.666992188 -10 391 -10 c 0
390 95 m 256
 520.985351562 95 599 205.919921875 599 364 c 0
 599 394.278320312 602.043945312 625 390 625 c 256
 260.0625 625 182 526.889648438 182 364 c 4
 182 201.057617188 260.342773438 95 390 95 c 256
EndSplineSet
Validated: 33
Substitution2: "Single Substitution lookup 17 subtable" ordmasculine
Substitution2: "'aalt' Access All Alternates in Latin lookup 0 subtable" ordmasculine
EndChar
StartChar: P
Encoding: 80 80 73
Width: 674
Flags: HW
HStem: 0 22G<69 211> 287 104<171 453> 633 104<211 453>
VStem: 69 142<0 287 391 633> 171 40<287 391> 499 142<436 588>
LayerCount: 3
Fore
SplineSet
69 0 m 1xf4
 69 737 l 1xf4
 386 737 l 2
 439 737 485 728 523 710 c 0
 561 692 590 665 610 632 c 0
 630 599 641 559 641 513 c 256
 641 467 631 428 610 394 c 0
 589 360 560 334 522 315 c 0
 484 296 439 287 386 287 c 2
 171 287 l 1
 171 391 l 1xec
 370 391 l 6
 412 391 443 401 465 423 c 4
 487 445 499 475 499 513 c 4
 499 551 487 580 465 601 c 4
 443 622 412 633 370 633 c 6
 211 633 l 1
 211 0 l 1
 69 0 l 1xf4
EndSplineSet
Validated: 5
EndChar
StartChar: Q
Encoding: 81 81 75
Width: 793
Flags: HW
HStem: -10 100<298.81 520.516> 625 105<297.255 487.514>
VStem: 41 141<228.298 493.303> 599 141<229.902 495.961>
LayerCount: 3
Fore
SplineSet
397 -10 m 1
 326.333007812 -10 264.166992188 5.6669921875 210.5 37 c 0
 156.833007812 68.3330078125 115.166992188 112 85.5 168 c 0
 55.8330078125 224 41 289 41 363 c 0
 41 436.333007812 55.8330078125 500.5 85.5 555.5 c 0
 115.166992188 610.5 156.333007812 653.333007812 209 684 c 0
 261.666992188 714.666992188 322 730 390 730 c 0
 458.666992188 730 519.333007812 714.666992188 572 684 c 0
 624.666992188 653.333007812 665.833007812 610.333007812 695.5 555 c 0
 725.166992188 499.666992188 740 435.333007812 740 362 c 0
 740 312.666992188 732.333007812 266.666992188 717 224 c 0
 701.666992188 181.333007812 677.666992188 144.833007812 645 114.5 c 0
 612.333007812 84.1669921875 570.333007812 62.3330078125 519 49 c 1
 397 -10 l 1
390 90 m 256
 520.516601562 90 599 195.713867188 599 364 c 4
 599 394.278320312 602.043945312 625 390 625 c 256
 260.0625 625 182 526.889648438 182 364 c 0
 182 192.919921875 262.1171875 90 390 90 c 256
397 -10 m 1
 395 52 l 1
 782 119 l 1
 782 0 l 1
 741.333007812 0 704.166992188 -0.5 670.5 -1.5 c 0
 636.833007812 -2.5 606.5 -3.6669921875 579.5 -5 c 0
 552.5 -6.3330078125 524.5 -7.5 495.5 -8.5 c 0
 466.5 -9.5 433.666992188 -10 397 -10 c 1
EndSplineSet
Validated: 37
Substitution2: "'ss09' Style Set 9 in Latin lookup 30 subtable" Q.ss09
Substitution2: "'aalt' Access All Alternates in Latin lookup 0 subtable" Q.ss09
EndChar
StartChar: R.ss05
Encoding: 82 82 135
Width: 657
GlyphClass: 2
Flags: HW
HStem: 0 22G<65 207 512 660> 311 100<128 417> 633 104<207 434>
VStem: 65 142<0 311 412 633> 128 79<311 412> 475 142<455 593>
AnchorPoint: "Anchor-2" 336 0 basechar 0
AnchorPoint: "Anchor-0" 330 737 basechar 0
LayerCount: 3
Fore
SplineSet
65 0 m 1xf4
 65 737 l 1xf4
 371 737 l 2
 422 737 466 729 503 713 c 0
 540 697 568 673 588 643 c 0
 608 613 618 577 618 535 c 0
 618 434 553 375 425 359 c 1
 428 372 l 1
 463 375 497 363 530 339 c 0
 568 312 587 259 607 188 c 6
 664 0 l 5
 521 0 l 1
 475 189 l 2
 458 270 414 311 335 311 c 2
 128 311 l 1
 128 412 l 1xec
 345 412 l 2
 387 412 418 421 441 441 c 0
 464 461 475 488 475 523 c 0
 475 558 464 586 442 605 c 0
 420 624 387 633 345 633 c 2
 207 633 l 1
 207 0 l 1
 65 0 l 1xf4
EndSplineSet
EndChar
StartChar: S
Encoding: 83 83 80
Width: 631
GlyphClass: 2
Flags: HW
HStem: -9 99<238.038 432.919> 514 21G<444.667 587> 631 100<239.716 405.481>
VStem: 35 139<148.796 230> 69 134<481.23 597.548> 448 139<514 590.989> 463 145<119.142 250.179>
AnchorPoint: "Anchor-2" 331 0 basechar 0
AnchorPoint: "Anchor-0" 325 720 basechar 0
LayerCount: 3
Fore
SplineSet
336 -9 m 0xea
 248 -9 177.833007812 11.8330078125 125.5 53.5 c 0
 73.1669921875 95.1669921875 43 154 35 230 c 1
 174 230 l 1
 179.333007812 185.333007812 182.833007812 150.833007812 214.5 126.5 c 0
 246.166992188 102.166992188 288.333007812 90 341 90 c 0
 429 90 463 120.666992188 463 182 c 0xf2
 463 237.9296875 441.348632812 266.439453125 379 286 c 2
 254 327 l 2
 190 347.666992188 143.166992188 374.333007812 113.5 407 c 0
 83.8330078125 439.666992188 69 480.333007812 69 529 c 0
 69 663.666992188 153 731 321 731 c 0
 399 731 461.333007812 711.5 508 672.5 c 0
 554.666992188 633.5 581 580.666992188 587 514 c 1
 448 514 l 5xec
 441.333007812 554.666992188 440.5 584.333007812 415.5 603 c 0
 390.5 621.666992188 357 631 315 631 c 0
 233.666992188 631 203 582.666992188 203 546 c 0
 203 484.017578125 247.950195312 451.608398438 288 439 c 2
 416 397 l 2
 479.333007812 377 525.5 360.166992188 554.5 326.5 c 0
 583.5 292.833007812 608 251 608 201 c 0
 608 61 510.666992188 -9 336 -9 c 0xea
EndSplineSet
Validated: 1
EndChar
StartChar: T
Encoding: 84 84 86
Width: 669
GlyphClass: 2
Flags: HW
HStem: 0 22G<264 407> 633 104<33 264 407 637>
VStem: 264 142<0 633>
AnchorPoint: "Anchor-2" 335 0 basechar 0
AnchorPoint: "Anchor-0" 335 737 basechar 0
LayerCount: 3
Fore
SplineSet
264 0 m 1
 264 633 l 1
 33 633 l 1
 33 737 l 1
 637 737 l 1
 637 633 l 1
 407 633 l 5
 407 0 l 5
 264 0 l 1
EndSplineSet
EndChar
StartChar: U
Encoding: 85 85 89
Width: 696
GlyphClass: 2
Flags: HW
HStem: -10 105<272.583 429.368> 700 20G<59 209 497 637>
VStem: 59 150<168.612 720> 497 140<170.005 720>
AnchorPoint: "Anchor-3" 494 20 basechar 0
AnchorPoint: "Anchor-2" 348 0 basechar 0
AnchorPoint: "Anchor-1" 675 720 basechar 0
AnchorPoint: "Anchor-0" 338 720 basechar 0
LayerCount: 3
Back
SplineSet
347 -10 m 4
 252.333007812 -10 180.666992188 16.8330078125 132 70.5 c 132
 83.3330078125 124.166992188 59 201.333007812 59 302 c 6
 59 720 l 5
 198 720 l 5
 198 282 l 6
 198 222.841796875 213.553710938 95 348 95 c 260
 419.09375 95 508 126.154296875 508 282 c 6
 508 720 l 5
 637 720 l 5
 637 301 l 6
 637 201 612.5 124.166992188 563.5 70.5 c 132
 514.5 16.8330078125 442.333007812 -10 347 -10 c 4
EndSplineSet
Fore
SplineSet
347 -10 m 0
 252.333007812 -10 180.666992188 16.8330078125 132 70.5 c 0
 83.3330078125 124.166992188 59 171.333007812 59 302 c 2
 59 720 l 1
 209 720 l 1
 209 282 l 2
 209 134 282 93 348 95 c 256
 419.060546875 97.1533203125 497 126.154296875 497 282 c 2
 497 720 l 1
 637 720 l 1
 637 301 l 2
 637 161 612.5 124.166992188 563.5 70.5 c 0
 514.5 16.8330078125 442.333007812 -10 347 -10 c 0
EndSplineSet
Validated: 33
EndChar
StartChar: V
Encoding: 86 86 99
Width: 733
Flags: HW
HStem: 0 22G<284 450> 717 20G<30 179 554 704>
LayerCount: 3
Fore
SplineSet
291 0 m 1
 30 737 l 1
 172 737 l 1
 385 93 l 1
 348 93 l 5
 561 737 l 5
 704 737 l 1
 442 0 l 1
 291 0 l 1
EndSplineSet
EndChar
StartChar: W
Encoding: 87 87 100
Width: 1086
GlyphClass: 2
Flags: HW
HStem: 0 22G<242 414 676 848> 717 20G<46 213 468 629 877 1044>
AnchorPoint: "Anchor-2" 545 0 basechar 0
AnchorPoint: "Anchor-0" 545 737 basechar 0
LayerCount: 3
Fore
SplineSet
247 0 m 1
 46 737 l 1
 203 737 l 1
 358 59 l 1
 318 59 l 1
 473 737 l 1
 624 737 l 1
 777 59 l 1
 731 59 l 1
 886 737 l 1
 1044 737 l 1
 842 0 l 1
 682 0 l 1
 521 673 l 5
 571 673 l 5
 409 0 l 1
 247 0 l 1
EndSplineSet
EndChar
StartChar: X
Encoding: 88 88 105
Width: 712
Flags: HW
HStem: 0 22G<31 186 505 660> 717 20G<38 193 528 684>
LayerCount: 3
Fore
SplineSet
508 0 m 1
 299 331 l 1
 28 737 l 1
 211 737 l 1
 408 426 l 1
 691 0 l 1
 508 0 l 1
318 427 m 1
 521 737 l 1
 694 737 l 5
 400 314 l 5
 318 427 l 1
386 310 m 1
 183 0 l 1
 10 0 l 1
 303 423 l 1
 386 310 l 1
EndSplineSet
Validated: 5
EndChar
StartChar: Y
Encoding: 89 89 106
Width: 692
GlyphClass: 2
Flags: HW
HStem: 0 21G<281 416> 700 20G<20 180.057 520.997 673>
VStem: 281 135<0 304>
AnchorPoint: "Anchor-2" 346 0 basechar 0
AnchorPoint: "Anchor-0" 346 720 basechar 0
LayerCount: 3
Fore
SplineSet
281 0 m 1
 281 304 l 1
 20 720 l 1
 179 720 l 1
 383 351 l 1
 307 351 l 5
 510 720 l 5
 673 720 l 1
 416 304 l 1
 416 0 l 1
 281 0 l 1
EndSplineSet
Validated: 5
EndChar
StartChar: Z
Encoding: 90 90 111
Width: 641
GlyphClass: 2
Flags: HW
HStem: 0 104<210 593> 633 104<66 423>
AnchorPoint: "Anchor-2" 322 0 basechar 0
AnchorPoint: "Anchor-0" 322 737 basechar 0
LayerCount: 3
Fore
SplineSet
53 0 m 1
 53 92 l 1
 423 683 l 1
 488 633 l 1
 66 633 l 1
 66 737 l 1
 577 737 l 5
 577 647 l 5
 200 58 l 5
 157 104 l 1
 593 104 l 1
 593 0 l 1
 53 0 l 1
EndSplineSet
Validated: 1048581
EndChar
StartChar: bracketleft
Encoding: 91 91 392
Width: 443
Flags: HW
HStem: -108 99<206 385> 651 99<206 385>
VStem: 88 297<-108 -9 651 750> 88 118<-9 651>
LayerCount: 3
Fore
SplineSet
88 -108 m 1xe0
 88 750 l 1
 385 750 l 1
 385 651 l 1xe0
 206 651 l 1
 206 -9 l 1xd0
 385 -9 l 1
 385 -108 l 1
 88 -108 l 1xe0
EndSplineSet
Validated: 1
Substitution2: "'case' Case-Sensitive Forms in Latin lookup 20 subtable" bracketleft.case
Substitution2: "'aalt' Access All Alternates in Latin lookup 0 subtable" bracketleft.case
EndChar
StartChar: backslash
Encoding: 92 92 358
Width: 442
Flags: HW
LayerCount: 3
Fore
SplineSet
42 763 m 1
 151 763 l 1
 400 -73 l 1
 291 -73 l 1
 42 763 l 1
EndSplineSet
Validated: 1
EndChar
StartChar: bracketright
Encoding: 93 93 393
Width: 439
Flags: HW
HStem: -111 101<52 236> 667 101<52 236>
VStem: 52 304<-111 -9 667 768> 236 121<-9 667>
LayerCount: 3
Fore
SplineSet
357 768 m 1xe0
 357 -111 l 1
 52 -111 l 1
 52 -9 l 1xe0
 236 -9 l 1
 236 667 l 1xd0
 52 667 l 1
 52 768 l 1
 357 768 l 1xe0
EndSplineSet
Substitution2: "'case' Case-Sensitive Forms in Latin lookup 20 subtable" bracketright.case
Substitution2: "'aalt' Access All Alternates in Latin lookup 0 subtable" bracketright.case
EndChar
StartChar: asciicircum
Encoding: 94 94 444
Width: 543
Flags: HW
HStem: 503 255
LayerCount: 3
Fore
SplineSet
160 503 m 1
 63 503 l 1
 217 758 l 1
 326 758 l 1
 481 503 l 1
 383 503 l 1
 236 716 l 1
 309 716 l 1
 160 503 l 1
EndSplineSet
EndChar
StartChar: a
Encoding: 97 97 150
Width: 556
GlyphClass: 2
Flags: HW
HStem: -10 21G<183 229> 0 21G<378.333 504> 431.729 88.2705<224.228 345.085>
VStem: 45 124<97.1822 208.426> 366 125<0.843262 100 176 244 325 410.927> 380 124<0 99.002>
AnchorPoint: "Anchor-3" 505 0 basechar 0
AnchorPoint: "Anchor-2" 283 0 basechar 0
AnchorPoint: "Anchor-0" 291 510 basechar 0
LayerCount: 3
Fore
SplineSet
380 0 m 1x74
 376.666992188 13.3330078125 374.166992188 28 372.5 44 c 0
 370.833007812 60 370 78.6669921875 370 100 c 1
 366 100 l 1
 366 346 l 2
 366 417.546875 324.524414062 431.729492188 287 431.729492188 c 4
 255.892578125 431.729492188 204.583007812 417.11328125 197 361 c 1
 77 361 l 1
 82.3330078125 408.333007812 104.833007812 446.666992188 144.5 476 c 0
 184.166992188 505.333007812 233 520 291 520 c 0
 359 520 409.333007812 504.333007812 442 473 c 0
 474.666992188 441.666992188 491 396 491 336 c 2
 491 100 l 2x78
 491 84.6669921875 492 68.6669921875 494 52 c 0
 496 35.3330078125 499.333007812 18 504 0 c 1
 380 0 l 1x74
208 -10 m 0xb8
 158 -10 118.333007812 2.6669921875 89 28 c 0
 59.6669921875 53.3330078125 45 87.6669921875 45 131 c 0
 45 185.666992188 61.1669921875 226.666992188 93.5 254 c 0
 129.500976562 284.385742188 183.66796875 303.385742188 256 311 c 2
 389 325 l 1
 389 244 l 1
 279 235 l 2
 237 231.666992188 207.666992188 223 191 209 c 0
 176.333007812 197 169 175.666992188 169 145 c 0
 169 66.1083984375 279.625976562 59.5322265625 331.5 111.5 c 0
 351.989257812 132.026367188 366 150.666992188 366 176 c 1
 379 100 l 1
 366.333007812 64 345.166992188 36.6669921875 315.5 18 c 0
 285.833007812 -0.6669921875 250 -10 208 -10 c 0xb8
EndSplineSet
Validated: 37
Substitution2: "'ss02' Style Set 2 in Latin lookup 23 subtable" a.ss02
Substitution2: "Single Substitution lookup 17 subtable" ordfeminine
AlternateSubs2: "'aalt' Access All Alternates in Latin lookup 1 subtable" a.ss02 ordfeminine
EndChar
StartChar: b
Encoding: 98 98 162
Width: 618
Flags: HW
HStem: -10 88.0205<264.729 389.168> 0 21G<62 181.167> 431.729 88.2705<270.449 389.904> 700 20G<70 196>
VStem: 62 117<0 64.6154> 70 126<143.995 365.459 396 720> 187 9<396 429.333> 453 130<151.36 359.308>
LayerCount: 3
Fore
SplineSet
356 -10 m 4xb3
 309.333007812 -10 270.666992188 2.6669921875 240 28 c 4
 209.333007812 53.3330078125 190.333007812 86 183 126 c 5
 192 120 l 5
 179 0 l 5
 62 0 l 5x7b
 67 114 70 34 70 237 c 4
 70 720 l 5
 196 720 l 5
 196 396 l 5x75
 187 392 l 5
 195.666992188 429.333007812 215.833007812 460 247.5 484 c 4
 279.166992188 508 318 520 364 520 c 4
 408.666992188 520 447.333007812 509.166992188 480 487.5 c 4
 512.666992188 465.833007812 538 435.333007812 556 396 c 4
 574 356.666992188 583 310.333007812 583 257 c 4
 583 203 573.666992188 156 555 116 c 4
 536.333007812 76 510 45 476 23 c 4
 442 1 402 -10 356 -10 c 4xb3
323 78.0205078125 m 4xb1
 403.811523438 78.0205078125 453 153.889648438 453 256 c 260
 453 357.120117188 404.650390625 431.729492188 323 431.729492188 c 260
 242.116210938 431.729492188 193 355.79296875 193 255 c 4
 193 153.143554688 240.634765625 78.0205078125 323 78.0205078125 c 4xb1
EndSplineSet
Validated: 5
EndChar
StartChar: c
Encoding: 99 99 163
Width: 551
GlyphClass: 2
Flags: HW
HStem: -10 103<218 360> 429 103<218 359>
VStem: 27 133<158 365>
AnchorPoint: "Anchor-2" 282 0 basechar 0
AnchorPoint: "Anchor-0" 291 522 basechar 0
LayerCount: 3
Fore
SplineSet
288 -10 m 4
 134 -10 27 102 27 262 c 4
 27 422 134 532 288 532 c 4
 435 532 528 457 528 338 c 4
 398 338 l 7
 398 395 349 442 290 442 c 4
 207 442 160 377 160 262 c 260
 160 147 208 80 291 80 c 4
 355 80 398 122 398 184 c 4
 528 184 l 7
 528 72 426 -10 288 -10 c 4
EndSplineSet
EndChar
StartChar: d
Encoding: 100 100 168
Width: 620
GlyphClass: 2
Flags: HW
HStem: -10 90<228 356> 442 90<228 350>
VStem: 30 133<155 368> 426 129<147 374> 426 9<406 440> 444 120<0 66>
AnchorPoint: "Anchor-2" 310 0 basechar 0
AnchorPoint: "Anchor-1" 611 737 basechar 0
AnchorPoint: "Anchor-0" 310 756 basechar 0
LayerCount: 3
Fore
SplineSet
262 -10 m 4xe8
 310 -10 350 3 381 29 c 4
 412 55 431 88 439 129 c 5
 430 123 l 5
 444 0 l 5
 563 0 l 5xec
 558 117 555 35 555 243 c 4
 555 737 l 5xf0
 426 737 l 5
 426 406 l 5
 435 401 l 5
 426 439 405 471 373 496 c 4
 341 521 301 532 254 532 c 4
 208 532 168 521 135 499 c 4
 102 477 75 446 57 406 c 4
 39 366 30 318 30 263 c 4
 30 208 40 160 59 119 c 4
 78 78 104 47 139 24 c 4
 174 1 215 -10 262 -10 c 4xe8
296 80 m 4
 213 80 163 157 163 262 c 260
 163 366 212 442 296 442 c 260
 379 442 429 364 429 261 c 4
 429 157 380 80 296 80 c 4
EndSplineSet
EndChar
StartChar: e
Encoding: 101 101 172
Width: 569
GlyphClass: 2
Flags: HW
HStem: -10 88.0205<217.352 364.031> 218 87<110 403> 431.729 88.2705<215.546 359.259>
VStem: 110 30<218 305>
AnchorPoint: "Anchor-3" 422 20 basechar 0
AnchorPoint: "Anchor-2" 284 0 basechar 0
AnchorPoint: "Anchor-0" 295 510 basechar 0
LayerCount: 3
Fore
SplineSet
295 -10 m 0
 141.283203125 -10 32 93.087890625 32 256 c 256
 32 414.880859375 135.924804688 520 293 520 c 0
 343 520 386.166992188 509.5 422.5 488.5 c 0
 458.833007812 467.5 487 438.166992188 507 400.5 c 0
 527 362.833007812 537 318.333007812 537 267 c 0
 537 257.666992188 536.833007812 249 536.5 241 c 0
 536.166992188 233 535.333007812 225.333007812 534 218 c 1
 110 218 l 1
 110 305 l 1
 439 305 l 1
 413 280 l 5
 413 380.146484375 365.603515625 431.729492188 293 431.729492188 c 0
 205.711914062 431.729492188 162 362.487304688 162 254 c 0
 162 145.717773438 207.318359375 78.0205078125 299 78.0205078125 c 0
 346.538085938 78.0205078125 377.125 100.086914062 396 148 c 1
 524 148 l 1
 508 99.3330078125 480.5 60.8330078125 441.5 32.5 c 0
 402.5 4.1669921875 353.666992188 -10 295 -10 c 0
EndSplineSet
Validated: 5
EndChar
StartChar: f
Encoding: 102 102 181
Width: 373
Flags: HW
HStem: 0 21G<109 234> 412 98<20 343> 626 96<253.599 353>
VStem: 109 125<0 608.464>
LayerCount: 3
Fore
SplineSet
109 0 m 1
 109 559 l 2
 109 615 124.333007812 656.166992188 155 682.5 c 0
 185.666992188 708.833007812 231.333007812 722 292 722 c 4
 323 722 323 722 353 722 c 1
 353 626 l 1
 350 626 350 626 312 626 c 0
 285.333007812 626 265.666992188 620.333007812 253 609 c 0
 240.333007812 597.666992188 234 580.333007812 234 557 c 2
 234 0 l 1
 109 0 l 1
20 412 m 1
 20 510 l 1
 343 510 l 1
 343 412 l 1
 20 412 l 1
EndSplineSet
Validated: 5
EndChar
StartChar: g
Encoding: 103 103 182
Width: 620
GlyphClass: 2
Flags: HW
HStem: -173 89<187 387> 12 92<229 351> 440 92<229 358> 502 20G<434 559>
VStem: 30 143<167 376> 419 136<170 381> 426 9<105 139 400 438> 434 125<403 522>
AnchorPoint: "Anchor-2" 321 -163 basechar 0
AnchorPoint: "Anchor-0" 295 522 basechar 0
LayerCount: 3
Fore
SplineSet
302 -173 m 0xdc
 120 -173 52 -111 48 -30 c 5
 170 -30 l 7
 170 -85 271 -84 299 -84 c 0
 390 -84 426 -48 426 42 c 2
 426 139 l 1
 435 143 l 1
 427 105 407 74 374 49 c 0
 341 24 301 12 255 12 c 0
 209 12 169 23 136 45 c 0
 103 67 77 97 58 136 c 0
 39 175 30 219 30 267 c 256
 30 320 40 367 59 407 c 0
 78 447 105 477 140 499 c 0
 175 521 216 532 263 532 c 0xea
 311 532 350 521 381 496 c 0
 412 471 430 438 438 396 c 1
 430 400 l 1
 434 522 l 1
 559 522 l 1xd9
 555 403 l 0
 555 47 l 2
 555 -48 523 -173 302 -173 c 0xdc
297 104 m 0
 373 104 419 174 419 273 c 256xec
 419 376 377 440 295 440 c 0
 217 440 173 372 173 268 c 256
 173 171 219 104 297 104 c 0
EndSplineSet
EndChar
StartChar: h
Encoding: 104 104 186
Width: 611
GlyphClass: 2
Flags: HW
HStem: 0 22G<66 195 423 552> 442 90<282 395> 717 20G<66 195>
VStem: 66 129<0 250 401 737> 423 129<0 413>
AnchorPoint: "Anchor-2" 299 0 basechar 0
AnchorPoint: "Anchor-0" 299 522 basechar 0
LayerCount: 3
Fore
SplineSet
423 0 m 5
 423 313 l 6
 423 407 404 442 311 442 c 4
 227 442 195 339 195 250 c 5xcc
 181 401 l 5
 198 439 212 532 377 532 c 4xd4
 432 532 475 516 506 485 c 4
 537 454 552 412 552 360 c 6
 552 0 l 5
 423 0 l 5
66 0 m 1
 66 737 l 1
 195 737 l 1
 195 0 l 1
 66 0 l 1
EndSplineSet
EndChar
StartChar: k
Encoding: 107 107 200
Width: 579
GlyphClass: 2
Flags: HW
HStem: 0 21G<70 196 403.094 573> 490 20G<395.286 563> 706 20G<70 196>
VStem: 70 126<0 726>
AnchorPoint: "Anchor-2" 314 0 basechar 0
AnchorPoint: "Anchor-0" 279 740 basechar 0
LayerCount: 3
Fore
SplineSet
70 0 m 1
 70 726 l 1
 196 726 l 1
 196 0 l 1
 70 0 l 1
420 0 m 1
 196 265 l 1
 413 510 l 1
 563 510 l 1
 312 242 l 1
 318 289 l 1
 573 0 l 1
 420 0 l 1
EndSplineSet
Validated: 5
Substitution2: "'ss04' Style Set 4 in Latin lookup 25 subtable" k.ss04
Substitution2: "'aalt' Access All Alternates in Latin lookup 0 subtable" k.ss04
EndChar
StartChar: l
Encoding: 108 108 202
Width: 260
GlyphClass: 2
Flags: HW
HStem: 0 22G<66 195> 717 20G<66 195>
VStem: 66 129<0 737>
AnchorPoint: "Anchor-2" 130 0 basechar 0
AnchorPoint: "Anchor-1" 252 758 basechar 0
AnchorPoint: "Anchor-0" 130 758 basechar 0
LayerCount: 3
Fore
SplineSet
66 0 m 1
 66 758 l 5
 195 758 l 5
 195 0 l 1
 66 0 l 1
EndSplineSet
EndChar
StartChar: m
Encoding: 109 109 207
Width: 929
Flags: HW
HStem: 0 21G<70 196 405 530 739 864> 431.729 88.2705<263.271 378.924 593.091 713.159> 490 20G<66 188.678>
VStem: 66 117<405.872 510> 70 126<0 265> 405 125<0 405.422> 739 125<0 405.422>
LayerCount: 3
Fore
SplineSet
70 0 m 5xae
 70 404 l 6xae
 70 444 68.6669921875 479.333007812 66 510 c 5xb6
 188 510 l 5
 192 392 l 5
 196 392 l 5
 196 0 l 5
 70 0 l 5xae
405 0 m 5
 405 312 l 6
 405 386.701171875 390.6796875 431.729492188 311 431.729492188 c 4
 227.745117188 431.729492188 196 352.883789062 196 265 c 5xce
 183 393 l 5
 199.620117188 430.893554688 221.03125 520 367 520 c 4xd6
 417.666992188 520 457.5 505.5 486.5 476.5 c 4
 515.5 447.5 530 409.666992188 530 363 c 6
 530 0 l 5
 405 0 l 5
739 0 m 5
 739 312 l 6
 739 386.701171875 724.6796875 431.729492188 645 431.729492188 c 4
 561.745117188 431.729492188 530 352.883789062 530 265 c 5
 508 394 l 5
 531.483398438 446.603515625 560.31640625 520 699 520 c 4
 750.333007812 520 790.666992188 505.166992188 820 475.5 c 4
 849.333007812 445.833007812 864 406.333007812 864 357 c 6
 864 0 l 5
 739 0 l 5
EndSplineSet
Validated: 5
EndChar
StartChar: n
Encoding: 110 110 208
Width: 609
GlyphClass: 2
Flags: HW
HStem: 0 21G<70 196 419 545> 431.729 88.2705<281.559 391.288> 490 20G<66 188.678>
VStem: 66 117<414.531 510> 70 126<0 244 392 495.25> 419 126<0 403.243>
AnchorPoint: "Anchor-2" 315 0 basechar 0
AnchorPoint: "Anchor-0" 328 510 basechar 0
LayerCount: 3
Fore
SplineSet
70 0 m 1xac
 70 413 l 2xac
 70 445.666992188 68.6669921875 478 66 510 c 1xb4
 188 510 l 1
 192 392 l 1
 196 392 l 1
 196 0 l 1
 70 0 l 1xac
419 0 m 5
 419 306 l 6
 419 397.673828125 400.6640625 431.729492188 310 431.729492188 c 4
 228 431.729492188 196 330.873046875 196 244 c 5xcc
 183 392 l 5
 199.708007812 429.42578125 212.67578125 520 374 520 c 4xd4
 428 520 470 504.666992188 500 474 c 4
 530 443.333007812 545 402.666992188 545 352 c 6
 545 0 l 5
 419 0 l 5
EndSplineSet
Validated: 5
EndChar
StartChar: o
Encoding: 111 111 214
Width: 597
GlyphClass: 2
Flags: HW
HStem: -10 90<231 376> 442 90<232 378>
VStem: 31 133<156 367> 436 133<151 373>
AnchorPoint: "Anchor-3" 433 20 basechar 0
AnchorPoint: "Anchor-2" 299 0 basechar 0
AnchorPoint: "Anchor-1" 578 522 basechar 0
AnchorPoint: "Anchor-0" 299 522 basechar 0
LayerCount: 3
Fore
SplineSet
298 -10 m 0
 136 -10 31 97 31 262 c 256
 31 426 136 532 299 532 c 256
 462 532 568 426 568 263 c 256
 568 99 461 -10 298 -10 c 0
304 80 m 0
 388 80 436 145 436 262 c 0
 436 377 389 442 305 442 c 256
 218 442 164 373 163 262 c 0
 162 150 217 80 304 80 c 0
EndSplineSet
Substitution2: "Single Substitution lookup 17 subtable" ordmasculine
Substitution2: "'aalt' Access All Alternates in Latin lookup 0 subtable" ordmasculine
EndChar
StartChar: p
Encoding: 112 112 224
Width: 620
Flags: HW
HStem: -10 89<269 393> 441 91<266 393>
VStem: 57 120<455 521> 66 129<147 374> 185 9<82 116> 458 133<153 366>
LayerCount: 3
Fore
SplineSet
359 532 m 0xcc
 311 532 271 519 240 493 c 0
 209 467 189 433 181 392 c 1
 191 398 l 1
 177 522 l 5
 57 522 l 5xec
 62 405 66 487 66 279 c 0
 66 -162 l 1xd4
 195 -162 l 1
 195 116 l 1
 185 120 l 1
 194 82 215 51 247 26 c 0
 279 1 320 -10 367 -10 c 0
 413 -10 453 0 486 22 c 0
 519 44 545 76 563 116 c 0
 581 156 591 203 591 258 c 0
 591 313 581 361 562 402 c 0
 543 443 516 475 481 498 c 0
 446 521 406 532 359 532 c 0xcc
325 441 m 0
 408 441 458 364 458 259 c 256
 458 155 409 79 325 79 c 256
 242 79 192 157 192 260 c 0
 192 364 241 441 325 441 c 0
EndSplineSet
EndChar
StartChar: q
Encoding: 113 113 226
Width: 618
Flags: HW
HStem: -10 87.9521<228.096 349.876> 431.661 88.3389<229.216 351.387> 489.932 20G<436.015 555>
VStem: 35 130<149.808 357.755> 422 126<-158.5 -158.5 143.803 365.266> 422 9<79.667 113> 438 117<439.388 509.932>
LayerCount: 3
Fore
SplineSet
262 520 m 0xd4
 308.666992188 520 347.333007812 506.333007812 378 481 c 0
 408.666992188 455.666992188 427.666992188 423 435 383 c 1
 426 389 l 1
 438 509.931640625 l 1
 555 509.931640625 l 1xb6
 550 395.931640625 548 475 548 272 c 0
 548 -158.5 l 1
 422 -158.5 l 1xb8
 422 113 l 1
 431 117 l 1
 422.333007812 79.6669921875 402.166992188 49 370.5 25 c 0
 338.833007812 1 300 -10 254 -10 c 0
 209.333007812 -10 170.666992188 -0.1669921875 138 21.5 c 0
 105.333007812 43.1669921875 80 73.6669921875 62 113 c 0
 44 152.333007812 35 198.666992188 35 252 c 0
 35 306 44.3330078125 353 63 393 c 0
 81.6669921875 433 108 464 142 486 c 0
 176 508 216 520 262 520 c 0xd4
296 431.661132812 m 0xd0
 215.188476562 431.661132812 165 355.110351562 165 253 c 256
 165 151.879882812 213.349609375 77.9521484375 295 77.9521484375 c 256
 375.883789062 77.9521484375 425 153.20703125 425 254 c 0
 425 355.856445312 378.365234375 431.661132812 296 431.661132812 c 0xd0
EndSplineSet
Validated: 5
EndChar
StartChar: r
Encoding: 114 114 227
Width: 390
GlyphClass: 2
Flags: HW
HStem: 0 22G<66 195> 410 123<263 375> 502 20G<66 191>
VStem: 66 129<0 275 396 522>
AnchorPoint: "Anchor-2" 128 0 basechar 0
AnchorPoint: "Anchor-0" 216 522 basechar 0
LayerCount: 3
Fore
SplineSet
66 0 m 1xb0
 66 522 l 1
 191 522 l 1
 191 396 l 1
 195 396 l 1
 195 0 l 1
 66 0 l 1xb0
195 275 m 1
 181 391 l 5
 193 435 214 470 242 495 c 0
 270 520 305 532 345 532 c 0
 359 532 369 531 375 528 c 1
 375 408 l 1
 372 409 367 409 361 409 c 0
 355 409 348 410 339 410 c 0xd0
 291 410 255 399 231 377 c 0
 207 355 195 321 195 275 c 1
EndSplineSet
EndChar
StartChar: s
Encoding: 115 115 231
Width: 492
GlyphClass: 2
Flags: HW
HStem: -10 88<178.186 334.434> 432 88<181.229 320.206>
VStem: 29 113<109.906 158> 51 113<343.36 417.456> 355 113<95.632 175.958>
AnchorPoint: "Anchor-2" 258 0 basechar 0
AnchorPoint: "Anchor-0" 247 510 basechar 0
LayerCount: 3
Fore
SplineSet
260 -10 m 0xd8
 191.333007812 -10 136.666992188 4.8330078125 96 34.5 c 0
 55.3330078125 64.1669921875 33 105.333007812 29 158 c 1
 142 158 l 1xe8
 145.333007812 132 157.166992188 112.166992188 177.5 98.5 c 0
 197.833007812 84.8330078125 225.666992188 78 261 78 c 4
 292.333007812 78 315.833007812 83.1669921875 331.5 93.5 c 0
 347.166992188 103.833007812 355 118.666992188 355 138 c 0
 355 152 350.333007812 163.666992188 341 173 c 0
 331.666992188 182.333007812 314.333007812 190 289 196 c 2
 209 216 l 2
 155 229.333007812 115.166992188 248.5 89.5 273.5 c 0
 63.8330078125 298.5 51 330.333007812 51 369 c 0
 51 415.666992188 68.6669921875 452.5 104 479.5 c 0
 139.333007812 506.5 188 520 250 520 c 256
 312 520 361.5 506.5 398.5 479.5 c 0
 435.5 452.5 456 415.333007812 460 368 c 1
 347 368 l 1
 343.666992188 388.666992188 333.666992188 404.5 317 415.5 c 0
 300.333007812 426.5 277.333007812 432 248 432 c 0
 220.666992188 432 199.833007812 427.333007812 185.5 418 c 0
 171.166992188 408.666992188 164 395.666992188 164 379 c 0
 164 365.666992188 169.5 354.333007812 180.5 345 c 0
 191.5 335.666992188 210 327.666992188 236 321 c 2
 322 299 l 2
 370 287.666992188 406.333007812 268.166992188 431 240.5 c 0
 455.666992188 212.833007812 468 180 468 142 c 0
 468 94 449.833007812 56.6669921875 413.5 30 c 0
 377.166992188 3.3330078125 326 -10 260 -10 c 0xd8
EndSplineSet
Validated: 1
EndChar
StartChar: t
Encoding: 116 116 237
Width: 406
GlyphClass: 2
Flags: HW
HStem: 0 95<249 379> 422 100<15 380>
VStem: 113 129<107 639>
AnchorPoint: "Anchor-2" 263 0 basechar 0
AnchorPoint: "Anchor-1" 321 805 basechar 0
AnchorPoint: "Anchor-0" 161 522 basechar 0
LayerCount: 3
Fore
SplineSet
297 0 m 0
 155 0 113 46 113 168 c 2
 113 639 l 1
 242 709 l 1
 242 166 l 2
 242 103 252 99 324 95 c 6
 324 95 324 95 379 95 c 5
 380 0 l 1
 338 0 338 0 297 0 c 0
15 422 m 1
 15 522 l 1
 380 522 l 1
 380 422 l 1
 15 422 l 1
EndSplineSet
EndChar
StartChar: u
Encoding: 117 117 240
Width: 603
GlyphClass: 2
Flags: HW
HStem: -10 105<213 324> 0 22G<416 541> 502 20G<60 189 409 537>
VStem: 60 129<119 522> 409 128<15 121 236 522> 417 124<0 109>
AnchorPoint: "Anchor-3" 541 0 basechar 0
AnchorPoint: "Anchor-2" 302 0 basechar 0
AnchorPoint: "Anchor-1" 584 522 basechar 0
AnchorPoint: "Anchor-0" 302 522 basechar 0
LayerCount: 3
Fore
SplineSet
231 -10 m 0xb8
 196 -10 166 -3 140 12 c 0
 114 27 95 48 81 74 c 4
 67 100 60 129 60 162 c 2
 60 522 l 1
 189 522 l 1
 189 188 l 2
 189 164 197 80 284 80 c 0
 368 80 409 192 409 287 c 5
 422 119 l 1
 405 81 380 50 347 26 c 0
 314 2 275 -10 231 -10 c 0xb8
417 0 m 1x74
 413 121 l 1
 409 121 l 1
 409 522 l 1
 537 522 l 1
 537 109 l 1x78
 537 113 538 76 541 0 c 1
 417 0 l 1x74
EndSplineSet
EndChar
StartChar: v
Encoding: 118 118 250
Width: 536
Flags: HW
HStem: 0 21G<201.235 334.765> 490 20G<11 151.738 388.305 525>
LayerCount: 3
Fore
SplineSet
209 0 m 1
 11 510 l 1
 145 510 l 1
 302 44 l 1
 239 44 l 1
 395 510 l 1
 525 510 l 1
 327 0 l 1
 209 0 l 1
EndSplineSet
Validated: 5
EndChar
StartChar: w
Encoding: 119 119 251
Width: 800
GlyphClass: 2
Flags: HW
HStem: 0 22G<164 297 503 636> 502 20G<15 164 337 467 641 786>
AnchorPoint: "Anchor-2" 401 0 basechar 0
AnchorPoint: "Anchor-0" 401 522 basechar 0
LayerCount: 3
Fore
SplineSet
170 0 m 1
 15 522 l 1
 159 522 l 1
 250 130 l 1
 231 130 l 1
 343 522 l 1
 461 522 l 1
 575 130 l 1
 555 130 l 5
 645 522 l 5
 786 522 l 1
 630 0 l 1
 509 0 l 1
 395 388 l 1
 406 388 l 1
 291 0 l 1
 170 0 l 1
EndSplineSet
EndChar
StartChar: x
Encoding: 120 120 256
Width: 595
Flags: HW
HStem: 0 22G<32 186 407 565> 502 20G<53 211 403 557>
LayerCount: 3
Fore
SplineSet
421 0 m 1
 264 233 l 1
 53 522 l 1
 198 522 l 1
 338 310 l 1
 565 0 l 1
 421 0 l 1
274 314 m 1
 417 522 l 1
 557 522 l 1
 337 223 l 1
 274 314 l 1
325 217 m 1
 172 0 l 1
 32 0 l 1
 263 309 l 1
 325 217 l 1
EndSplineSet
EndChar
StartChar: y
Encoding: 121 121 300
Width: 548
GlyphClass: 2
Flags: HW
HStem: 502 20G<11 158 395 538>
AnchorPoint: "Anchor-2" 275 0 basechar 0
AnchorPoint: "Anchor-0" 275 522 basechar 0
LayerCount: 3
Fore
SplineSet
126 -162 m 1
 237 93 l 1
 260 131 l 1
 402 522 l 1
 538 522 l 1
 255 -162 l 1
 126 -162 l 1
237 18 m 1
 11 522 l 1
 151 522 l 1
 340 69 l 1
 237 18 l 1
EndSplineSet
EndChar
StartChar: z
Encoding: 122 122 262
Width: 524
GlyphClass: 2
Flags: HW
HStem: 0 80<183 477> 440 82<61 343>
AnchorPoint: "Anchor-2" 262 0 basechar 0
AnchorPoint: "Anchor-0" 262 522 basechar 0
LayerCount: 3
Fore
SplineSet
52 0 m 1
 52 90 l 1
 343 468 l 1
 373 440 l 5
 61 440 l 5
 61 522 l 1
 472 522 l 1
 472 433 l 1
 183 58 l 1
 157 80 l 1
 478 80 l 1
 477 0 l 1
 52 0 l 1
EndSplineSet
EndChar
StartChar: braceleft
Encoding: 123 123 390
Width: 443
Flags: HW
HStem: -108 99<248.505 385> 271 100<38 139.247> 651 99<248.505 385>
CounterMasks: 1 e0
LayerCount: 3
Fore
SplineSet
291 -108 m 2
 245.666992188 -108 209.666992188 -100.166992188 183 -84.5 c 0
 156.333007812 -68.8330078125 138.5 -47.6669921875 129.5 -21 c 0
 120.5 5.6669921875 119.333007812 36 126 70 c 2
 148 173 l 2
 155.333007812 207 153 231.833007812 141 247.5 c 0
 129 263.166992188 107 271 75 271 c 2
 38 271 l 1
 38 371 l 1
 75 371 l 2
 107 371 129 379 141 395 c 0
 153 411 155.333007812 435.666992188 148 469 c 2
 126 572 l 2
 119.333007812 606 120.5 636.333007812 129.5 663 c 0
 138.5 689.666992188 156.333007812 710.833007812 183 726.5 c 0
 209.666992188 742.166992188 245.666992188 750 291 750 c 2
 385 750 l 1
 385 651 l 1
 299 651 l 2
 275.666992188 651 258.666992188 644 248 630 c 0
 237.333007812 616 235 596.666992188 241 572 c 2
 264 473 l 2
 274 433.666992188 271.5 401 256.5 375 c 0
 241.5 349 218.333007812 331 187 321 c 1
 218.333007812 311 241.5 293 256.5 267 c 0
 271.5 241 274 208.333007812 264 169 c 2
 241 70 l 2
 235 45.3330078125 237.333007812 26 248 12 c 0
 258.666992188 -2 275.666992188 -9 299 -9 c 2
 385 -9 l 1
 385 -108 l 1
 291 -108 l 2
EndSplineSet
Validated: 33
Substitution2: "'case' Case-Sensitive Forms in Latin lookup 20 subtable" braceleft.case
Substitution2: "'aalt' Access All Alternates in Latin lookup 0 subtable" braceleft.case
EndChar
StartChar: bar
Encoding: 124 124 427
Width: 242
Flags: HW
VStem: 67 109<-130 790>
LayerCount: 3
Fore
SplineSet
67 -130 m 1
 67 790 l 1
 176 790 l 1
 176 -130 l 1
 67 -130 l 1
EndSplineSet
Validated: 1
EndChar
StartChar: braceright
Encoding: 125 125 391
Width: 443
Flags: HW
HStem: -108 99<58 194.495> 271 100<303.753 405> 651 99<58 194.495>
CounterMasks: 1 e0
LayerCount: 3
Fore
SplineSet
152 750 m 2
 197.333007812 750 233.333007812 742.166992188 260 726.5 c 0
 286.666992188 710.833007812 304.666992188 689.666992188 314 663 c 0
 323.333007812 636.333007812 324.333007812 606 317 572 c 2
 295 469 l 2
 287.666992188 435.666992188 290 411 302 395 c 0
 314 379 336 371 368 371 c 2
 405 371 l 1
 405 271 l 1
 368 271 l 2
 336 271 314 263.166992188 302 247.5 c 0
 290 231.833007812 287.666992188 207 295 173 c 2
 317 70 l 2
 324.333007812 36 323.333007812 5.6669921875 314 -21 c 0
 304.666992188 -47.6669921875 286.666992188 -68.8330078125 260 -84.5 c 0
 233.333007812 -100.166992188 197.333007812 -108 152 -108 c 2
 58 -108 l 1
 58 -9 l 1
 144 -9 l 2
 167.333007812 -9 184.333007812 -2 195 12 c 0
 205.666992188 26 208 45.3330078125 202 70 c 2
 179 169 l 2
 169 208.333007812 171.5 241 186.5 267 c 0
 201.5 293 224.666992188 311 256 321 c 1
 224.666992188 331 201.5 349 186.5 375 c 0
 171.5 401 169 433.666992188 179 473 c 2
 202 572 l 2
 208 596.666992188 205.666992188 616 195 630 c 0
 184.333007812 644 167.333007812 651 144 651 c 2
 58 651 l 1
 58 750 l 1
 152 750 l 2
EndSplineSet
Validated: 33
Substitution2: "'case' Case-Sensitive Forms in Latin lookup 20 subtable" braceright.case
Substitution2: "'aalt' Access All Alternates in Latin lookup 0 subtable" braceright.case
EndChar
StartChar: asciitilde
Encoding: 126 126 443
Width: 543
Flags: HW
HStem: 284 100<307 439> 348 100<106 238>
LayerCount: 3
Fore
SplineSet
389 284 m 0x80
 417 284 443 290 465 301 c 0
 487 312 504 329 518 352 c 0
 532 375 540 403 543 438 c 1
 459 438 l 1
 455 420 447 406 435 397 c 0
 423 388 407 384 388 384 c 0x80
 371 384 355 388 338 394 c 0
 321 400 303 407 285 416 c 0
 267 425 247 433 225 439 c 0
 203 445 180 449 154 449 c 0
 127 449 102 443 80 432 c 0
 58 421 40 404 26 381 c 0
 12 358 4 329 1 294 c 1
 85 294 l 1
 90 312 98 326 110 335 c 0
 122 344 137 348 156 348 c 0x40
 174 348 191 344 208 338 c 0
 225 332 241 325 259 316 c 0
 277 307 297 299 318 293 c 0
 339 287 362 284 389 284 c 0x80
EndSplineSet
EndChar
StartChar: exclamdown
Encoding: 161 161 350
Width: 301
Flags: HW
HStem: 366 144<79 223>
VStem: 79 144<-205 -57.3636 366 510> 100 101<88.0526 259>
LayerCount: 3
Fore
SplineSet
81 -205 m 1xa0
 100 259 l 1
 201 259 l 1
 220 -205 l 1
 81 -205 l 1xa0
223 510 m 1xc0
 223 366 l 1
 79 366 l 1
 79 510 l 1
 223 510 l 1xc0
EndSplineSet
Validated: 1
Substitution2: "'ss01' Style Set 1 in Latin lookup 22 subtable" exclamdown.ss01
Substitution2: "'case' Case-Sensitive Forms in Latin lookup 20 subtable" exclamdown.case
AlternateSubs2: "'aalt' Access All Alternates in Latin lookup 1 subtable" exclamdown.case exclamdown.ss01
EndChar
StartChar: cent
Encoding: 162 162 429
Width: 551
GlyphClass: 2
Flags: HW
HStem: -10 31<237 330> 494 39<237 330>
VStem: 27 133<159 365> 237 104<-112 20 494 631>
AnchorPoint: "Anchor-2" 282 0 basechar 0
AnchorPoint: "Anchor-0" 291 522 basechar 0
LayerCount: 3
Fore
SplineSet
237 494 m 1
 237 631 l 1
 341 631 l 1
 341 494 l 1
 237 494 l 1
341 20 m 1
 341 -112 l 1
 237 -112 l 1
 237 20 l 1
 341 20 l 1
288 -10 m 0
 237 -10 191 2 152 25 c 0
 113 48 82 80 60 121 c 0
 38 162 27 209 27 262 c 0
 27 315 38 361 60 402 c 0
 82 443 113 475 152 498 c 0
 191 521 237 532 288 532 c 0
 330 532 369 524 403 508 c 0
 437 492 464 470 486 441 c 0
 508 412 522 378 528 338 c 1
 405 338 l 1
 398 367 384 390 364 406 c 0
 344 422 319 429 290 429 c 0
 263 429 240 422 221 409 c 0
 202 396 187 377 176 352 c 0
 165 327 160 297 160 262 c 256
 160 227 165 197 176 172 c 0
 187 147 202 128 221 114 c 0
 240 100 263 93 290 93 c 0
 319 93 343 101 364 117 c 0
 385 133 399 155 405 184 c 1
 528 184 l 1
 522 144 508 110 486 81 c 0
 464 52 436 30 402 14 c 0
 368 -2 330 -10 288 -10 c 0
EndSplineSet
Substitution2: "'ss12' Style Set 12 in Latin lookup 33 subtable" cent.ss12
Substitution2: "'aalt' Access All Alternates in Latin lookup 0 subtable" cent.ss12
EndChar
StartChar: sterling
Encoding: 163 163 432
Width: 596
Flags: HW
HStem: 0 109<149 532> 289 106<19 87 113 237.5 248 457> 515 21G<430.667 556> 628 102<218.929 383.723>
VStem: 49 130<438.162 588.978> 124 124<192.105 300.667> 433 123<515 578.625>
LayerCount: 3
Fore
SplineSet
47 0 m 1xf6
 47 104 l 1
 76.3330078125 142.666992188 96.5 176 107.5 204 c 0
 118.5 232 124 257.333007812 124 280 c 0xf6
 124 302 120.333007812 322 113 340 c 0
 105.666992188 358 97 376 87 394 c 0
 77 412 68.1669921875 431.166992188 60.5 451.5 c 0
 52.8330078125 471.833007812 49 495.333007812 49 522 c 0
 49 563.333007812 58.8330078125 599.5 78.5 630.5 c 0
 98.1669921875 661.5 126.333007812 685.833007812 163 703.5 c 0
 199.666992188 721.166992188 243.333007812 730 294 730 c 0
 346 730 390.833007812 721 428.5 703 c 0
 466.166992188 685 496 659.833007812 518 627.5 c 0
 540 595.166992188 552.666992188 557.666992188 556 515 c 1
 433 515 l 1
 428.333007812 552.333007812 415 580.5 393 599.5 c 0
 371 618.5 340.333007812 628 301 628 c 0
 260.333007812 628 229.833007812 618.333007812 209.5 599 c 0
 189.166992188 579.666992188 179 553.666992188 179 521 c 0xfa
 179 501.666992188 182.5 483 189.5 465 c 0
 196.5 447 204.5 429 213.5 411 c 0
 222.5 393 230.5 374 237.5 354 c 0
 244.5 334 248 312.333007812 248 289 c 0
 248 261 241 229.333007812 227 194 c 0
 213 158.666992188 187 117.666992188 149 71 c 1
 137 109 l 1
 532 109 l 1
 532 0 l 1
 47 0 l 1xf6
19 289 m 1
 19 395 l 1
 457 395 l 1
 457 289 l 1
 19 289 l 1
EndSplineSet
Validated: 5
EndChar
StartChar: yen
Encoding: 165 165 433
Width: 649
Flags: HW
HStem: 0 22G<259 391> 252 90<50 287 377 600> 397 90<50 238 436 600> 717 20G<20 188 474 629>
VStem: 259 132<0 310>
LayerCount: 3
Fore
SplineSet
259 0 m 1
 259 310 l 1
 20 737 l 1
 178 737 l 1
 377 339 l 1
 287 339 l 1
 484 737 l 1
 629 737 l 1
 391 310 l 1
 391 0 l 1
 259 0 l 1
50 252 m 1
 50 342 l 1
 600 342 l 1
 600 252 l 1
 50 252 l 1
283 397 m 1
 50 397 l 1
 50 487 l 1
 238 487 l 1
 283 397 l 1
436 487 m 1
 600 487 l 1
 600 397 l 1
 388 397 l 1
 436 487 l 1
EndSplineSet
Validated: 5
EndChar
StartChar: section
Encoding: 167 167 422
Width: 518
Flags: HW
HStem: -57 93<182 325> 186 82<277 310> 422 82<209 243> 654 93<196 338>
VStem: 31 116<312 404> 62 116<557 639> 342 116<51 133> 373 116<286 379>
LayerCount: 3
Fore
SplineSet
276 186 m 1xf5
 277 268 l 1
 310 268 335 274 350 285 c 0
 365 296 373 313 373 333 c 0
 373 352 367 367 355 378 c 0
 343 389 325 397 300 404 c 2
 217 425 l 2
 165 438 126 457 100 484 c 0
 74 511 62 545 62 587 c 0
 62 637 80 676 116 705 c 0
 152 734 202 748 265 748 c 256
 328 748 380 734 418 706 c 0
 456 678 477 639 481 589 c 1
 365 589 l 1
 362 611 351 627 334 638 c 0
 317 649 293 654 263 654 c 0
 235 654 214 649 199 639 c 0
 184 629 177 616 177 598 c 0
 177 582 183 569 195 559 c 0
 207 549 225 541 252 534 c 2
 340 511 l 2
 388 499 426 479 451 450 c 0
 476 421 489 386 489 344 c 0
 489 294 470 256 433 228 c 0
 396 200 344 186 276 186 c 1xf5
254 -57 m 256
 191 -57 140 -43 102 -15 c 0
 64 13 43 51 39 101 c 1
 155 101 l 1
 158 79 169 63 186 52 c 0
 203 41 227 36 256 36 c 0
 285 36 307 41 321 51 c 0
 335 61 342 74 342 92 c 0
 342 108 337 121 326 131 c 0
 315 141 295 150 268 157 c 2
 180 179 l 2
 131 192 94 213 69 242 c 0
 44 271 31 305 31 346 c 0
 31 396 50 434 87 462 c 0
 124 490 176 504 244 504 c 1
 243 422 l 1
 210 422 185 417 170 406 c 0
 155 395 147 378 147 357 c 0
 147 339 152 324 164 313 c 0
 176 302 195 294 220 287 c 2
 302 265 l 2
 355 253 393 233 419 206 c 0
 445 179 458 145 458 103 c 0xfa
 458 53 440 15 404 -14 c 0
 368 -43 317 -57 254 -57 c 256
EndSplineSet
EndChar
StartChar: copyright
Encoding: 169 169 423
Width: 852
Flags: HW
HStem: -15 57<309 545> 143 68<359 503> 526 68<357 505> 695 57<309 545>
VStem: 42 59<250 487> 216 81<277 462> 550 80<258 310 427 481> 751 59<250 487>
LayerCount: 3
Fore
SplineSet
426 -15 m 256
 373 -15 322 -6 276 14 c 0
 230 34 189 62 154 97 c 0
 119 132 92 173 72 219 c 0
 52 265 42 316 42 369 c 256
 42 422 52 472 72 518 c 0
 92 564 119 606 154 641 c 0
 189 676 230 703 276 723 c 0
 322 743 373 753 426 753 c 256
 479 753 529 743 575 723 c 0
 621 703 663 676 698 641 c 0
 733 606 760 564 780 518 c 0
 800 472 810 422 810 369 c 256
 810 316 800 265 780 219 c 0
 760 173 733 132 698 97 c 0
 663 62 621 34 575 14 c 0
 529 -6 479 -15 426 -15 c 256
426 42 m 0
 471 42 513 51 552 68 c 0
 591 85 626 108 656 138 c 0
 686 168 709 203 726 243 c 0
 743 283 751 325 751 369 c 256
 751 413 743 455 726 495 c 0
 709 535 686 569 656 599 c 0
 626 629 591 653 552 670 c 0
 513 687 471 695 426 695 c 0
 382 695 340 687 301 670 c 0
 262 653 227 629 197 599 c 0
 167 569 144 535 127 495 c 0
 110 455 101 413 101 369 c 256
 101 325 110 283 127 243 c 0
 144 203 167 168 197 138 c 0
 227 108 262 85 301 68 c 0
 340 51 382 42 426 42 c 0
433 143 m 0
 391 143 354 154 321 173 c 0
 288 192 262 219 244 253 c 0
 226 287 216 326 216 370 c 256
 216 414 226 452 244 485 c 0
 262 518 288 546 321 565 c 0
 354 584 390 594 432 594 c 0
 485 594 529 579 565 548 c 0
 601 517 622 477 629 427 c 1
 550 427 l 1
 545 458 532 482 511 500 c 0
 490 518 463 526 432 526 c 0
 392 526 359 512 334 483 c 0
 309 454 297 417 297 371 c 0
 297 323 310 284 335 255 c 0
 360 226 393 211 433 211 c 0
 463 211 489 220 510 238 c 0
 531 256 545 280 550 310 c 1
 630 310 l 1
 622 259 601 219 565 189 c 0
 529 159 485 143 433 143 c 0
EndSplineSet
Validated: 1
EndChar
StartChar: ordfeminine
Encoding: 170 170 317
Width: 377
Flags: HW
HStem: 412 70<138.745 204.451> 660 70<141.294 221.049>
VStem: 45 88<487.114 535.384> 229 88<418.469 480 531 557 616 649.17>
LayerCount: 3
Fore
SplineSet
237 418 m 1
 235 426 233.333007812 435 232 445 c 0
 230.666992188 455 230 466.666992188 230 480 c 1
 229 480 l 1
 229 621 l 2
 229 633 225.333007812 642.5 218 649.5 c 0
 210.666992188 656.5 199.666992188 660 185 660 c 0
 172.333007812 660 162.166992188 657.5 154.5 652.5 c 0
 146.833007812 647.5 141.666992188 641.333007812 139 634 c 1
 53 634 l 1
 56.3330078125 662 69.6669921875 685 93 703 c 0
 116.333007812 721 148 730 188 730 c 0
 230 730 262 720.333007812 284 701 c 0
 306 681.666992188 317 654 317 618 c 2
 317 480 l 2
 317 468 317.833007812 457.166992188 319.5 447.5 c 0
 321.166992188 437.833007812 323.333007812 428 326 418 c 1
 237 418 l 1
136 412 m 0
 108 412 85.8330078125 419.666992188 69.5 435 c 0
 53.1669921875 450.333007812 45 470.666992188 45 496 c 0
 45 524 54 547 72 565 c 0
 90 583 117 595 153 601 c 2
 240 616 l 1
 240 557 l 1
 169 543 l 2
 157 541 148 537.5 142 532.5 c 0
 136 527.5 133 520.333007812 133 511 c 256
 133 501.666992188 136.166992188 494.5 142.5 489.5 c 0
 148.833007812 484.5 157.333007812 482 168 482 c 0
 184.666992188 482 199 487 211 497 c 0
 223 507 229 518.333007812 229 531 c 1
 236 480 l 1
 228 456.666992188 215 439.5 197 428.5 c 0
 179 417.5 158.666992188 412 136 412 c 0
EndSplineSet
Validated: 5
EndChar
StartChar: registered
Encoding: 174 174 424
Width: 822
Flags: HW
HStem: -15 57<294 530> 335 63<288 473> 353 16<475 510> 522 67<330 491> 695 57<294 530>
VStem: 27 59<250 487> 251 79<148 335 398 522> 288 42<335 398> 504 80<149 314> 511 80<148 200 414 507> 736 59<250 487>
LayerCount: 3
Fore
SplineSet
411 -15 m 256x9c20
 358 -15 307 -6 261 14 c 0
 215 34 174 62 139 97 c 0
 104 132 77 173 57 219 c 0
 37 265 27 316 27 369 c 256
 27 422 37 472 57 518 c 0
 77 564 104 606 139 641 c 0
 174 676 215 703 261 723 c 0
 307 743 358 753 411 753 c 256
 464 753 514 743 560 723 c 0
 606 703 648 676 683 641 c 0
 718 606 745 564 765 518 c 0
 785 472 795 422 795 369 c 256
 795 316 785 265 765 219 c 0
 745 173 718 132 683 97 c 0
 648 62 606 34 560 14 c 0
 514 -6 464 -15 411 -15 c 256x9c20
411 42 m 0
 456 42 498 51 537 68 c 0
 576 85 611 108 641 138 c 0
 671 168 694 203 711 243 c 0
 728 283 736 325 736 369 c 256
 736 413 728 455 711 495 c 0
 694 535 671 569 641 599 c 0
 611 629 576 653 537 670 c 0
 498 687 456 695 411 695 c 0
 367 695 325 687 286 670 c 0
 247 653 212 629 182 599 c 0
 152 569 129 535 112 495 c 0
 95 455 86 413 86 369 c 256
 86 325 95 283 112 243 c 0
 129 203 152 168 182 138 c 0
 212 108 247 85 286 68 c 0
 325 51 367 42 411 42 c 0
251 148 m 1xde60
 251 589 l 1
 441 589 l 2
 488 589 524 579 551 557 c 0
 578 535 591 506 591 468 c 0
 591 408 552 369 473 353 c 1
 475 370 l 1xbe60
 509 371 536 363 555 346 c 0
 574 329 584 304 584 273 c 2
 584 201 l 2
 584 194 584 187 585 178 c 0
 586 169 587 159 589 148 c 1
 508 148 l 1
 507 154 506 161 505 170 c 0
 504 179 504 189 504 201 c 2
 504 253 l 2
 504 280 498 300 485 314 c 0
 472 328 452 335 425 335 c 2
 288 335 l 1
 288 398 l 1xdda0
 437 398 l 2
 461 398 479 404 492 415 c 0
 505 426 511 441 511 461 c 0
 511 481 505 497 492 507 c 0
 479 517 461 522 437 522 c 2
 330 522 l 1
 330 148 l 1
 251 148 l 1xde60
EndSplineSet
EndChar
StartChar: degree
Encoding: 176 176 426
Width: 383
Flags: HW
HStem: 449 66<139.033 244.134> 669 66<138.146 244.473>
VStem: 48 68<538.298 646.285> 267 67<538.298 646.285>
LayerCount: 3
Fore
SplineSet
192 449 m 0
 165.333007812 449 141 455.5 119 468.5 c 0
 97 481.5 79.6669921875 499 67 521 c 0
 54.3330078125 543 48 567 48 593 c 256
 48 619 54.3330078125 642.833007812 67 664.5 c 0
 79.6669921875 686.166992188 97 703.333007812 119 716 c 0
 141 728.666992188 165.333007812 735 192 735 c 0
 219.333007812 735 243.666992188 728.666992188 265 716 c 0
 286.333007812 703.333007812 303.166992188 686.166992188 315.5 664.5 c 0
 327.833007812 642.833007812 334 619 334 593 c 256
 334 567 327.833007812 543 315.5 521 c 0
 303.166992188 499 286.333007812 481.5 265 468.5 c 0
 243.666992188 455.5 219.333007812 449 192 449 c 0
193 515 m 0
 213.666992188 515 231.166992188 522.666992188 245.5 538 c 0
 259.833007812 553.333007812 267 571.666992188 267 593 c 0
 267 613.666992188 259.833007812 631.5 245.5 646.5 c 0
 231.166992188 661.5 213.666992188 669 193 669 c 0
 170.333007812 669 151.833007812 661.5 137.5 646.5 c 0
 123.166992188 631.5 116 613.666992188 116 593 c 0
 116 571.666992188 123.166992188 553.333007812 137.5 538 c 0
 151.833007812 522.666992188 170.333007812 515 193 515 c 0
EndSplineSet
Validated: 1
EndChar
StartChar: paragraph
Encoding: 182 182 421
Width: 663
Flags: HW
HStem: 641 96<405 482>
VStem: 27 378<438 630> 284 121<-133 334> 482 121<-133 641>
LayerCount: 3
Fore
SplineSet
284 -133 m 1xb0
 284 334 l 1xb0
 234 334 l 2
 195 334 159 342 128 359 c 0
 97 376 72 399 54 429 c 0
 36 459 27 493 27 532 c 0xd0
 27 572 36 608 54 639 c 0
 72 670 97 694 129 711 c 0
 161 728 197 737 237 737 c 2
 603 737 l 1
 603 -133 l 1
 482 -133 l 1
 482 641 l 1
 405 641 l 1
 405 -133 l 1
 284 -133 l 1xb0
EndSplineSet
EndChar
StartChar: ordmasculine
Encoding: 186 186 318
Width: 411
Flags: HW
HStem: 422 78<154 257> 670 78<154 259>
VStem: 36 95<523 647> 280 95<523 648>
LayerCount: 3
Fore
SplineSet
206 422 m 0
 173 422 143 429 117 443 c 0
 91 457 71 476 57 501 c 0
 43 526 36 554 36 586 c 0
 36 634 52 673 83 703 c 0
 114 733 155 748 206 748 c 256
 257 748 298 733 329 703 c 0
 360 673 375 634 375 586 c 256
 375 538 359 497 328 467 c 0
 297 437 257 422 206 422 c 0
206 500 m 0
 228 500 245 508 259 524 c 0
 273 540 280 561 280 587 c 256
 280 613 273 633 259 648 c 0
 245 663 228 670 206 670 c 0
 185 670 167 662 153 647 c 0
 139 632 131 612 131 587 c 0
 131 560 139 539 153 523 c 0
 167 507 185 500 206 500 c 0
EndSplineSet
EndChar
StartChar: guillemotright
Encoding: 187 187 407
Width: 562
Flags: HW
LayerCount: 3
Fore
SplineSet
376 444 m 1
 509 257 l 1
 376 70 l 1
 253 70 l 1
 382 257 l 1
 253 444 l 1
 376 444 l 1
186 444 m 1
 319 257 l 1
 186 70 l 1
 65 70 l 1
 193 257 l 1
 65 444 l 1
 186 444 l 1
EndSplineSet
EndChar
StartChar: questiondown
Encoding: 191 191 352
Width: 576
Flags: HW
HStem: -169 105<189.198 390.265> 437 144<205 349>
VStem: 30 129<-35.417 82.2931> 205 144<437 581> 217 121<255.684 330>
LayerCount: 3
Fore
SplineSet
338 330 m 5xe8
 338 296 333.666992188 267.5 325 244.5 c 4
 316.333007812 221.5 305.166015625 202 291.5 186 c 4
 277.833007812 170 263.5 155.833007812 248.5 143.5 c 4
 233.630859375 131.274414062 219.297851562 119.44140625 205.5 108 c 4
 191.833007812 96.6669921875 180.666015625 84.1669921875 172 70.5 c 4
 163.333007812 56.8330078125 159 40.666015625 159 22 c 4
 159 -6 168.833007812 -27.3330078125 188.5 -42 c 4
 208.166992188 -56.6669921875 235.333984375 -64 270 -64 c 4
 324 -64.6669921875 370.333007812 -54.333984375 409 -33 c 5
 411 -144 l 5
 372.333007812 -161.333007812 324.666015625 -169.666015625 268 -169 c 4
 220 -169 178.333007812 -161.166992188 143 -145.5 c 4
 107.666992188 -129.833007812 80 -107.666015625 60 -79 c 4
 40 -50.3330078125 30 -17 30 21 c 4
 30 49.6669921875 34.5 74 43.5 94 c 4
 52.5 114 64 131.333007812 78 146 c 4
 92 160.666992188 107.166992188 174 123.5 186 c 4
 139.833007812 198 155 210.666992188 169 224 c 4
 183 237.333007812 194.5 252.333007812 203.5 269 c 4
 212.5 285.666992188 217 306 217 330 c 5
 338 330 l 5xe8
349 581 m 5xf0
 349 437 l 5
 205 437 l 5
 205 581 l 5
 349 581 l 5xf0
EndSplineSet
Validated: 33
Substitution2: "'ss01' Style Set 1 in Latin lookup 22 subtable" questiondown.ss01
Substitution2: "'case' Case-Sensitive Forms in Latin lookup 20 subtable" questiondown.case
AlternateSubs2: "'aalt' Access All Alternates in Latin lookup 1 subtable" questiondown.case questiondown.ss01
EndChar
StartChar: AE
Encoding: 198 198 12
Width: 967
Flags: HW
HStem: 0 104<545 917> 328 103<234 882> 633 104<332 906>
VStem: 481 132<104 737> 545 69<0 104>
LayerCount: 3
Fore
SplineSet
28 0 m 1xe0
 289 737 l 1
 404 737 l 1
 158 0 l 1
 28 0 l 1xe0
481 0 m 1xf0
 481 737 l 1
 613 737 l 1xf0
 613 0 l 1xe8
 481 0 l 1xf0
545 0 m 1xe8
 545 104 l 1
 917 104 l 1
 917 0 l 1
 545 0 l 1xe8
234 328 m 1
 234 431 l 1
 882 431 l 1
 882 328 l 1
 234 328 l 1
332 633 m 1
 332 737 l 1
 906 737 l 1
 906 633 l 1
 332 633 l 1
EndSplineSet
EndChar
StartChar: Eth
Encoding: 208 208 20
Width: 755
GlyphClass: 2
Flags: HW
HStem: 0 103<157 446.852> 310 102<12 386> 617 103<160 449.862>
VStem: 157 51<0 103 617 720> 585 131<244.338 481.715>
AnchorPoint: "Anchor-2" 387 0 basechar 0
AnchorPoint: "Anchor-0" 387 720 basechar 0
LayerCount: 3
Fore
SplineSet
12 310 m 1
 12 412 l 1
 386 412 l 1
 386 310 l 1
 12 310 l 1
157 0 m 1
 157 103 l 1
 336 103 l 2
 388.666992188 103 433.666992188 114 471 136 c 0
 508.333007812 158 536.666992188 188.5 556 227.5 c 0
 575.333007812 266.5 585 312 585 364 c 0
 585 415.333007812 575.333007812 459.833007812 556 497.5 c 0
 536.666992188 535.166992188 508.5 564.5 471.5 585.5 c 0
 434.5 606.5 389.333007812 617 336 617 c 2
 160 617 l 1
 160 720 l 1
 336 720 l 2
 412.666992188 720 479.5 705.5 536.5 676.5 c 0
 593.5 647.5 637.666992188 606.166992188 669 552.5 c 0
 700.333007812 498.833007812 716 435.333007812 716 362 c 256
 716 288.666992188 700.166992188 224.833007812 668.5 170.5 c 0
 636.833007812 116.166992188 592.666992188 74.1669921875 536 44.5 c 0
 479.333007812 14.8330078125 413 0 337 0 c 2
 157 0 l 1
79 0 m 1
 79 720 l 1
 208 720 l 1
 208 0 l 1
 79 0 l 1
EndSplineSet
Validated: 5
EndChar
StartChar: multiply
Encoding: 215 215 438
Width: 567
Flags: HW
LayerCount: 3
Fore
SplineSet
437 158 m 1
 61 535 l 1
 131 604 l 1
 507 227 l 1
 437 158 l 1
131 158 m 1
 61 227 l 1
 437 604 l 1
 507 535 l 1
 131 158 l 1
EndSplineSet
Substitution2: "'tnum' Tabular Numbers in Latin lookup 19 subtable" multiply.tf
Substitution2: "'aalt' Access All Alternates in Latin lookup 0 subtable" multiply.tf
EndChar
StartChar: Oslash
Encoding: 216 216 70
Width: 782
GlyphClass: 2
Flags: HW
HStem: -10 105<296.159 483.442> 625 105<293.048 487.327>
VStem: 41 131<236.838 489.602> 609 131<238.296 488.904>
AnchorPoint: "Anchor-3" 537 20 basechar 0
AnchorPoint: "Anchor-2" 391 0 basechar 0
AnchorPoint: "Anchor-1" 757 720 basechar 0
AnchorPoint: "Anchor-0" 391 720 basechar 0
LayerCount: 3
Fore
SplineSet
120 -10 m 1
 51 51 l 1
 654 730 l 1
 723 669 l 1
 120 -10 l 1
391 -10 m 0
 339.666992188 -10 292.833007812 -1 250.5 17 c 0
 208.166992188 35 171.333007812 60.5 140 93.5 c 0
 108.666992188 126.5 84.3330078125 165.833007812 67 211.5 c 0
 49.6669921875 257.166992188 41 307.666992188 41 363 c 0
 41 436.333007812 55.8330078125 500.5 85.5 555.5 c 0
 115.166992188 610.5 156.333007812 653.333007812 209 684 c 0
 261.666992188 714.666992188 322 730 390 730 c 0
 458.666992188 730 519.333007812 714.666992188 572 684 c 0
 624.666992188 653.333007812 665.833007812 610.333007812 695.5 555 c 0
 725.166992188 499.666992188 740 435.333007812 740 362 c 0
 740 307.333007812 731.333007812 257.166992188 714 211.5 c 0
 696.666992188 165.833007812 672.5 126.5 641.5 93.5 c 0
 610.5 60.5 573.666992188 35 531 17 c 0
 488.333007812 -1 441.666992188 -10 391 -10 c 0
390 95 m 256
 433.333007812 95 471.333007812 106.333007812 504 129 c 0
 536.666992188 151.666992188 562.333007812 183.166992188 581 223.5 c 0
 599.666992188 263.833007812 609 310.666992188 609 364 c 0
 609 416.666992188 599.833007812 462.666992188 581.5 502 c 0
 563.166992188 541.333007812 537.666992188 571.666992188 505 593 c 0
 472.333007812 614.333007812 434 625 390 625 c 256
 346 625 307.666992188 614.333007812 275 593 c 0
 242.333007812 571.666992188 217 541.5 199 502.5 c 0
 181 463.5 172 417.333007812 172 364 c 0
 172 310 181.166992188 262.833007812 199.5 222.5 c 0
 217.833007812 182.166992188 243.333007812 150.833007812 276 128.5 c 0
 308.666992188 106.166992188 346.666992188 95 390 95 c 256
EndSplineSet
Validated: 5
EndChar
StartChar: Thorn
Encoding: 222 222 74
Width: 657
Flags: HW
HStem: 0 21G<64 193> 154 102<164 447.69> 484 102<164 447.69> 700 20G<64 193>
VStem: 64 129<0 154 256 484 586 720> 164 29<154 256 484 586> 495 129<300.737 439.591>
LayerCount: 3
Fore
SplineSet
164 154 m 1xf6
 164 256 l 1
 366 256 l 2
 406.666992188 256 438.333007812 266.333007812 461 287 c 0
 483.666992188 307.666992188 495 335.333007812 495 370 c 256
 495 404.666992188 483.666992188 432.333007812 461 453 c 0
 438.333007812 473.666992188 406.666992188 484 366 484 c 2
 164 484 l 1
 164 586 l 1
 374 586 l 2
 425.333007812 586 469.5 577 506.5 559 c 0
 543.5 541 572.333007812 515.833007812 593 483.5 c 0
 613.666992188 451.166992188 624 413.333007812 624 370 c 0
 624 327.333007812 613.666992188 289.666992188 593 257 c 0
 572.333007812 224.333007812 543.5 199 506.5 181 c 0
 469.5 163 425.333007812 154 374 154 c 2
 164 154 l 1xf6
64 0 m 1xfa
 64 720 l 1
 193 720 l 1
 193 0 l 1
 64 0 l 1xfa
EndSplineSet
Validated: 5
EndChar
StartChar: germandbls
Encoding: 223 223 236
Width: 631
Flags: HW
HStem: -10 103<268 422> 0 22G<66 195> 335 101<278 376> 379 22<379 412> 646 101<242 390>
VStem: 66 129<0 598> 428 133<473 608> 466 134<136 285>
LayerCount: 3
Fore
SplineSet
349 -10 m 0x9d
 331 -10 316 -9 302 -7 c 0
 288 -5 276 -1 267 3 c 1
 267 102 l 1
 276 99 286 98 297 96 c 0
 308 94 319 93 331 93 c 0
 377 93 411 104 433 124 c 0
 455 144 466 174 466 212 c 0x9d
 466 249 454 278 430 301 c 0
 406 324 372 335 328 335 c 2
 278 335 l 1
 278 436 l 1
 320 436 l 2
 340 436 359 441 375 449 c 0
 391 457 404 469 414 484 c 0
 424 499 428 518 428 538 c 0
 428 571 418 598 398 617 c 0
 378 636 351 646 316 646 c 0
 277 646 247 634 226 610 c 0
 205 586 195 551 195 503 c 2
 195 0 l 1
 66 0 l 1
 66 500 l 2
 66 575 87 635 130 680 c 0
 173 725 235 748 318 748 c 0
 368 748 411 739 447 722 c 0
 483 705 511 683 531 653 c 0
 551 623 561 589 561 550 c 0x6e
 561 515 553 484 537 458 c 0
 521 432 499 413 471 399 c 0
 443 385 412 379 377 379 c 1
 379 400 l 1
 426 400 466 391 499 374 c 0
 532 357 557 334 574 304 c 0
 591 274 600 240 600 202 c 0
 600 159 590 122 569 90 c 0
 548 58 519 33 481 16 c 0
 443 -1 400 -10 349 -10 c 0x9d
EndSplineSet
EndChar
StartChar: ae
Encoding: 230 230 161
Width: 880
Flags: HW
HStem: -10 97<185 321 543 690> 223 89<438 734> 436 96<204 344 545 688>
VStem: 41 127<103 195> 367 120<142 143 181 223 243 325 344 381> 438 48<223 312>
LayerCount: 3
Fore
SplineSet
367 142 m 1xf8
 367 354 l 2
 367 381 359 401 344 415 c 0
 329 429 307 436 278 436 c 0
 251 436 229 431 211 419 c 0
 193 407 181 391 178 370 c 1
 55 370 l 1
 60 418 83 457 121 487 c 0
 159 517 212 532 278 532 c 0
 346 532 398 516 433 484 c 0
 468 452 487 405 487 344 c 2
 487 142 l 1
 367 142 l 1xf8
214 -10 m 0
 162 -10 121 3 89 29 c 0
 57 55 41 91 41 136 c 0
 41 178 56 213 86 241 c 0
 116 269 164 289 231 300 c 2
 379 325 l 1
 379 243 l 1
 260 222 l 2
 227 217 204 208 190 195 c 0
 176 182 168 166 168 146 c 0
 168 128 175 114 189 103 c 0
 203 92 222 87 249 87 c 0
 268 87 287 91 305 100 c 0
 323 109 337 120 349 134 c 0
 361 148 367 164 367 181 c 1
 441 143 l 1
 418 86 388 47 350 24 c 0
 312 1 267 -10 214 -10 c 0
617 -10 m 0
 566 -10 521 2 484 25 c 0
 447 48 418 79 398 120 c 0
 378 161 369 208 369 262 c 256
 369 316 379 363 399 404 c 0
 419 445 448 476 485 499 c 0
 522 522 566 532 615 532 c 0
 663 532 705 522 740 500 c 0
 775 478 803 449 823 410 c 0
 843 371 853 326 853 273 c 0
 853 263 853 255 853 247 c 0
 853 239 851 231 850 223 c 1
 438 223 l 1
 438 312 l 1xf4
 759 312 l 1
 734 287 l 1
 734 337 724 374 704 399 c 0
 684 424 656 436 619 436 c 0
 592 436 569 430 549 417 c 0
 529 404 514 385 503 359 c 0
 492 333 487 300 487 260 c 0
 487 203 498 161 521 131 c 0
 544 101 576 86 618 86 c 0
 644 86 665 91 681 102 c 0
 697 113 709 129 718 152 c 1
 840 152 l 1
 824 102 796 62 758 33 c 0
 720 4 673 -10 617 -10 c 0
EndSplineSet
EndChar
StartChar: eth
Encoding: 240 240 169
Width: 608
Flags: HW
HStem: -10 104<225 377> 406 101<227 381> 524 22G<190 235> 658 89<127 265>
VStem: 33 137<153 347> 438 140<174 409>
LayerCount: 3
Fore
SplineSet
297 -10 m 0
 246 -10 201 0 161 20 c 0
 121 40 90 70 67 109 c 0
 44 148 33 195 33 250 c 0
 33 305 45 351 68 389 c 0
 91 427 122 457 160 477 c 0
 198 497 240 507 284 507 c 0
 321 507 353 500 381 487 c 0
 409 474 431 456 448 433 c 0
 465 410 476 382 481 350 c 1
 448 300 l 1
 448 364 l 2
 448 427 435 480 410 524 c 0
 385 568 348 601 297 624 c 0
 246 647 183 658 107 658 c 1
 127 748 l 1
 197 748 260 738 316 720 c 0
 372 702 419 676 458 641 c 0
 497 606 526 562 547 510 c 0
 568 458 579 400 579 332 c 0
 579 223 555 139 507 79 c 0
 459 19 389 -10 297 -10 c 0
299 94 m 0
 324 94 348 100 369 112 c 0
 390 124 406 141 419 165 c 0
 432 189 438 219 438 254 c 256
 438 289 432 318 419 340 c 0
 406 362 390 379 369 390 c 0
 348 401 326 406 301 406 c 0
 264 406 233 393 208 367 c 0
 183 341 170 303 170 250 c 0
 170 214 176 184 188 161 c 0
 200 138 215 122 234 111 c 0
 253 100 275 94 299 94 c 0
203 524 m 1
 161 591 l 1
 452 774 l 1
 494 708 l 1
 203 524 l 1
EndSplineSet
EndChar
StartChar: divide
Encoding: 247 247 439
Width: 543
Flags: HW
HStem: 130 140<223 320> 332 96<47 496> 490 140<223 320>
VStem: 202 139<150 250 511 610>
LayerCount: 3
Fore
SplineSet
47 332 m 1
 47 428 l 1
 496 428 l 1
 496 332 l 1
 47 332 l 1
273 490 m 0
 253 490 235 497 222 510 c 0
 209 523 202 540 202 561 c 0
 202 581 209 598 222 611 c 0
 235 624 253 631 273 631 c 0
 291 631 306 624 320 611 c 0
 334 598 341 581 341 561 c 0
 341 540 334 523 320 510 c 0
 306 497 291 490 273 490 c 0
273 130 m 0
 253 130 235 137 222 150 c 0
 209 163 202 180 202 201 c 0
 202 221 209 237 222 250 c 0
 235 263 253 270 273 270 c 0
 291 270 306 263 320 250 c 0
 334 237 341 221 341 201 c 0
 341 180 334 163 320 150 c 0
 306 137 291 130 273 130 c 0
EndSplineSet
Substitution2: "'tnum' Tabular Numbers in Latin lookup 19 subtable" divide.tf
Substitution2: "'aalt' Access All Alternates in Latin lookup 0 subtable" divide.tf
EndChar
StartChar: oslash
Encoding: 248 248 221
Width: 595
Flags: HW
HStem: -10 97<203.138 370.999> 423 97<221.234 393.026>
VStem: 32 126<154.642 355.432> 437 127<159.763 357.452>
LayerCount: 3
Fore
SplineSet
298 -10 m 0
 244.666992188 -10 198 1.3330078125 158 24 c 0
 118 46.6669921875 87 78.1669921875 65 118.5 c 0
 43 158.833007812 32 205 32 257 c 256
 32 309 43.1669921875 354.666992188 65.5 394 c 0
 87.8330078125 433.333007812 118.833007812 464.166992188 158.5 486.5 c 0
 198.166992188 508.833007812 244.666992188 520 298 520 c 256
 351.333007812 520 397.833007812 508.833007812 437.5 486.5 c 0
 477.166992188 464.166992188 508.166992188 433.333007812 530.5 394 c 0
 552.833007812 354.666992188 564 309 564 257 c 256
 564 205 552.833007812 158.833007812 530.5 118.5 c 0
 508.166992188 78.1669921875 477 46.6669921875 437 24 c 0
 397 1.3330078125 350.666992188 -10 298 -10 c 0
298 87 m 0
 325.333007812 87 349.333007812 93.8330078125 370 107.5 c 0
 390.666992188 121.166992188 407 140.833007812 419 166.5 c 0
 431 192.166992188 437 222.666992188 437 258 c 0
 437 310 424.166992188 350.5 398.5 379.5 c 0
 372.833007812 408.5 339.333007812 423 298 423 c 0
 256 423 222.166992188 408.5 196.5 379.5 c 0
 170.833007812 350.5 158 310 158 258 c 0
 158 222.666992188 164 192.166992188 176 166.5 c 0
 188 140.833007812 204.333007812 121.166992188 225 107.5 c 0
 245.666992188 93.8330078125 270 87 298 87 c 0
94 -13 m 1
 34 45 l 1
 501 523 l 1
 561 465 l 1
 94 -13 l 1
EndSplineSet
Validated: 5
EndChar
StartChar: thorn
Encoding: 254 254 225
Width: 620
Flags: HW
HStem: -10 105<261 400> 427 105<264 400> 717 20G<66 195>
VStem: 66 129<-210 121 153 369 409 737> 458 133<159 364>
LayerCount: 3
Fore
SplineSet
359 -10 m 0
 311 -10 272 2 241 25 c 0
 210 48 191 80 183 121 c 1
 195 123 l 1
 195 -210 l 1
 66 -210 l 1
 66 737 l 1
 195 737 l 1
 195 406 l 1
 181 409 l 1
 190 447 212 477 245 499 c 0
 278 521 319 532 367 532 c 0
 413 532 453 521 486 499 c 0
 519 477 545 446 563 406 c 0
 581 366 591 318 591 263 c 0
 591 208 581 160 562 119 c 0
 543 78 516 47 481 24 c 0
 446 1 406 -10 359 -10 c 0
326 95 m 0
 367 95 399 110 423 139 c 0
 447 168 458 209 458 262 c 256
 458 315 446 357 422 385 c 0
 398 413 366 427 325 427 c 256
 284 427 251 412 227 383 c 0
 203 354 192 314 192 261 c 0
 192 208 203 167 227 138 c 0
 251 109 284 95 326 95 c 0
EndSplineSet
EndChar
StartChar: dcroat
Encoding: 273 273 171
Width: 632
GlyphClass: 2
Flags: HW
HStem: -10 105<228 363> 0 22G<436 561> 427 105<228 367> 598 86<256 628> 717 20G<432 561>
VStem: 36 133<158 363> 435 126<0 114 159 363 401 737>
AnchorPoint: "Anchor-2" 316 0 basechar 0
AnchorPoint: "Anchor-1" 617 737 basechar 0
AnchorPoint: "Anchor-0" 316 756 basechar 0
LayerCount: 3
Fore
SplineSet
256 598 m 1x3e
 256 684 l 1
 628 684 l 1
 628 598 l 1
 256 598 l 1x3e
436 0 m 1x7e
 436 117 l 1
 446 114 l 1
 437 76 416 47 383 24 c 0
 350 1 310 -10 264 -10 c 0xbe
 218 -10 177 1 143 23 c 0
 109 45 83 77 64 117 c 0
 45 157 36 204 36 259 c 0
 36 314 46 362 65 403 c 0
 84 444 110 476 145 499 c 0
 180 522 221 532 268 532 c 0
 316 532 356 521 387 498 c 0
 418 475 437 442 445 401 c 1
 432 399 l 1
 432 737 l 1
 561 737 l 1
 561 0 l 1
 436 0 l 1x7e
302 95 m 0
 343 95 375 110 399 139 c 0
 423 168 435 208 435 261 c 0
 435 314 423 355 399 384 c 0
 375 413 342 427 301 427 c 0
 261 427 229 412 205 383 c 0
 181 354 169 313 169 260 c 256
 169 207 181 166 205 138 c 0
 229 110 262 95 302 95 c 0
EndSplineSet
Validated: 1048581
EndChar
StartChar: Hbar
Encoding: 294 294 38
Width: 747
GlyphClass: 2
Flags: HW
HStem: 0 22G<75 207 541 673> 332 104<138 601> 542 104<8 739> 717 20G<75 207 541 673>
VStem: 75 132<0 332 436 737> 138 69<332 436> 541 132<0 332 436 737> 541 60<332 436>
AnchorPoint: "Anchor-2" 374 0 basechar 0
AnchorPoint: "Anchor-0" 374 737 basechar 0
LayerCount: 3
Fore
SplineSet
8 542 m 1xf0
 8 646 l 1
 739 646 l 1
 739 542 l 1
 8 542 l 1xf0
75 0 m 1xf8
 75 737 l 1
 207 737 l 1
 207 0 l 1
 75 0 l 1xf8
541 0 m 1xf2
 541 737 l 1
 673 737 l 1
 673 0 l 1
 541 0 l 1xf2
138 436 m 1xf5
 601 436 l 1
 601 332 l 1
 138 332 l 1
 138 436 l 1xf5
EndSplineSet
EndChar
StartChar: hbar
Encoding: 295 295 187
Width: 612
GlyphClass: 2
Flags: HW
HStem: 0 22G<67 196 424 553> 427 105<277 399> 598 86<0 372> 717 20G<67 196>
VStem: 67 129<0 287 408 737> 424 129<0 402>
AnchorPoint: "Anchor-2" 300 0 basechar 0
AnchorPoint: "Anchor-0" 300 522 basechar 0
LayerCount: 3
Fore
SplineSet
0 598 m 1
 0 684 l 1
 372 684 l 1
 372 598 l 1
 0 598 l 1
67 0 m 1
 67 737 l 1
 196 737 l 1
 196 0 l 1
 67 0 l 1
424 0 m 1
 424 334 l 2
 424 365 417 389 401 404 c 0
 385 419 362 427 332 427 c 0
 305 427 280 421 260 409 c 0
 240 397 224 381 213 360 c 0
 202 339 196 315 196 287 c 1
 182 408 l 1
 199 446 225 476 258 499 c 0
 291 522 332 532 378 532 c 0
 433 532 476 516 507 485 c 0
 538 454 553 412 553 360 c 2
 553 0 l 1
 424 0 l 1
EndSplineSet
EndChar
StartChar: dotlessi
Encoding: 305 305 189
Width: 260
GlyphClass: 2
Flags: HW
HStem: 0 22G<66 195> 502 20G<66 195>
VStem: 66 129<0 522>
AnchorPoint: "Anchor-3" 195 0 basechar 0
AnchorPoint: "Anchor-2" 130 0 basechar 0
AnchorPoint: "Anchor-0" 130 522 basechar 0
LayerCount: 3
Fore
SplineSet
66 0 m 1
 66 522 l 1
 195 522 l 1
 195 0 l 1
 66 0 l 1
EndSplineSet
EndChar
StartChar: Lslash
Encoding: 321 321 55
Width: 587
GlyphClass: 2
Flags: HW
HStem: 0 102<135 541> 494 20G<300.683 348> 700 20G<73 202>
VStem: 73 129<102 331 432 720> 135 67<0 102> 154 48<339 432>
AnchorPoint: "Anchor-2" 322 0 basechar 0
AnchorPoint: "Anchor-1" 373 720 basechar 0
AnchorPoint: "Anchor-0" 137 720 basechar 0
LayerCount: 3
Fore
SplineSet
155 331 m 1xe4
 5 270 l 1
 5 363 l 1
 154 424 l 1
 155 331 l 1xe4
154 432 m 1
 348 514 l 1
 348 421 l 1
 155 339 l 1
 154 432 l 1
73 0 m 1xf0
 73 720 l 1
 202 720 l 1xf0
 202 0 l 1xe8
 73 0 l 1xf0
135 0 m 1xe8
 135 102 l 1
 541 102 l 1
 541 0 l 1
 135 0 l 1xe8
EndSplineSet
Validated: 5
EndChar
StartChar: lslash
Encoding: 322 322 206
Width: 292
GlyphClass: 2
Flags: HW
HStem: 0 22G<82 210> 717 20G<82 210>
VStem: 82 128<0 343 439 737> 151 59<351 439>
AnchorPoint: "Anchor-2" 147 0 basechar 0
AnchorPoint: "Anchor-1" 267 737 basechar 0
AnchorPoint: "Anchor-0" 147 737 basechar 0
LayerCount: 3
Fore
SplineSet
151 343 m 1xd0
 5 283 l 1
 5 372 l 1
 151 431 l 1
 151 343 l 1xd0
151 439 m 1
 287 497 l 1
 287 409 l 1
 151 351 l 1
 151 439 l 1
82 0 m 1xe0
 82 737 l 1
 210 737 l 1
 210 0 l 1
 82 0 l 1xe0
EndSplineSet
EndChar
StartChar: Eng
Encoding: 330 330 62
Width: 713
Flags: HW
HStem: -215 103<396.408 506.01> 0 41<525 649> 700 20G<64 235.104 524 649>
VStem: 64 125<0 617> 524 125<-96.5271 41 118 720>
LayerCount: 3
Fore
SplineSet
64 0 m 1
 64 720 l 1
 223 720 l 1
 594 107 l 1
 524 118 l 1
 524 720 l 1
 649 720 l 1
 649 0 l 1
 525 0 l 1
 153 617 l 1
 189 625 l 1
 189 0 l 1
 64 0 l 1
474 -215 m 0
 456.666992188 -215 441.5 -214 428.5 -212 c 0
 415.5 -210 404.666992188 -207.666992188 396 -205 c 1
 396 -103 l 1
 403.333007812 -105 412 -107 422 -109 c 0
 432 -111 442.666992188 -112 454 -112 c 0
 478.666992188 -112 496.166992188 -107 506.5 -97 c 0
 516.833007812 -87 522 -71.3330078125 522 -50 c 2
 522 41 l 1
 649 41 l 1
 649 -54 l 2
 649 -104.666992188 635.166992188 -144.166992188 607.5 -172.5 c 0
 579.833007812 -200.833007812 535.333007812 -215 474 -215 c 0
EndSplineSet
Validated: 5
EndChar
StartChar: eng
Encoding: 331 331 213
Width: 611
Flags: HW
HStem: -220 101<325 408> 0 22G<66 195> 427 105<277 398> 502 20G<66 191>
VStem: 66 129<0 287 408 522> 423 129<-105 402>
LayerCount: 3
Fore
SplineSet
384 -220 m 0xec
 372 -220 361 -220 352 -218 c 0
 343 -216 334 -214 325 -212 c 1
 325 -113 l 1
 330 -114 337 -116 343 -117 c 0
 349 -118 357 -119 365 -119 c 0
 385 -119 399 -114 409 -105 c 0
 419 -96 423 -81 423 -62 c 2
 423 334 l 2
 423 365 416 389 400 404 c 0
 384 419 361 427 330 427 c 0
 304 427 280 421 260 409 c 0
 240 397 224 381 212 360 c 0
 200 339 195 315 195 287 c 1
 181 408 l 1
 198 446 224 476 257 499 c 0
 290 522 331 532 377 532 c 0
 432 532 475 516 506 485 c 0
 537 454 552 412 552 360 c 2
 552 -66 l 2
 552 -114 538 -152 511 -179 c 0
 484 -206 441 -220 384 -220 c 0xec
66 0 m 1
 66 522 l 1
 191 522 l 1xdc
 191 401 l 1
 195 401 l 1
 195 0 l 1
 66 0 l 1
EndSplineSet
EndChar
StartChar: OE
Encoding: 338 338 72
Width: 1080
Flags: HW
HStem: -10 108<309 545> 0 104<677 1026> 328 103<677 991> 633 104<677 1016> 640 108<309 545>
VStem: 40 134<239 498> 545 132<104 328 431 617> 545 31<5 5 617 732>
LayerCount: 3
Fore
SplineSet
428 -10 m 0xad
 350 -10 282 5 224 37 c 0
 166 69 121 113 89 170 c 0
 57 227 40 294 40 370 c 256
 40 446 57 511 89 568 c 0
 121 625 166 669 224 700 c 0
 282 731 350 748 428 748 c 0
 458 748 485 746 509 743 c 0
 533 740 556 737 576 732 c 1
 571 617 l 1
 553 625 532 630 508 634 c 0
 484 638 458 640 428 640 c 0
 373 640 326 629 288 607 c 0
 250 585 222 555 203 514 c 0
 184 473 174 425 174 370 c 0
 174 314 184 265 203 224 c 0
 222 183 250 152 288 130 c 0
 326 108 373 97 428 97 c 0
 458 97 484 99 508 103 c 0
 532 107 553 112 571 120 c 1
 576 5 l 1
 556 0 533 -3 509 -6 c 0
 485 -9 458 -10 428 -10 c 0xad
545 0 m 1x75
 545 737 l 1x75
 1016 737 l 1
 1016 633 l 1
 677 633 l 1
 677 431 l 1
 991 431 l 1
 991 328 l 1
 677 328 l 1
 677 104 l 1x76
 1026 104 l 1
 1026 0 l 1
 545 0 l 1x75
EndSplineSet
EndChar
StartChar: oe
Encoding: 339 339 223
Width: 935
Flags: HW
HStem: -10 101<221.139 355.473> -10 94<600.843 740.038> 218 87<496 781> 419 101<219.497 356.208> 426 94<600.28 734.878>
VStem: 32 130<157.615 355.552> 422 121<210.333 300> 496 37<219.094 303.895>
LayerCount: 3
Fore
SplineSet
288 -10 m 0xb5
 238 -10 193.666992188 1.3330078125 155 24 c 0
 116.333007812 46.6669921875 86.1669921875 78.1669921875 64.5 118.5 c 0
 42.8330078125 158.833007812 32 205 32 257 c 256
 32 309 43 354.666992188 65 394 c 0
 87 433.333007812 117.166992188 464.166992188 155.5 486.5 c 0
 193.833007812 508.833007812 238 520 288 520 c 256
 338 520 381.333007812 508.833007812 418 486.5 c 0
 454.666992188 464.166992188 483 433.333007812 503 394 c 0
 523 354.666992188 533 309 533 257 c 256
 533 205 523 158.833007812 503 118.5 c 0
 483 78.1669921875 454.5 46.6669921875 417.5 24 c 0
 380.5 1.3330078125 337.333007812 -10 288 -10 c 0xb5
288 91 m 0
 312.666992188 91 334.333007812 97.6669921875 353 111 c 0
 371.666992188 124.333007812 386.333007812 143.5 397 168.5 c 0
 407.666992188 193.5 413 223.333007812 413 258 c 0
 413 292 407.666992188 321 397 345 c 0
 386.333007812 369 371.666992188 387.333007812 353 400 c 0
 334.333007812 412.666992188 312.666992188 419 288 419 c 256
 263.333007812 419 241.666992188 412.666992188 223 400 c 0
 204.333007812 387.333007812 189.5 369 178.5 345 c 0
 167.5 321 162 292 162 258 c 0
 162 223.333007812 167.5 193.5 178.5 168.5 c 0
 189.5 143.5 204.5 124.333007812 223.5 111 c 0
 242.5 97.6669921875 264 91 288 91 c 0
671 -10 m 0x6e
 621.666992188 -10 578.166992188 1.3330078125 540.5 24 c 0
 502.833007812 46.6669921875 473.666992188 77.8330078125 453 117.5 c 0
 432.333007812 157.166992188 422 203.333007812 422 256 c 256x6e
 422 308.666992188 432.333007812 354.833007812 453 394.5 c 0
 473.666992188 434.166992188 502.666992188 465 540 487 c 0
 577.333007812 509 620.333007812 520 669 520 c 0
 715.666992188 520 756.5 509.5 791.5 488.5 c 0
 826.5 467.5 853.833007812 438.166992188 873.5 400.5 c 0
 893.166992188 362.833007812 903 318.333007812 903 267 c 0
 903 257.666992188 902.666992188 249 902 241 c 0
 901.333007812 233 900.666992188 225.333007812 900 218 c 1
 496 218 l 1
 496 305 l 1x6d
 805 305 l 1
 781 280 l 1
 781 328.666992188 770.833007812 365.166992188 750.5 389.5 c 0
 730.166992188 413.833007812 703.333007812 426 670 426 c 0
 644.666992188 426 622.333007812 419.5 603 406.5 c 0
 583.666992188 393.5 568.833007812 374.166992188 558.5 348.5 c 0
 548.166992188 322.833007812 543 291.333007812 543 254 c 0
 543 217.333007812 548.166992188 186.333007812 558.5 161 c 0
 568.833007812 135.666992188 583.666992188 116.5 603 103.5 c 0
 622.333007812 90.5 645.333007812 84 672 84 c 0
 693.333007812 84 713 89.1669921875 731 99.5 c 0
 749 109.833007812 762 126 770 148 c 1
 890 148 l 1
 874 99.3330078125 847 60.8330078125 809 32.5 c 0
 771 4.1669921875 725 -10 671 -10 c 0x6e
EndSplineSet
Validated: 5
EndChar
StartChar: uni0237
Encoding: 567 567 199
Width: 266
GlyphClass: 2
Flags: HW
HStem: -167 97<-26 55.5588> 490 20G<70 196>
VStem: 70 126<-59.1676 510>
AnchorPoint: "Anchor-2" 133 -165 basechar 0
AnchorPoint: "Anchor-0" 133 510 basechar 0
LayerCount: 3
Fore
SplineSet
32 -167 m 4
 32 -167 32 -167 -26 -167 c 5
 -26 -70 l 5
 -7 -70 -7 -70 13 -70 c 4
 32.3330078125 -70 46.6669921875 -66.5 56 -59.5 c 4
 65.3330078125 -52.5 70 -39.6669921875 70 -21 c 6
 70 510 l 1
 196 510 l 1
 196 -24 l 6
 196 -71.3330078125 182.666992188 -107 156 -131 c 4
 129.333007812 -155 88 -167 32 -167 c 4
EndSplineSet
Validated: 1
EndChar
StartChar: gravecomb
Encoding: 768 768 468
Width: 10
GlyphClass: 4
Flags: HW
HStem: 597 161<230 241>
VStem: 67 278
AnchorPoint: "Anchor-7" 253 758 basemark 0
AnchorPoint: "Anchor-7" 253 522 mark 0
AnchorPoint: "Anchor-4" 253 522 mark 0
AnchorPoint: "Anchor-0" 253 522 mark 0
LayerCount: 3
Fore
SplineSet
230 597 m 1
 67 758 l 1
 241 758 l 1
 344 597 l 1
 230 597 l 1
EndSplineSet
Validated: 1
EndChar
StartChar: acutecomb
Encoding: 769 769 469
Width: 0
GlyphClass: 4
Flags: HW
HStem: 597 161<165 175>
VStem: 62 278
AnchorPoint: "Anchor-7" 153 758 basemark 0
AnchorPoint: "Anchor-7" 153 522 mark 0
AnchorPoint: "Anchor-4" 153 522 mark 0
AnchorPoint: "Anchor-0" 153 522 mark 0
LayerCount: 3
Fore
SplineSet
175 597 m 1
 62 597 l 1
 165 758 l 1
 339 758 l 1
 175 597 l 1
EndSplineSet
EndChar
StartChar: uni0302
Encoding: 770 770 472
Width: 0
GlyphClass: 4
Flags: HW
HStem: 597 161
AnchorPoint: "Anchor-7" 260 758 basemark 0
AnchorPoint: "Anchor-7" 260 522 mark 0
AnchorPoint: "Anchor-4" 260 522 mark 0
AnchorPoint: "Anchor-0" 260 522 mark 0
LayerCount: 3
Fore
SplineSet
62 597 m 1
 194 758 l 1
 328 758 l 1
 460 597 l 1
 351 597 l 1
 206 730 l 1
 316 730 l 1
 170 597 l 1
 62 597 l 1
EndSplineSet
EndChar
StartChar: tildecomb
Encoding: 771 771 476
Width: 0
GlyphClass: 4
Flags: HW
HStem: 606 89<290 384> 665 88<152 246>
VStem: 62 80<613 650> 393 81<710 746>
AnchorPoint: "Anchor-7" 267 753 basemark 0
AnchorPoint: "Anchor-7" 267 522 mark 0
AnchorPoint: "Anchor-4" 267 522 mark 0
AnchorPoint: "Anchor-0" 267 522 mark 0
LayerCount: 3
Fore
SplineSet
344 606 m 0xb0
 325 606 309 609 295 615 c 0
 281 621 268 627 256 635 c 0
 244 643 233 650 222 656 c 0
 211 662 201 665 189 665 c 0
 175 665 163 660 154 651 c 0
 145 642 141 629 141 613 c 1
 62 613 l 1
 62 639 67 663 77 684 c 0
 87 705 102 721 122 734 c 0
 142 747 167 753 194 753 c 0x70
 214 753 230 749 244 744 c 0
 258 739 270 732 281 724 c 0
 292 716 302 710 312 704 c 0
 322 698 334 695 346 695 c 0
 361 695 373 700 381 709 c 0
 389 718 393 730 393 746 c 1
 474 746 l 1
 474 720 469 697 458 676 c 0
 447 655 432 638 413 625 c 0
 394 612 371 606 344 606 c 0xb0
EndSplineSet
EndChar
StartChar: uni0304
Encoding: 772 772 477
Width: 10
GlyphClass: 4
Flags: HW
HStem: 641 92<67 428>
AnchorPoint: "Anchor-7" 248 733 basemark 0
AnchorPoint: "Anchor-7" 248 522 mark 0
AnchorPoint: "Anchor-4" 248 522 mark 0
AnchorPoint: "Anchor-0" 248 522 mark 0
LayerCount: 3
Fore
SplineSet
67 641 m 1
 67 733 l 1
 428 733 l 1
 428 641 l 1
 67 641 l 1
EndSplineSet
EndChar
StartChar: uni0306
Encoding: 774 774 474
Width: 10
GlyphClass: 4
Flags: HW
HStem: 576 91<173.258 295>
VStem: 65 87<687.113 740> 316 87<687.113 740>
AnchorPoint: "Anchor-7" 234 740 basemark 0
AnchorPoint: "Anchor-7" 234 510 mark 0
AnchorPoint: "Anchor-4" 234 510 mark 0
AnchorPoint: "Anchor-0" 234 510 mark 0
LayerCount: 3
Fore
SplineSet
234 576 m 256
 201.333007812 576 172.333007812 582.833007812 147 596.5 c 0
 121.666992188 610.166992188 101.666992188 629.5 87 654.5 c 0
 72.3330078125 679.5 65 708 65 740 c 1
 152 740 l 1
 152 717.333007812 159.333007812 699.5 174 686.5 c 0
 188.666992188 673.5 208.666992188 667 234 667 c 0
 260 667 280.166992188 673.5 294.5 686.5 c 0
 308.833007812 699.5 316 717.333007812 316 740 c 1
 403 740 l 1
 403 708 395.666992188 679.666992188 381 655 c 0
 366.333007812 630.333007812 346.333007812 611 321 597 c 0
 295.666992188 583 266.666992188 576 234 576 c 256
EndSplineSet
Validated: 1
EndChar
StartChar: uni0307
Encoding: 775 775 467
Width: 10
GlyphClass: 4
Flags: HW
HStem: 594 138<65 201>
VStem: 65 136<594 732>
AnchorPoint: "Anchor-7" 133 732 basemark 0
AnchorPoint: "Anchor-7" 133 510 mark 0
AnchorPoint: "Anchor-4" 133 510 mark 0
AnchorPoint: "Anchor-0" 133 510 mark 0
LayerCount: 3
Fore
SplineSet
65 594 m 1
 65 732 l 1
 201 732 l 1
 201 594 l 1
 65 594 l 1
EndSplineSet
Validated: 1
Substitution2: "'ss01' Style Set 1 in Latin lookup 22 subtable" uni0307.ss01
Substitution2: "'aalt' Access All Alternates in Latin lookup 0 subtable" uni0307.ss01
EndChar
StartChar: uni0308
Encoding: 776 776 466
Width: 10
GlyphClass: 4
Flags: HW
HStem: 607 142<67 206 299 438>
VStem: 67 139<607 750> 299 139<607 750>
AnchorPoint: "Anchor-7" 253 750 basemark 0
AnchorPoint: "Anchor-7" 253 522 mark 0
AnchorPoint: "Anchor-4" 253 522 mark 0
AnchorPoint: "Anchor-0" 253 522 mark 0
LayerCount: 3
Fore
SplineSet
299 607 m 1
 299 750 l 1
 438 750 l 1
 438 607 l 1
 299 607 l 1
67 607 m 1
 67 750 l 1
 206 750 l 1
 206 607 l 1
 67 607 l 1
EndSplineSet
Validated: 1
Substitution2: "'ss01' Style Set 1 in Latin lookup 22 subtable" uni0308.ss01
Substitution2: "'aalt' Access All Alternates in Latin lookup 0 subtable" uni0308.ss01
EndChar
StartChar: uni030A
Encoding: 778 778 475
Width: 10
GlyphClass: 4
Flags: HW
HStem: 574 67<144 210> 728 67<143 209>
VStem: 67 69<650 719> 218 69<650 719>
AnchorPoint: "Anchor-7" 177 795 basemark 0
AnchorPoint: "Anchor-7" 177 522 mark 0
AnchorPoint: "Anchor-4" 177 522 mark 0
AnchorPoint: "Anchor-0" 177 522 mark 0
LayerCount: 3
Fore
SplineSet
177 574 m 256
 146 574 119 585 98 607 c 0
 77 629 67 654 67 685 c 0
 67 715 77 740 98 762 c 0
 119 784 146 795 177 795 c 256
 208 795 234 784 255 762 c 0
 276 740 287 715 287 685 c 0
 287 654 276 629 255 607 c 0
 234 585 208 574 177 574 c 256
177 641 m 256
 189 641 199 645 207 654 c 0
 215 663 218 673 218 685 c 256
 218 697 214 706 206 715 c 0
 198 724 189 728 177 728 c 0
 164 728 154 724 146 715 c 0
 138 706 135 697 135 685 c 256
 135 673 139 663 147 654 c 0
 155 645 165 641 177 641 c 256
EndSplineSet
EndChar
StartChar: uni030B
Encoding: 779 779 470
Width: 10
GlyphClass: 4
Flags: HW
HStem: 583 157<121 160 331 370>
AnchorPoint: "Anchor-7" 234 740 basemark 0
AnchorPoint: "Anchor-7" 234 510 mark 0
AnchorPoint: "Anchor-4" 234 510 mark 0
AnchorPoint: "Anchor-0" 234 510 mark 0
LayerCount: 3
Fore
SplineSet
160 583 m 1
 65 583 l 1
 121 740 l 1
 263 740 l 1
 160 583 l 1
370 583 m 1
 275 583 l 1
 331 740 l 1
 473 740 l 1
 370 583 l 1
EndSplineSet
Validated: 1
EndChar
StartChar: uni030C
Encoding: 780 780 473
Width: 0
GlyphClass: 4
Flags: HW
HStem: 597 161
AnchorPoint: "Anchor-7" 260 758 basemark 0
AnchorPoint: "Anchor-7" 260 522 mark 0
AnchorPoint: "Anchor-4" 260 522 mark 0
AnchorPoint: "Anchor-0" 260 522 mark 0
LayerCount: 3
Fore
SplineSet
194 597 m 1
 62 758 l 1
 170 758 l 1
 316 625 l 1
 206 625 l 1
 351 758 l 1
 460 758 l 1
 328 597 l 1
 194 597 l 1
EndSplineSet
EndChar
StartChar: uni0312
Encoding: 786 786 478
Width: 10
GlyphClass: 4
Flags: HW
HStem: 583 126<140 208> 700 9<105 140> 782 58<160.621 208>
VStem: 72 136<583 699.737>
AnchorPoint: "Anchor-7" 140 840 basemark 0
AnchorPoint: "Anchor-7" 140 510 mark 0
AnchorPoint: "Anchor-4" 140 510 mark 0
AnchorPoint: "Anchor-0" 140 510 mark 0
LayerCount: 3
Fore
SplineSet
72 583 m 1xb0
 72 686 l 2
 72 728.666992188 84 764 108 792 c 0
 132 820 165.333007812 836 208 840 c 1
 208 782 l 1
 185.333007812 779.333007812 168.333007812 771.166992188 157 757.5 c 0
 145.666992188 743.833007812 140 724.666992188 140 700 c 1
 95 709 l 1x70
 208 709 l 1
 208 583 l 1
 72 583 l 1xb0
EndSplineSet
Validated: 5
Substitution2: "'ss01' Style Set 1 in Latin lookup 22 subtable" uni0312.ss01
Substitution2: "'aalt' Access All Alternates in Latin lookup 0 subtable" uni0312.ss01
EndChar
StartChar: uni0326
Encoding: 806 806 479
Width: 0
GlyphClass: 4
Flags: HW
HStem: -339 59<69 117> -205 129<69 139> -205 9<139 174>
VStem: 69 139<-195 -76>
AnchorPoint: "Anchor-6" 138 -339 basemark 0
AnchorPoint: "Anchor-6" 138 0 mark 0
AnchorPoint: "Anchor-5" 138 0 mark 0
AnchorPoint: "Anchor-2" 138 0 mark 0
LayerCount: 3
Fore
SplineSet
69 -339 m 1xd0
 69 -280 l 1
 92 -277 109 -268 121 -254 c 0
 133 -240 139 -221 139 -196 c 1
 184 -205 l 1xb0
 69 -205 l 1
 69 -76 l 1
 208 -76 l 1
 208 -180 l 2
 208 -224 196 -261 171 -290 c 0
 146 -319 113 -335 69 -339 c 1xd0
EndSplineSet
Substitution2: "'ss01' Style Set 1 in Latin lookup 22 subtable" uni0326.ss01
Substitution2: "'aalt' Access All Alternates in Latin lookup 0 subtable" uni0326.ss01
EndChar
StartChar: uni0327
Encoding: 807 807 480
Width: 0
GlyphClass: 4
Flags: HW
HStem: -220 65<155 224> -92 104<167 212>
VStem: 231 88<-151 -104>
AnchorPoint: "Anchor-6" 191 -220 basemark 0
AnchorPoint: "Anchor-6" 201 0 mark 0
AnchorPoint: "Anchor-5" 201 0 mark 0
AnchorPoint: "Anchor-2" 201 0 mark 0
LayerCount: 3
Fore
SplineSet
193 -220 m 0
 154 -220 123 -212 99 -195 c 0
 75 -178 63 -154 62 -125 c 1
 146 -125 l 1
 147 -135 151 -143 160 -148 c 0
 169 -153 180 -156 193 -156 c 0
 203 -156 211 -153 219 -149 c 0
 227 -145 231 -138 231 -130 c 0
 231 -119 224 -110 212 -104 c 0
 200 -98 176 -94 141 -92 c 1
 167 12 l 1
 243 12 l 1
 229 -37 l 1
 259 -44 282 -55 297 -71 c 0
 312 -87 319 -106 319 -129 c 0
 319 -156 307 -178 285 -195 c 0
 263 -212 233 -220 193 -220 c 0
EndSplineSet
EndChar
StartChar: uni0328
Encoding: 808 808 481
Width: 0
GlyphClass: 4
Flags: HW
HStem: -221 69<155 228>
VStem: 62 88<-147 -67>
AnchorPoint: "Anchor-3" 240 0 mark 0
LayerCount: 3
Fore
SplineSet
168 -221 m 0
 134 -221 107 -213 89 -197 c 0
 71 -181 62 -159 62 -133 c 0
 62 -103 73 -76 97 -51 c 0
 121 -26 153 -3 191 17 c 1
 240 0 l 1
 208 -25 185 -47 171 -65 c 0
 157 -83 150 -101 150 -118 c 0
 150 -129 152 -137 158 -143 c 0
 164 -149 171 -153 181 -153 c 0
 195 -153 208 -147 219 -137 c 1
 249 -199 l 1
 239 -207 228 -212 215 -216 c 0
 202 -220 186 -221 168 -221 c 0
EndSplineSet
EndChar
StartChar: uni1E9E
Encoding: 7838 7838 85
Width: 716
Flags: HW
HStem: -9 105<284 507> 0 22G<65 197> 643 105<278 482>
VStem: 65 132<0 560> 553 133<138 280>
LayerCount: 3
Fore
SplineSet
415 -9 m 0xb8
 391 -9 368 -8 345 -5 c 0
 322 -2 302 3 283 9 c 1
 283 119 l 1
 301 111 319 106 339 102 c 0
 359 98 381 96 404 96 c 0xb8
 455 96 491 106 516 124 c 0
 541 142 553 171 553 209 c 0
 553 246 540 277 513 301 c 0
 486 325 441 347 378 366 c 2
 339 377 l 1
 546 651 l 1
 534 582 l 1
 516 602 493 618 467 628 c 0
 441 638 410 643 377 643 c 0
 318 643 274 627 243 595 c 0
 212 563 197 516 197 453 c 2
 197 0 l 1
 65 0 l 1x78
 65 442 l 2
 65 542 92 618 147 670 c 0
 202 722 280 749 384 749 c 0
 444 749 498 739 546 721 c 0
 594 703 639 675 679 637 c 1
 485 386 l 1
 436 453 l 1
 522 425 586 390 626 349 c 0
 666 308 686 258 686 199 c 0
 686 156 676 119 654 88 c 0
 632 57 602 33 561 16 c 0
 520 -1 472 -9 415 -9 c 0xb8
EndSplineSet
EndChar
StartChar: endash
Encoding: 8211 8211 382
Width: 597
Flags: HW
HStem: 224 96<70 527>
LayerCount: 3
Fore
SplineSet
70 224 m 1
 70 320 l 1
 527 320 l 1
 527 224 l 1
 70 224 l 1
EndSplineSet
Validated: 1
Substitution2: "'case' Case-Sensitive Forms in Latin lookup 20 subtable" endash.case
Substitution2: "'aalt' Access All Alternates in Latin lookup 0 subtable" endash.case
EndChar
StartChar: emdash
Encoding: 8212 8212 383
Width: 889
Flags: HW
HStem: 224 96<70 818>
LayerCount: 3
Fore
SplineSet
70 224 m 1
 70 320 l 1
 818 320 l 1
 818 224 l 1
 70 224 l 1
EndSplineSet
Validated: 1
Substitution2: "'case' Case-Sensitive Forms in Latin lookup 20 subtable" emdash.case
Substitution2: "'aalt' Access All Alternates in Latin lookup 0 subtable" emdash.case
EndChar
StartChar: quoteleft
Encoding: 8216 8216 404
Width: 281
Flags: HW
HStem: 477 246<171 206>
VStem: 78 182
LayerCount: 3
Fore
SplineSet
206 477 m 1
 78 477 l 5
 171 723 l 5
 260 723 l 1
 206 477 l 1
EndSplineSet
Validated: 1
Substitution2: "'ss01' Style Set 1 in Latin lookup 22 subtable" quoteleft.ss01
Substitution2: "'aalt' Access All Alternates in Latin lookup 0 subtable" quoteleft.ss01
EndChar
StartChar: quoteright
Encoding: 8217 8217 405
Width: 275
Flags: HW
HStem: 488 252<135 172>
VStem: 78 189
LayerCount: 3
Fore
SplineSet
172 488 m 5
 78 488 l 1
 135 740 l 1
 267 740 l 5
 172 488 l 5
EndSplineSet
Substitution2: "'ss01' Style Set 1 in Latin lookup 22 subtable" quoteright.ss01
Substitution2: "'aalt' Access All Alternates in Latin lookup 0 subtable" quoteright.ss01
EndChar
StartChar: bullet
Encoding: 8226 8226 354
Width: 342
Flags: HW
HStem: 263 205<69 274>
VStem: 69 205<263 468>
LayerCount: 3
Fore
SplineSet
69 263 m 1
 69 468 l 1
 274 468 l 1
 274 263 l 1
 69 263 l 1
EndSplineSet
Validated: 1
Substitution2: "'ss01' Style Set 1 in Latin lookup 22 subtable" bullet.ss01
Substitution2: "'case' Case-Sensitive Forms in Latin lookup 20 subtable" bullet.case
AlternateSubs2: "'aalt' Access All Alternates in Latin lookup 1 subtable" bullet.case bullet.ss01
EndChar
StartChar: perthousand
Encoding: 8240 8240 446
Width: 833
Flags: HW
HStem: -10 70<454.469 527.081 631.104 703.249> 0 21G<70 176.278> 288 69<454.936 526.95 631.504 703.959> 363 69<132.553 216.284> 660 70<131.919 216.589> 700 20G<501.667 606>
VStem: 35 74<459.389 633.461> 241 74<460.086 632.225> 361 74<84.4783 263.197> 552 54<110 238> 724 74<85.8182 263.197>
LayerCount: 3
Fore
SplineSet
175 363 m 256x3be0
 150.333007812 363 127.333007812 369.5 106 382.5 c 0
 84.6669921875 395.5 67.5 415.666992188 54.5 443 c 0
 41.5 470.333007812 35 505 35 547 c 0
 35 588.333007812 41.5 622.5 54.5 649.5 c 0
 67.5 676.5 84.5 696.666992188 105.5 710 c 0
 126.5 723.333007812 149.666992188 730 175 730 c 0
 213.666992188 730 246.666992188 715 274 685 c 0
 301.333007812 655 315 609 315 547 c 0
 315 505 308.5 470.333007812 295.5 443 c 0
 282.5 415.666992188 265.333007812 395.5 244 382.5 c 0
 222.666992188 369.5 199.666992188 363 175 363 c 256x3be0
174 432 m 256
 193.333007812 432 209.333007812 441.833007812 222 461.5 c 0
 234.666992188 481.166992188 241 510 241 548 c 0
 241 584 234.833007812 611.666992188 222.5 631 c 0
 210.166992188 650.333007812 194 660 174 660 c 0
 154.666992188 660 139 650.5 127 631.5 c 0
 115 612.5 109 584.666992188 109 548 c 0
 109 510 115 481.166992188 127 461.5 c 0
 139 441.833007812 154.666992188 432 174 432 c 256
70 0 m 1x77e0
 514 720 l 1
 606 720 l 1
 164 0 l 1
 70 0 l 1x77e0
491 -10 m 0xb3e0
 469.666992188 -10 448.833007812 -3.1669921875 428.5 10.5 c 0
 408.166992188 24.1669921875 391.833007812 44.6669921875 379.5 72 c 0
 367.166992188 99.3330078125 361 133.333007812 361 174 c 0
 361 215.333007812 367.166992188 249.333007812 379.5 276 c 0
 391.833007812 302.666992188 408 322.833007812 428 336.5 c 0
 448 350.166992188 469 357 491 357 c 0
 525 357 552.666992188 342.5 574 313.5 c 0
 595.333007812 284.5 606 238 606 174 c 256
 606 110 595 63.3330078125 573 34 c 0
 551 4.6669921875 523.666992188 -10 491 -10 c 0xb3e0
491 60 m 0
 507.666992188 60 521.333007812 69.8330078125 532 89.5 c 0
 542.666992188 109.166992188 548 137.666992188 548 175 c 0
 548 211.666992188 542.666992188 239.666992188 532 259 c 0
 521.333007812 278.333007812 507.666992188 288 491 288 c 256
 474.333007812 288 460.833007812 278.333007812 450.5 259 c 0
 440.166992188 239.666992188 435 211.666992188 435 175 c 0
 435 137.666992188 440 109.166992188 450 89.5 c 0
 460 69.8330078125 473.666992188 60 491 60 c 0
667 60 m 256
 683.666992188 60 697.333007812 69.8330078125 708 89.5 c 0
 718.666992188 109.166992188 724 137.666992188 724 175 c 0
 724 211.666992188 718.833007812 239.666992188 708.5 259 c 0
 698.166992188 278.333007812 684.333007812 288 667 288 c 0
 650.333007812 288 636.833007812 278.333007812 626.5 259 c 0
 616.166992188 239.666992188 611 211.666992188 611 175 c 0
 611 137.666992188 616.166992188 109.166992188 626.5 89.5 c 0
 636.833007812 69.8330078125 650.333007812 60 667 60 c 256
667 -10 m 0
 634.333007812 -10 607 4.6669921875 585 34 c 0
 563 63.3330078125 552 110 552 174 c 256
 552 238 562.833007812 284.5 584.5 313.5 c 0
 606.166992188 342.5 633.666992188 357 667 357 c 0
 689.666992188 357 711 350.166992188 731 336.5 c 0
 751 322.833007812 767.166992188 302.666992188 779.5 276 c 0
 791.833007812 249.333007812 798 215.333007812 798 174 c 0
 798 133.333007812 791.666992188 99.3330078125 779 72 c 0
 766.333007812 44.6669921875 750 24.1669921875 730 10.5 c 0
 710 -3.1669921875 689 -10 667 -10 c 0
EndSplineSet
Validated: 5
Substitution2: "'tnum' Tabular Numbers in Latin lookup 19 subtable" perthousand.tf
Substitution2: "'aalt' Access All Alternates in Latin lookup 0 subtable" perthousand.tf
EndChar
StartChar: guilsinglleft
Encoding: 8249 8249 408
Width: 364
Flags: HW
VStem: 53 249
LayerCount: 3
Fore
SplineSet
182 68 m 1
 53 251 l 1
 182 434 l 1
 302 434 l 1
 176 251 l 1
 302 68 l 1
 182 68 l 1
EndSplineSet
Validated: 1
EndChar
StartChar: guilsinglright
Encoding: 8250 8250 409
Width: 364
Flags: HW
VStem: 63 249
LayerCount: 3
Fore
SplineSet
182 68 m 1
 63 68 l 1
 188 251 l 1
 63 434 l 1
 182 434 l 1
 312 251 l 1
 182 68 l 1
EndSplineSet
Validated: 1
EndChar
StartChar: Euro
Encoding: 8364 8364 431
Width: 707
Flags: HW
HStem: -10 104<317.01 484.487> 246 88<20 454> 388 88<20 478> 626 104<314.09 484.354>
VStem: 80 131<334.837 387.517>
LayerCount: 3
Fore
SplineSet
398 -10 m 256
 351.333007812 -10 308.666992188 -1 270 17 c 0
 231.333007812 35 197.833007812 60.6669921875 169.5 94 c 0
 141.166992188 127.333007812 119.166992188 166.666992188 103.5 212 c 0
 87.8330078125 257.333007812 80 307.333007812 80 362 c 256
 80 416.666992188 87.6669921875 466.333007812 103 511 c 0
 118.333007812 555.666992188 140.166992188 594.5 168.5 627.5 c 0
 196.833007812 660.5 230.333007812 685.833007812 269 703.5 c 0
 307.666992188 721.166992188 350.666992188 730 398 730 c 0
 444.666992188 730 486.666992188 721.833007812 524 705.5 c 0
 561.333007812 689.166992188 592.666992188 666.166992188 618 636.5 c 0
 643.333007812 606.833007812 660.666992188 571.333007812 670 530 c 1
 538 530 l 1
 530 561.333007812 513.833007812 585.166992188 489.5 601.5 c 0
 465.166992188 617.833007812 434.333007812 626 397 626 c 256
 359.666992188 626 327 615.333007812 299 594 c 0
 271 572.666992188 249.333007812 542.333007812 234 503 c 0
 218.666992188 463.666992188 211 417 211 363 c 0
 211 308.333007812 218.833007812 260.833007812 234.5 220.5 c 0
 250.166992188 180.166992188 272.166992188 149 300.5 127 c 0
 328.833007812 105 361.333007812 94 398 94 c 256
 434.666992188 94 464.833007812 102 488.5 118 c 0
 512.166992188 134 528.333007812 157.666992188 537 189 c 1
 671 189 l 1
 661 147.666992188 643.333007812 112.166992188 618 82.5 c 0
 592.666992188 52.8330078125 561.333007812 30 524 14 c 0
 486.666992188 -2 444.666992188 -10 398 -10 c 256
5 388 m 1
 20 476 l 1
 494 476 l 1
 478 388 l 1
 5 388 l 1
5 246 m 1
 20 334 l 1
 469 334 l 1
 454 246 l 1
 5 246 l 1
EndSplineSet
Validated: 5
EndChar
StartChar: trademark
Encoding: 8482 8482 425
Width: 866
Flags: HW
HStem: 369 369<172 264 398 484 717 808> 662 76<59 172 264 378> 662 59<172 264>
VStem: 172 92<369 721> 470 14<682 711> 717 16<685 713>
LayerCount: 3
Fore
SplineSet
172 369 m 1x9c
 172 721 l 1
 264 721 l 1x3c
 264 369 l 1
 172 369 l 1x9c
59 662 m 1x5c
 59 737 l 1
 378 737 l 1
 378 662 l 1
 59 662 l 1x5c
398 369 m 1x9c
 398 737 l 1x9c
 534 737 l 1
 630 383 l 1
 575 383 l 1
 671 737 l 1x5c
 808 737 l 1
 808 369 l 1
 717 369 l 1
 717 713 l 1
 733 713 l 1
 645 369 l 1
 556 369 l 1
 470 711 l 1
 484 711 l 1
 484 369 l 1
 398 369 l 1x9c
EndSplineSet
EndChar
StartChar: arrowleft
Encoding: 8592 8592 462
Width: 862
Flags: HW
HStem: 309 119<227 805>
LayerCount: 3
Fore
SplineSet
805 309 m 1
 155 309 l 1
 227 360 l 1
 569 18 l 1
 407 18 l 1
 58 369 l 1
 407 719 l 1
 570 719 l 1
 227 377 l 1
 155 428 l 1
 805 428 l 1
 805 309 l 1
EndSplineSet
EndChar
StartChar: arrowup
Encoding: 8593 8593 456
Width: 807
Flags: HW
VStem: 344 119<5 585>
LayerCount: 3
Fore
SplineSet
344 5 m 1
 344 656 l 1
 396 585 l 1
 54 243 l 1
 54 404 l 1
 404 754 l 1
 754 404 l 1
 754 242 l 1
 412 585 l 1
 463 656 l 1
 463 5 l 1
 344 5 l 1
EndSplineSet
EndChar
StartChar: arrowright
Encoding: 8594 8594 458
Width: 880
Flags: HW
HStem: 309 119<67 645>
LayerCount: 3
Fore
SplineSet
67 428 m 1
 717 428 l 1
 645 377 l 1
 303 719 l 1
 466 719 l 1
 814 369 l 1
 466 18 l 1
 303 18 l 1
 645 360 l 1
 717 309 l 1
 67 309 l 1
 67 428 l 1
EndSplineSet
Validated: 5
EndChar
StartChar: arrowdown
Encoding: 8595 8595 460
Width: 833
Flags: HW
VStem: 357 119<153 732>
LayerCount: 3
Fore
SplineSet
357 732 m 1
 476 732 l 1
 476 81 l 1
 425 153 l 1
 767 496 l 1
 767 333 l 1
 417 -16 l 1
 67 333 l 1
 67 495 l 1
 409 153 l 1
 357 81 l 1
 357 732 l 1
EndSplineSet
EndChar
StartChar: arrowboth
Encoding: 8596 8596 464
Width: 1157
Flags: HW
HStem: 302 116<280 877>
LayerCount: 3
Fore
SplineSet
406 18 m 1
 65 360 l 1
 406 702 l 1
 564 702 l 1
 280 418 l 1
 877 418 l 1
 593 702 l 1
 752 702 l 1
 1092 360 l 1
 752 18 l 1
 593 18 l 1
 877 302 l 1
 280 302 l 1
 565 18 l 1
 406 18 l 1
EndSplineSet
Validated: 1
EndChar
StartChar: arrowupdn
Encoding: 8597 8597 465
Width: 814
Flags: HW
VStem: 349 116<61 659>
LayerCount: 3
Fore
SplineSet
407 -154 m 1
 65 187 l 1
 65 346 l 1
 349 61 l 1
 349 659 l 1
 65 374 l 1
 65 533 l 1
 407 874 l 1
 749 533 l 1
 749 374 l 1
 465 659 l 1
 465 61 l 1
 749 346 l 1
 749 187 l 1
 407 -154 l 1
EndSplineSet
Validated: 1
EndChar
StartChar: uni2196
Encoding: 8598 8598 463
Width: 728
Flags: HW
HStem: 547 112<189 549>
LayerCount: 3
Fore
SplineSet
541 100 m 1
 93 550 l 1
 177 535 l 1
 177 63 l 1
 65 175 l 1
 67 658 l 1
 549 659 l 1
 662 547 l 1
 189 547 l 1
 175 632 l 1
 623 182 l 1
 541 100 l 1
EndSplineSet
Validated: 5
EndChar
StartChar: uni2197
Encoding: 8599 8599 457
Width: 721
Flags: HW
LayerCount: 3
Fore
SplineSet
94 184 m 1
 555 644 l 1
 541 557 l 1
 57 557 l 1
 171 673 l 1
 666 671 l 1
 667 176 l 1
 552 61 l 1
 552 546 l 1
 639 560 l 1
 178 100 l 1
 94 184 l 1
EndSplineSet
EndChar
StartChar: uni2198
Encoding: 8600 8600 459
Width: 728
Flags: HW
VStem: 551 112<185 545>
LayerCount: 3
Fore
SplineSet
187 620 m 1
 636 170 l 1
 551 185 l 1
 551 657 l 1
 663 545 l 1
 662 62 l 1
 179 61 l 1
 67 173 l 1
 539 173 l 1
 554 88 l 1
 105 538 l 1
 187 620 l 1
EndSplineSet
Validated: 5
EndChar
StartChar: uni2199
Encoding: 8601 8601 461
Width: 728
Flags: HW
HStem: 61 112<188 549>
VStem: 65 112<185 545>
LayerCount: 3
Fore
SplineSet
624 537 m 1
 174 89 l 1
 188 173 l 1
 661 173 l 1
 549 61 l 1
 66 63 l 1
 65 545 l 1
 177 658 l 1
 177 185 l 1
 92 171 l 1
 542 619 l 1
 624 537 l 1
EndSplineSet
Validated: 5
EndChar
StartChar: minus
Encoding: 8722 8722 437
Width: 567
Flags: HW
HStem: 332 96<59 508>
LayerCount: 3
Fore
SplineSet
59 332 m 1
 59 428 l 1
 508 428 l 1
 508 332 l 1
 59 332 l 1
EndSplineSet
Validated: 1
Substitution2: "'tnum' Tabular Numbers in Latin lookup 19 subtable" minus.tf
Substitution2: "'aalt' Access All Alternates in Latin lookup 0 subtable" minus.tf
EndChar
StartChar: .notdef
Encoding: 65536 -1 0
Width: 665
Flags: HW
HStem: 0 104<195 472> 633 104<195 472>
VStem: 63 132<104 633> 472 132<104 633>
LayerCount: 3
Fore
SplineSet
63 0 m 1
 63 737 l 1
 604 737 l 1
 604 0 l 1
 63 0 l 1
195 104 m 1
 472 104 l 1
 472 633 l 1
 195 633 l 1
 195 104 l 1
EndSplineSet
EndChar
StartChar: G.ss07
Encoding: 65562 -1 140
Width: 772
GlyphClass: 2
Flags: HW
HStem: -10 108<300 502> 289 104<414 609> 289 52<609 639> 640 108<300 500>
VStem: 39 134<239 499> 591 130<497 555>
AnchorPoint: "Anchor-2" 392 0 basechar 0
AnchorPoint: "Anchor-0" 392 737 basechar 0
LayerCount: 3
Fore
SplineSet
399 -10 m 0xbc
 328 -10 266 6 212 38 c 0
 158 70 115 115 85 172 c 0
 55 229 39 295 39 369 c 0
 39 443 54 508 85 565 c 0
 116 622 159 667 213 699 c 0
 267 731 329 748 400 748 c 0
 458 748 511 737 556 715 c 0
 601 693 638 664 667 626 c 0
 696 588 714 545 721 497 c 1
 591 497 l 1
 586 525 575 549 558 571 c 0
 541 593 519 610 493 622 c 0
 467 634 436 640 401 640 c 0
 355 640 315 629 281 607 c 0
 247 585 220 555 201 514 c 0
 182 473 173 425 173 369 c 0
 173 314 183 266 201 225 c 0
 219 184 246 153 280 131 c 0
 314 109 356 97 403 97 c 0
 445 97 481 106 512 124 c 0
 543 142 567 170 584 206 c 0
 601 242 609 287 609 341 c 1
 732 341 l 1
 732 267 718 204 690 151 c 0
 662 98 624 58 574 31 c 0
 524 4 465 -10 399 -10 c 0xbc
639 289 m 1
 414 289 l 1
 414 393 l 1
 732 393 l 1xdc
 732 341 l 1
 639 289 l 1
EndSplineSet
EndChar
StartChar: J.ss08
Encoding: 65566 -1 144
Width: 632
Flags: HW
HStem: -10 108<233 387> 717 20G<445 577>
VStem: 41 129<161 253> 445 132<160 737>
LayerCount: 3
Fore
SplineSet
307 -10 m 0
 250 -10 203 2 163 25 c 0
 123 48 93 79 72 119 c 0
 51 159 41 203 41 253 c 1
 170 253 l 1
 170 204 184 165 210 138 c 0
 236 111 268 97 307 97 c 0
 333 97 356 103 377 114 c 0
 398 125 415 142 427 166 c 0
 439 190 445 223 445 263 c 2
 445 737 l 1
 577 737 l 1
 577 281 l 2
 577 218 566 164 545 121 c 0
 524 78 494 45 454 23 c 0
 414 1 365 -10 307 -10 c 0
EndSplineSet
EndChar
StartChar: K.ss04
Encoding: 65559 -1 133
Width: 712
GlyphClass: 2
Flags: HW
HStem: 0 22G<65 197 516 691> 717 20G<65 197 489 672>
VStem: 65 132<0 159 305 737>
AnchorPoint: "Anchor-2" 362 0 basechar 0
AnchorPoint: "Anchor-0" 357 737 basechar 0
LayerCount: 3
Fore
SplineSet
65 0 m 1
 65 737 l 1
 197 737 l 1
 197 0 l 1
 65 0 l 1
139 305 m 1
 506 737 l 1
 672 737 l 1
 350 367 l 1
 328 358 l 1
 155 159 l 1
 139 305 l 1
530 0 m 1
 255 414 l 1
 378 453 l 1
 691 0 l 1
 530 0 l 1
EndSplineSet
EndChar
StartChar: M.ss06
Encoding: 65561 -1 139
Width: 870
Flags: HW
HStem: 0 21G<47 169.971 356.029 506.985 694.017 823> 700 20G<117 289.135 578.894 752.028>
VStem: 47 121<0 70> 696 127<0 69.0411>
LayerCount: 3
Fore
SplineSet
47 0 m 1
 119 720 l 1
 284 720 l 1
 465 15 l 1
 404 15 l 1
 584 720 l 1
 750 720 l 1
 823 0 l 1
 696 0 l 1
 628 686 l 1
 673 686 l 1
 502 0 l 1
 361 0 l 1
 192 680 l 1
 235 680 l 1
 168 0 l 1
 47 0 l 1
EndSplineSet
Validated: 5
EndChar
StartChar: Q.ss09
Encoding: 65567 -1 145
Width: 782
Flags: HW
HStem: -10 105<296.159 461.773> 625 105<293.048 487.327>
VStem: 41 131<236.838 489.602> 609 131<234.938 488.904>
LayerCount: 3
Fore
SplineSet
391 -10 m 0
 339.666992188 -10 292.833007812 -1 250.5 17 c 0
 208.166992188 35 171.333007812 60.5 140 93.5 c 0
 108.666992188 126.5 84.3330078125 165.833007812 67 211.5 c 0
 49.6669921875 257.166992188 41 307.666992188 41 363 c 0
 41 436.333007812 55.8330078125 500.5 85.5 555.5 c 0
 115.166992188 610.5 156.333007812 653.333007812 209 684 c 0
 261.666992188 714.666992188 322 730 390 730 c 0
 458.666992188 730 519.333007812 714.666992188 572 684 c 0
 624.666992188 653.333007812 665.833007812 610.333007812 695.5 555 c 0
 725.166992188 499.666992188 740 435.333007812 740 362 c 0
 740 307.333007812 731.333007812 257.166992188 714 211.5 c 0
 696.666992188 165.833007812 672.5 126.5 641.5 93.5 c 0
 610.5 60.5 573.666992188 35 531 17 c 0
 488.333007812 -1 441.666992188 -10 391 -10 c 0
390 95 m 0
 422 95 451.5 101.166992188 478.5 113.5 c 0
 505.5 125.833007812 528.833007812 143.833007812 548.5 167.5 c 0
 568.166992188 191.166992188 583.166992188 219.5 593.5 252.5 c 0
 603.833007812 285.5 609 322.666992188 609 364 c 0
 609 416.666992188 599.833007812 462.666992188 581.5 502 c 0
 563.166992188 541.333007812 537.666992188 571.666992188 505 593 c 0
 472.333007812 614.333007812 434 625 390 625 c 256
 346 625 307.666992188 614.333007812 275 593 c 0
 242.333007812 571.666992188 217 541.5 199 502.5 c 0
 181 463.5 172 417.333007812 172 364 c 0
 172 310 181.166992188 262.833007812 199.5 222.5 c 0
 217.833007812 182.166992188 243.333007812 150.833007812 276 128.5 c 0
 308.666992188 106.166992188 346.666992188 95 390 95 c 0
366 241 m 1
 455 292 l 1
 676 -92 l 1
 587 -143 l 1
 366 241 l 1
EndSplineSet
Validated: 5
EndChar
StartChar: R
Encoding: 65537 -1 76
Width: 657
GlyphClass: 2
Flags: HW
HStem: 0 21G<64 193 446.306 639> 303 99<352 436.776> 303 66<164 299> 618 102<193 438.516>
VStem: 64 129<0 303 402 618> 164 29<303 402> 479 125<442.744 579.096>
AnchorPoint: "Anchor-2" 328 0 basechar 0
AnchorPoint: "Anchor-0" 328 720 basechar 0
LayerCount: 3
Fore
SplineSet
64 0 m 1xda
 64 720 l 1
 356 720 l 2
 406.666992188 720 450.666992188 711.333007812 488 694 c 0
 525.333007812 676.666992188 554 652.333007812 574 621 c 0
 594 589.666992188 604 553 604 511 c 0
 604 469.666992188 594 433.5 574 402.5 c 0
 554 371.5 525.333007812 347.166992188 488 329.5 c 0
 450.666992188 311.833007812 406.666992188 303 356 303 c 2xda
 164 303 l 1xb6
 164 402 l 1xd6
 352 402 l 2
 393.333007812 402 424.833007812 411.666992188 446.5 431 c 0
 468.166992188 450.333007812 479 477 479 511 c 256
 479 545 468.333007812 571.333007812 447 590 c 0
 425.666992188 608.666992188 394 618 352 618 c 2
 193 618 l 1
 193 0 l 1
 64 0 l 1xda
463 0 m 1
 155 369 l 1
 299 369 l 1xb2
 639 0 l 1
 463 0 l 1
EndSplineSet
Validated: 5
Substitution2: "'calt' Contextual Alternates in Latin lookup 26 subtable" R.ss05
Substitution2: "'aalt' Access All Alternates in Latin lookup 0 subtable" R.ss05
EndChar
StartChar: a.ss02
Encoding: 65601 -1 289
Width: 632
GlyphClass: 2
Flags: HW
HStem: -10 105<227 364> 0 22G<436 561> 427 105<227 367> 502 20G<436 561>
VStem: 36 133<158 364> 436 125<0 114 161 362 401 522>
AnchorPoint: "Anchor-3" 561 0 basechar 0
AnchorPoint: "Anchor-2" 316 0 basechar 0
AnchorPoint: "Anchor-0" 316 522 basechar 0
LayerCount: 3
Fore
SplineSet
264 -10 m 0x8c
 218 -10 177 1 143 23 c 0
 109 45 83 77 64 117 c 0
 45 157 36 204 36 259 c 0
 36 314 46 362 65 403 c 0
 84 444 110 476 145 499 c 0
 180 522 221 532 268 532 c 0xac
 316 532 356 521 387 498 c 0
 418 475 437 442 445 401 c 1
 436 399 l 1
 436 522 l 1
 561 522 l 1
 561 0 l 1
 436 0 l 1x5c
 436 117 l 1
 446 114 l 1
 437 76 416 47 383 24 c 0
 350 1 310 -10 264 -10 c 0x8c
302 95 m 0
 344 95 376 110 400 139 c 0
 424 168 435 208 435 261 c 0
 435 314 423 355 399 384 c 0
 375 413 343 427 301 427 c 0
 260 427 228 412 204 383 c 0
 180 354 169 313 169 260 c 256
 169 207 181 166 205 138 c 0
 229 110 261 95 302 95 c 0
EndSplineSet
Validated: 1048581
EndChar
StartChar: ampersand
Encoding: 65675 -1 420
Width: 762
Flags: HW
HStem: -10 103<215.617 423.82> 0 21G<566.407 745> 640 90<271.836 392.367>
VStem: 33 125<144.288 280.718> 131 119<502.25 618.273> 416 112<505.132 616.53> 568 119<248.795 388>
LayerCount: 3
Fore
SplineSet
585 0 m 1x6e
 215 398 l 2
 193.666992188 421.333007812 176.833007812 442.166992188 164.5 460.5 c 0
 152.166992188 478.833007812 143.5 496.333007812 138.5 513 c 0
 133.5 529.666992188 131 547.333007812 131 566 c 0
 131 596.666992188 139.333007812 624.333007812 156 649 c 0
 172.666992188 673.666992188 195.833007812 693.333007812 225.5 708 c 0
 255.166992188 722.666992188 289.666992188 730 329 730 c 0
 367 730 401 723.166992188 431 709.5 c 0
 461 695.833007812 484.666992188 676.333007812 502 651 c 0
 519.333007812 625.666992188 528 595.666992188 528 561 c 0
 528 519.666992188 512.833007812 482.166992188 482.5 448.5 c 0
 452.166992188 414.833007812 407 387.666992188 347 367 c 1
 288 441 l 1
 332 455.666992188 364.333007812 473.333007812 385 494 c 0
 405.666992188 514.666992188 416 537.666992188 416 563 c 0
 416 585 408.333007812 603.333007812 393 618 c 0
 377.666992188 632.666992188 357 640 331 640 c 256
 305 640 285 632.833007812 271 618.5 c 0
 257 604.166992188 250 586.666992188 250 566 c 0
 250 554.666992188 252.166992188 542.833007812 256.5 530.5 c 0
 260.833007812 518.166992188 270.166992188 503 284.5 485 c 0
 298.833007812 467 320 443.333007812 348 414 c 2
 745 0 l 1
 585 0 l 1x6e
306 -10 m 0xb6
 251.333007812 -10 203.5 -1 162.5 17 c 0
 121.5 35 89.6669921875 59.8330078125 67 91.5 c 0
 44.3330078125 123.166992188 33 159.666992188 33 201 c 0
 33 256.333007812 51.6669921875 303.333007812 89 342 c 0
 126.333007812 380.666992188 180.333007812 410.666992188 251 432 c 1
 311 358 l 1
 273.666992188 346 243.666992188 332.666992188 221 318 c 0
 198.333007812 303.333007812 182.166992188 287.5 172.5 270.5 c 0
 162.833007812 253.5 158 234.333007812 158 213 c 0
 158 175 172 145.5 200 124.5 c 0
 228 103.5 266.666992188 93 316 93 c 0
 350.666992188 93 383 98.6669921875 413 110 c 0
 443 121.333007812 469.666992188 138.833007812 493 162.5 c 0
 516.333007812 186.166992188 534.666992188 216.666992188 548 254 c 0
 561.333007812 291.333007812 568 336 568 388 c 1
 687 388 l 1
 687 340 680.833007812 295.5 668.5 254.5 c 0
 656.166992188 213.5 638.5 176.666992188 615.5 144 c 0
 592.5 111.333007812 565.333007812 83.5 534 60.5 c 0
 502.666992188 37.5 467.666992188 20 429 8 c 0
 390.333007812 -4 349.333007812 -10 306 -10 c 0xb6
EndSplineSet
Validated: 5
Substitution2: "'calt' Contextual Alternates in Latin lookup 32 subtable" ampersand.ss11
Substitution2: "'aalt' Access All Alternates in Latin lookup 0 subtable" ampersand.ss11
EndChar
StartChar: braceleft.case
Encoding: 65664 -1 396
Width: 443
Flags: HW
HStem: -40 99<247.263 385> 310 100<38 140.83> 661 99<247.263 385>
CounterMasks: 1 e0
LayerCount: 3
Fore
SplineSet
291 -40 m 2
 245.666992188 -40 208.833007812 -32 180.5 -16 c 0
 152.166992188 0 133.333007812 21.5 124 48.5 c 0
 114.666992188 75.5 115.333007812 105.333007812 126 138 c 2
 148 212 l 2
 158.666992188 244.666992188 157.166992188 269.166992188 143.5 285.5 c 0
 129.833007812 301.833007812 107 310 75 310 c 2
 38 310 l 1
 38 410 l 1
 75 410 l 2
 107 410 129.833007812 418.166992188 143.5 434.5 c 0
 157.166992188 450.833007812 158.666992188 475.333007812 148 508 c 2
 126 582 l 2
 115.333007812 615.333007812 114.666992188 645.5 124 672.5 c 0
 133.333007812 699.5 152.166992188 720.833007812 180.5 736.5 c 0
 208.833007812 752.166992188 245.666992188 760 291 760 c 2
 385 760 l 1
 385 661 l 1
 299 661 l 2
 275.666992188 661 258.166992188 653.833007812 246.5 639.5 c 0
 234.833007812 625.166992188 233 606 241 582 c 2
 264 512 l 2
 273.333007812 486.666992188 275.666992188 463.666992188 271 443 c 0
 266.333007812 422.333007812 256.5 405 241.5 391 c 0
 226.5 377 208.333007812 366.666992188 187 360 c 1
 208.333007812 353.333007812 226.5 343 241.5 329 c 0
 256.5 315 266.333007812 297.833007812 271 277.5 c 0
 275.666992188 257.166992188 273.333007812 234 264 208 c 2
 241 138 l 2
 233 114 234.833007812 94.8330078125 246.5 80.5 c 0
 258.166992188 66.1669921875 275.666992188 59 299 59 c 2
 385 59 l 1
 385 -40 l 1
 291 -40 l 2
EndSplineSet
Validated: 33
EndChar
StartChar: braceright.case
Encoding: 65665 -1 397
Width: 443
Flags: HW
HStem: -40 99<58 195.737> 310 100<302.17 405> 661 99<58 195.737>
CounterMasks: 1 e0
LayerCount: 3
Fore
SplineSet
152 760 m 2
 197.333007812 760 234.166992188 752.166992188 262.5 736.5 c 0
 290.833007812 720.833007812 309.666992188 699.5 319 672.5 c 0
 328.333007812 645.5 327.666992188 615.333007812 317 582 c 2
 295 508 l 2
 284.333007812 475.333007812 285.833007812 450.833007812 299.5 434.5 c 0
 313.166992188 418.166992188 336 410 368 410 c 2
 405 410 l 1
 405 310 l 1
 368 310 l 2
 336 310 313.166992188 301.833007812 299.5 285.5 c 0
 285.833007812 269.166992188 284.333007812 244.666992188 295 212 c 2
 317 138 l 2
 327.666992188 105.333007812 328.333007812 75.5 319 48.5 c 0
 309.666992188 21.5 290.833007812 0 262.5 -16 c 0
 234.166992188 -32 197.333007812 -40 152 -40 c 2
 58 -40 l 1
 58 59 l 1
 144 59 l 2
 167.333007812 59 184.833007812 66.1669921875 196.5 80.5 c 0
 208.166992188 94.8330078125 210 114 202 138 c 2
 179 208 l 2
 169.666992188 234 167.333007812 257.166992188 172 277.5 c 0
 176.666992188 297.833007812 186.666992188 315 202 329 c 0
 217.333007812 343 235.333007812 353.333007812 256 360 c 1
 235.333007812 366.666992188 217.333007812 377 202 391 c 0
 186.666992188 405 176.666992188 422.333007812 172 443 c 0
 167.333007812 463.666992188 169.666992188 486.666992188 179 512 c 2
 202 582 l 2
 210 606 208.166992188 625.166992188 196.5 639.5 c 0
 184.833007812 653.833007812 167.333007812 661 144 661 c 2
 58 661 l 1
 58 760 l 1
 152 760 l 2
EndSplineSet
Validated: 33
EndChar
StartChar: bracketleft.case
Encoding: 65666 -1 398
Width: 439
Flags: HW
HStem: -41 101<204 387> 677 101<204 387>
VStem: 83 304<-41 60 677 778> 83 121<60 677>
LayerCount: 3
Fore
SplineSet
83 -41 m 1xe0
 83 778 l 1
 387 778 l 1
 387 677 l 1xe0
 204 677 l 1
 204 60 l 1xd0
 387 60 l 1
 387 -41 l 1
 83 -41 l 1xe0
EndSplineSet
EndChar
StartChar: bracketright.case
Encoding: 65667 -1 399
Width: 453
Flags: HW
HStem: -41 101<59 243> 677 101<59 243>
VStem: 59 304<-41 60 677 778> 243 121<60 677>
LayerCount: 3
Fore
SplineSet
364 778 m 1xe0
 364 -41 l 1
 59 -41 l 1
 59 60 l 1xe0
 243 60 l 1
 243 677 l 1xd0
 59 677 l 1
 59 778 l 1
 364 778 l 1xe0
EndSplineSet
EndChar
StartChar: bullet.case
Encoding: 65643 -1 365
Width: 715
Flags: HW
HStem: 90 577<69 646>
VStem: 69 577<90 667>
LayerCount: 3
Fore
SplineSet
69 90 m 1
 69 667 l 1
 646 667 l 1
 646 90 l 1
 69 90 l 1
EndSplineSet
Validated: 1
Substitution2: "'ss01' Style Set 1 in Latin lookup 22 subtable" bullet.case.ss01
Substitution2: "'aalt' Access All Alternates in Latin lookup 0 subtable" bullet.case.ss01
EndChar
StartChar: bullet.case.ss01
Encoding: 65657 -1 379
Width: 802
Flags: HW
HStem: 49 662<278 522>
VStem: 71 662<254 505>
LayerCount: 3
Fore
SplineSet
403 49 m 0
 309 49 231 79 167 140 c 0
 103 201 71 282 71 382 c 0
 71 477 103 555 167 617 c 0
 231 679 309 711 403 711 c 0
 489 711 565 679 632 617 c 0
 699 555 732 477 732 382 c 0
 732 282 699 201 632 140 c 0
 565 79 489 49 403 49 c 0
EndSplineSet
EndChar
StartChar: bullet.ss01
Encoding: 65655 -1 377
Width: 367
Flags: HW
HStem: 249 229<115.572 250.193>
VStem: 69 229<294.143 431.616>
LayerCount: 3
Fore
SplineSet
184 249 m 0
 152 249 124.833007812 259.5 102.5 280.5 c 0
 80.1669921875 301.5 69 329.333007812 69 364 c 0
 69 396.666992188 80.1669921875 423.833007812 102.5 445.5 c 0
 124.833007812 467.166992188 152 478 184 478 c 0
 214 478 240.5 467.166992188 263.5 445.5 c 0
 286.5 423.833007812 298 396.666992188 298 364 c 0
 298 329.333007812 286.5 301.5 263.5 280.5 c 0
 240.5 259.5 214 249 184 249 c 0
EndSplineSet
Validated: 1
EndChar
StartChar: cent.ss12
Encoding: 65676 -1 434
Width: 551
Flags: HW
HStem: -10 95<213 345> 437 95<213 344>
VStem: 27 125<155 369> 237 104<-112 631>
LayerCount: 3
Fore
SplineSet
288 -10 m 0
 237 -10 191 2 152 25 c 0
 113 48 82 80 60 121 c 0
 38 162 27 209 27 262 c 0
 27 315 38 361 60 402 c 0
 82 443 113 475 152 498 c 0
 191 521 237 532 288 532 c 0
 330 532 369 524 403 508 c 0
 437 492 464 470 486 441 c 0
 508 412 522 378 528 338 c 1
 413 338 l 1
 406 370 392 395 371 412 c 0
 350 429 322 437 289 437 c 0
 245 437 212 422 188 391 c 0
 164 360 152 317 152 262 c 256
 152 207 164 163 188 132 c 0
 212 101 246 85 290 85 c 0
 323 85 350 94 371 111 c 0
 392 128 406 152 413 184 c 1
 528 184 l 1
 522 144 508 110 486 81 c 0
 464 52 436 30 402 14 c 0
 368 -2 330 -10 288 -10 c 0
237 -112 m 1
 237 33 l 1
 241 59 l 1
 241 466 l 1
 237 497 l 1
 237 631 l 1
 341 631 l 1
 341 494 l 1
 337 468 l 1
 337 62 l 1
 341 37 l 1
 341 -112 l 1
 237 -112 l 1
EndSplineSet
EndChar
StartChar: comma.ss01
Encoding: 65646 -1 368
Width: 275
Flags: HW
VStem: 55 165<19 124>
LayerCount: 3
Fore
SplineSet
72 -163 m 1
 72 -99 l 1
 97 -90 115 -77 128 -60 c 0
 141 -43 147 -19 147 12 c 1
 188 12 l 1
 182 7 173 2 164 -1 c 0
 155 -4 146 -6 138 -6 c 0
 114 -6 95 1 79 16 c 0
 63 31 55 51 55 74 c 0
 55 99 64 118 80 133 c 0
 96 148 114 155 135 155 c 0
 158 155 178 145 195 127 c 0
 212 109 220 80 220 40 c 0
 220 -11 207 -54 181 -90 c 0
 155 -126 118 -150 72 -163 c 1
EndSplineSet
EndChar
StartChar: divide.tf
Encoding: 65681 -1 450
Width: 602
Flags: HW
HStem: 127 137<251.628 349.342> 324 94<71 531> 479 137<251.628 349.342>
VStem: 231 140<146.597 243.888 498.597 595.888>
LayerCount: 3
Fore
SplineSet
71 324 m 1
 71 418 l 1
 531 418 l 1
 531 324 l 1
 71 324 l 1
302 479 m 0
 281.333007812 479 264.333007812 485.333007812 251 498 c 0
 237.666992188 510.666992188 231 527.333007812 231 548 c 0
 231 567.333007812 237.666992188 583.5 251 596.5 c 0
 264.333007812 609.5 281.333007812 616 302 616 c 0
 320 616 336 609.666992188 350 597 c 0
 364 584.333007812 371 568 371 548 c 0
 371 527.333007812 364 510.666992188 350 498 c 0
 336 485.333007812 320 479 302 479 c 0
302 127 m 0
 281.333007812 127 264.333007812 133.333007812 251 146 c 0
 237.666992188 158.666992188 231 175.333007812 231 196 c 0
 231 215.333007812 237.666992188 231.5 251 244.5 c 0
 264.333007812 257.5 281.333007812 264 302 264 c 0
 320 264 336 257.5 350 244.5 c 0
 364 231.5 371 215.333007812 371 196 c 0
 371 175.333007812 364 158.666992188 350 146 c 0
 336 133.333007812 320 127 302 127 c 0
EndSplineSet
Validated: 1
Substitution2: "'pnum' Proportional Numbers in Latin lookup 18 subtable" divide
Substitution2: "'aalt' Access All Alternates in Latin lookup 0 subtable" divide
EndChar
StartChar: dollar.ss12
Encoding: 65677 -1 435
Width: 646
Flags: HW
HStem: -9 101<248 448> 526 22G<472 601> 647 101<231 391>
VStem: 36 126<168 236> 71 126<502 615> 280 105<-112 850> 475 126<526 589> 486 125<129 250>
LayerCount: 3
Fore
SplineSet
344 -9 m 0xed
 254 -9 183 12 129 55 c 0
 75 98 44 158 36 236 c 1
 162 236 l 1
 167 190 185 155 218 130 c 0
 251 105 294 92 349 92 c 0
 393 92 427 101 451 117 c 0
 475 133 486 156 486 186 c 0xf5
 486 213 478 234 463 251 c 0
 448 268 423 282 388 294 c 2
 260 336 l 2
 194 357 146 384 116 417 c 0
 86 450 71 492 71 542 c 0
 71 584 81 621 102 652 c 0
 123 683 154 706 193 723 c 0
 232 740 277 749 329 749 c 0
 409 749 473 729 520 689 c 0
 567 649 594 594 601 526 c 1
 475 526 l 1xee
 468 568 452 599 426 618 c 0
 400 637 367 647 323 647 c 0
 283 647 252 639 230 624 c 0
 208 609 197 587 197 559 c 0
 197 537 204 518 218 502 c 0
 232 486 257 471 295 459 c 2
 426 416 l 2
 491 396 538 368 567 334 c 0
 596 300 611 257 611 206 c 0
 611 137 588 84 541 47 c 0
 494 10 429 -9 344 -9 c 0xed
280 -112 m 1
 280 33 l 1
 285 59 l 1
 285 685 l 1
 280 716 l 1
 280 850 l 1
 385 850 l 1
 385 713 l 1
 380 687 l 1
 380 62 l 1
 385 37 l 1
 385 -112 l 1
 280 -112 l 1
EndSplineSet
EndChar
StartChar: eight.tf
Encoding: 65633 -1 338
Width: 600
Flags: HW
HStem: -10 104<233 367> 336 97<243 359> 378 22<200 222 378 400> 643 104<242 359>
VStem: 49 144<134 296> 68 143<465 612> 389 143<464 612> 407 144<136 296>
LayerCount: 3
Fore
SplineSet
301 -10 m 256xb1
 251 -10 208 -1 170 17 c 0
 132 35 102 62 81 94 c 0
 60 126 49 164 49 206 c 0xb9
 49 243 56 276 71 305 c 0
 86 334 106 357 132 374 c 0
 158 391 188 399 222 399 c 1
 236 378 l 1
 201 378 170 385 145 399 c 0
 120 413 100 433 87 459 c 0
 74 485 68 515 68 548 c 0
 68 588 77 622 96 652 c 0
 115 682 142 705 177 722 c 0
 212 739 253 748 300 748 c 0
 348 748 390 739 424 722 c 0
 458 705 485 682 504 652 c 0
 523 622 533 588 533 548 c 0xb6
 533 515 526 485 513 459 c 0
 500 433 480 413 455 399 c 0
 430 385 400 378 364 378 c 1
 378 399 l 1
 412 399 442 391 468 374 c 0
 494 357 514 334 529 305 c 0
 544 276 551 243 551 205 c 0
 551 163 541 125 520 93 c 0
 499 61 470 35 432 17 c 0
 394 -1 351 -10 301 -10 c 256xb1
300 94 m 0
 333 94 359 105 378 127 c 0
 397 149 407 178 407 216 c 256
 407 254 397 283 378 304 c 0
 359 325 332 336 300 336 c 256xd9
 268 336 242 325 223 304 c 0
 204 283 194 254 194 216 c 0
 194 178 203 148 222 126 c 0
 241 104 267 94 300 94 c 0
300 433 m 0
 327 433 349 442 365 461 c 0
 381 480 389 506 389 538 c 0
 389 571 381 596 365 615 c 0
 349 634 326 643 299 643 c 0
 273 643 252 633 236 614 c 0
 220 595 211 570 211 538 c 0xd6
 211 507 219 481 236 462 c 0
 253 443 274 433 300 433 c 0
EndSplineSet
Substitution2: "'pnum' Proportional Numbers in Latin lookup 18 subtable" eight
Substitution2: "'aalt' Access All Alternates in Latin lookup 0 subtable" eight
EndChar
StartChar: emdash.case
Encoding: 65661 -1 387
Width: 898
Flags: HW
HStem: 319 98<66 832>
LayerCount: 3
Fore
SplineSet
66 319 m 1
 66 418 l 1
 832 418 l 1
 832 319 l 1
 66 319 l 1
EndSplineSet
EndChar
StartChar: endash.case
Encoding: 65660 -1 386
Width: 597
Flags: HW
HStem: 312 96<70 527>
LayerCount: 3
Fore
SplineSet
70 312 m 1
 70 408 l 1
 527 408 l 1
 527 312 l 1
 70 312 l 1
EndSplineSet
Validated: 1
EndChar
StartChar: equal.tf
Encoding: 65682 -1 451
Width: 600
Flags: HW
HStem: 229 96<64 536> 434 96<64 536>
LayerCount: 3
Fore
SplineSet
64 434 m 1
 64 530 l 1
 536 530 l 1
 536 434 l 1
 64 434 l 1
64 229 m 1
 64 326 l 1
 536 326 l 1
 536 229 l 1
 64 229 l 1
EndSplineSet
Substitution2: "'pnum' Proportional Numbers in Latin lookup 18 subtable" equal
Substitution2: "'aalt' Access All Alternates in Latin lookup 0 subtable" equal
EndChar
StartChar: exclam.case
Encoding: 65639 -1 361
Width: 308
Flags: HW
HStem: 0 147<81 228> 717 20G<83 225>
VStem: 81 147<0 147 584 737> 102 103<257 434>
LayerCount: 3
Fore
SplineSet
102 257 m 1xd0
 83 737 l 1
 225 737 l 1
 206 257 l 1
 102 257 l 1xd0
81 0 m 1xe0
 81 147 l 1
 228 147 l 1
 228 0 l 1
 81 0 l 1xe0
EndSplineSet
EndChar
StartChar: exclam.ss01
Encoding: 65650 -1 372
Width: 301
Flags: HW
HStem: -10 161<94.237 206.248>
VStem: 70 161<14.639 126.363> 81 139<559.842 740> 100 101<251 431.158>
LayerCount: 3
Fore
SplineSet
100 251 m 1x90
 81 740 l 1
 220 740 l 1xa0
 201 251 l 1
 100 251 l 1x90
151 -10 m 0
 128.333007812 -10 109.166992188 -2.5 93.5 12.5 c 0
 77.8330078125 27.5 70 47 70 71 c 0
 70 94.3330078125 77.8330078125 113.5 93.5 128.5 c 0
 109.166992188 143.5 128.333007812 151 151 151 c 0
 172.333007812 151 191 143.5 207 128.5 c 0
 223 113.5 231 94.3330078125 231 71 c 0xc0
 231 46.3330078125 223 26.6669921875 207 12 c 0
 191 -2.6669921875 172.333007812 -10 151 -10 c 0
EndSplineSet
Validated: 1
EndChar
StartChar: exclamdown.case
Encoding: 65640 -1 362
Width: 301
Flags: HW
HStem: 0 21G<81 220> 576 144<79 223>
VStem: 79 144<0 149.227 576 720> 100 101<296.211 469>
LayerCount: 3
Fore
SplineSet
81 0 m 1xd0
 100 469 l 1
 201 469 l 1
 220 0 l 1
 81 0 l 1xd0
223 720 m 1xe0
 223 576 l 1
 79 576 l 1
 79 720 l 1
 223 720 l 1xe0
EndSplineSet
Validated: 1
EndChar
StartChar: exclamdown.ss01
Encoding: 65651 -1 373
Width: 318
Flags: HW
HStem: 359 161<103.782 215.278>
VStem: 78 161<384.361 494.635> 89 139<-205 -34.0526> 108 101<88.0526 259>
LayerCount: 3
Fore
SplineSet
89 -205 m 1xa0
 108 259 l 1
 209 259 l 1x90
 228 -205 l 1
 89 -205 l 1xa0
158 520 m 0
 181.333007812 520 200.666992188 512.5 216 497.5 c 0
 231.333007812 482.5 239 463 239 439 c 0
 239 415.666992188 231.333007812 396.5 216 381.5 c 0
 200.666992188 366.5 181.333007812 359 158 359 c 0
 138 359 119.666992188 366.5 103 381.5 c 0
 86.3330078125 396.5 78 415.666992188 78 439 c 0xc0
 78 463.666992188 86.3330078125 483.333007812 103 498 c 0
 119.666992188 512.666992188 138 520 158 520 c 0
EndSplineSet
Validated: 1
EndChar
StartChar: f_f_i
Encoding: 65617 -1 310
Width: 950
GlyphClass: 3
LigCaretCntFixed: 1
Flags: HW
HStem: 0 22G<105 233 432 560 760 888> 422 100<13 800> 601 136<758 891> 639 109<252 353 580 681>
VStem: 105 128<0 619> 432 128<0 619> 760 128<0 422 601 737> 760 40<422 522>
LayerCount: 3
Fore
SplineSet
105 0 m 1xdc
 105 572 l 2
 105 629 121 673 152 703 c 0
 183 733 230 748 291 748 c 0
 305 748 317 746 326 745 c 0
 335 744 344 742 353 739 c 1
 353 633 l 1
 348 635 343 636 336 637 c 0
 329 638 320 639 310 639 c 0
 283 639 265 633 252 620 c 0
 239 607 233 588 233 563 c 2
 233 0 l 1
 105 0 l 1xdc
432 0 m 1
 432 572 l 2
 432 629 448 673 479 703 c 0
 510 733 558 748 619 748 c 0
 633 748 643 746 653 745 c 0
 663 744 672 742 681 739 c 1
 681 633 l 1
 676 635 670 636 663 637 c 0
 656 638 648 639 638 639 c 0
 611 639 592 633 579 620 c 0
 566 607 560 588 560 563 c 2
 560 0 l 1
 432 0 l 1
760 0 m 1xce
 760 522 l 1xcd
 888 522 l 1
 888 0 l 1
 760 0 l 1xce
13 422 m 1
 13 522 l 1
 800 522 l 1
 800 422 l 1
 13 422 l 1
758 601 m 1xec
 758 737 l 1
 891 737 l 1
 891 601 l 1
 758 601 l 1xec
EndSplineSet
Substitution2: "'ss01' Style Set 1 in Latin lookup 22 subtable" f_f_i.ss01
Ligature2: "'liga' Standard Ligatures in Latin lookup 21 subtable" f f i
Substitution2: "'aalt' Access All Alternates in Latin lookup 0 subtable" f_f_i.ss01
LCarets2: 2 318 636
EndChar
StartChar: f_f_i.ss01
Encoding: 65622 -1 315
Width: 939
GlyphClass: 3
LigCaretCntFixed: 1
Flags: HW
HStem: 0 21G<109 234 429 554 749 874> 405 105<20 788> 577 152<760.205 864.826> 624 106<253.083 351.594 573.083 671.594>
VStem: 109 125<0 604.402> 429 125<0 604.402> 737 150<600.205 707.341> 749 125<0 405> 749 39<405 510>
AnchorPoint: "Anchor-5" 160 0 baselig 0
AnchorPoint: "Anchor-4" 160 740 baselig 0
AnchorPoint: "Anchor-5" 470 0 baselig 1
AnchorPoint: "Anchor-4" 470 740 baselig 1
AnchorPoint: "Anchor-5" 779 0 baselig 2
AnchorPoint: "Anchor-4" 779 740 baselig 2
LayerCount: 3
Fore
SplineSet
429 0 m 1xdc
 429 559 l 2
 429 615 444.333007812 657.5 475 686.5 c 0
 505.666992188 715.5 551 730 611 730 c 0
 624.333007812 730 635.666992188 729.333007812 645 728 c 0
 654.333007812 726.666992188 663.333007812 724.666992188 672 722 c 1
 672 618 l 1
 667.333007812 620 661.5 621.5 654.5 622.5 c 0
 647.5 623.5 639.333007812 624 630 624 c 0
 604 624 584.833007812 617.666992188 572.5 605 c 0
 560.166992188 592.333007812 554 574 554 550 c 2
 554 0 l 1
 429 0 l 1xdc
109 0 m 1
 109 559 l 2
 109 615 124.333007812 657.5 155 686.5 c 0
 185.666992188 715.5 231 730 291 730 c 0
 305 730 316.5 729.333007812 325.5 728 c 0
 334.5 726.666992188 343.333007812 724.666992188 352 722 c 1
 352 618 l 1
 347.333007812 620 341.5 621.5 334.5 622.5 c 0
 327.5 623.5 319.333007812 624 310 624 c 0
 284 624 264.833007812 617.666992188 252.5 605 c 0
 240.166992188 592.333007812 234 574 234 550 c 2
 234 0 l 1
 109 0 l 1
20 405 m 1
 20 510 l 1
 788 510 l 1
 788 405 l 1xcc80
 20 405 l 1
749 0 m 1xcd
 749 510 l 1xcc80
 874 510 l 1
 874 0 l 1
 749 0 l 1xcd
813 577 m 256xee
 792.333007812 577 774.5 584.5 759.5 599.5 c 0
 744.5 614.5 737 632.333007812 737 653 c 0
 737 675.666992188 744.5 694 759.5 708 c 0
 774.5 722 792.333007812 729 813 729 c 256
 833.666992188 729 851.166992188 722 865.5 708 c 0
 879.833007812 694 887 675.666992188 887 653 c 0
 887 632.333007812 879.833007812 614.5 865.5 599.5 c 0
 851.166992188 584.5 833.666992188 577 813 577 c 256xee
EndSplineSet
Validated: 5
LCarets2: 2 310 619
EndChar
StartChar: f_f_l
Encoding: 65618 -1 311
Width: 945
GlyphClass: 3
LigCaretCntFixed: 1
Flags: HW
HStem: 0 21G<109 234 429 554 749 874> 405 105<20 653> 614 106<253.599 352.594 573.599 811>
VStem: 109 125<0 594.402> 429 125<0 594.402> 749 125<0 614> 749 62<614 720>
LayerCount: 3
Fore
SplineSet
429 0 m 1xfa
 429 549 l 2
 429 605 444.333007812 647.5 475 676.5 c 0
 505.666992188 705.5 551.666992188 720 613 720 c 2
 811 720 l 1
 811 614 l 1
 631 614 l 2
 605 614 585.666992188 607.666992188 573 595 c 0
 560.333007812 582.333007812 554 564 554 540 c 2
 554 0 l 1
 429 0 l 1xfa
109 0 m 1
 109 549 l 2
 109 605 124.333007812 647.5 155 676.5 c 0
 185.666992188 705.5 231.333007812 720 292 720 c 0
 305.333007812 720 316.666992188 719.333007812 326 718 c 0
 335.333007812 716.666992188 344.333007812 714.666992188 353 712 c 1
 353 608 l 1
 348.333007812 610 342.5 611.5 335.5 612.5 c 0
 328.5 613.5 320.333007812 614 311 614 c 0
 285 614 265.666992188 607.666992188 253 595 c 0
 240.333007812 582.333007812 234 564 234 540 c 2
 234 0 l 1
 109 0 l 1
20 405 m 1
 20 510 l 1
 653 510 l 1
 653 405 l 1
 20 405 l 1
749 0 m 1xfc
 749 720 l 1xfa
 874 720 l 1
 874 0 l 1
 749 0 l 1xfc
EndSplineSet
Validated: 5
Ligature2: "'liga' Standard Ligatures in Latin lookup 21 subtable" f f l
LCarets2: 2 312 623
EndChar
StartChar: f_i
Encoding: 65619 -1 312
Width: 611
GlyphClass: 3
LigCaretCntFixed: 1
Flags: HW
HStem: 0 22G<106 234 433 561> 415 108<14 473> 601 136<431 564> 639 109<253 354>
VStem: 106 128<0 619> 433 128<0 415 601 737> 433 40<415 522>
AnchorPoint: "Anchor-5" 153 0 baselig 0
AnchorPoint: "Anchor-4" 153 758 baselig 0
AnchorPoint: "Anchor-5" 459 0 baselig 1
AnchorPoint: "Anchor-4" 459 758 baselig 1
LayerCount: 3
Fore
SplineSet
106 0 m 1xd8
 106 572 l 2
 106 629 122 673 153 703 c 0
 184 733 231 748 292 748 c 0
 306 748 317 746 327 745 c 0
 337 744 345 742 354 739 c 1
 354 633 l 1
 349 635 344 636 337 637 c 0
 330 638 321 639 311 639 c 0
 284 639 266 633 253 620 c 0
 240 607 234 588 234 563 c 2
 234 0 l 1
 106 0 l 1xd8
433 0 m 1xcc
 433 522 l 1xca
 561 522 l 1
 561 0 l 1
 433 0 l 1xcc
14 415 m 1
 14 522 l 1
 473 522 l 1
 473 415 l 1
 14 415 l 1
431 601 m 1xe8
 431 737 l 1
 564 737 l 1
 564 601 l 1
 431 601 l 1xe8
EndSplineSet
Substitution2: "'ss01' Style Set 1 in Latin lookup 22 subtable" f_i.ss01
Ligature2: "'liga' Standard Ligatures in Latin lookup 21 subtable" f i
Substitution2: "'aalt' Access All Alternates in Latin lookup 0 subtable" f_i.ss01
LCarets2: 1 307
EndChar
StartChar: f_i.ss01
Encoding: 65623 -1 316
Width: 632
GlyphClass: 3
LigCaretCntFixed: 1
Flags: HW
HStem: 0 21G<109 234 429 554> 405 105<20 468> 578 152<440.205 544.826> 624 106<253.083 351.594>
VStem: 109 125<0 604.402> 417 150<600.69 708.341> 429 125<0 405> 429 39<405 510>
AnchorPoint: "Anchor-5" 161 0 baselig 0
AnchorPoint: "Anchor-4" 161 740 baselig 0
AnchorPoint: "Anchor-5" 471 0 baselig 1
AnchorPoint: "Anchor-4" 471 740 baselig 1
LayerCount: 3
Fore
SplineSet
109 0 m 1xd8
 109 559 l 2
 109 615 124.333007812 657.5 155 686.5 c 0
 185.666992188 715.5 231 730 291 730 c 0
 304.333007812 730 315.666992188 729.333007812 325 728 c 0
 334.333007812 726.666992188 343.333007812 724.666992188 352 722 c 1
 352 618 l 1
 347.333007812 620 341.5 621.5 334.5 622.5 c 0
 327.5 623.5 319.333007812 624 310 624 c 0
 284 624 264.833007812 617.666992188 252.5 605 c 0
 240.166992188 592.333007812 234 574 234 550 c 2
 234 0 l 1
 109 0 l 1xd8
429 0 m 1xca
 429 510 l 1xc9
 554 510 l 1
 554 0 l 1
 429 0 l 1xca
493 578 m 256xec
 472.333007812 578 454.5 585.333007812 439.5 600 c 0
 424.5 614.666992188 417 632.666992188 417 654 c 0
 417 676.666992188 424.5 695 439.5 709 c 0
 454.5 723 472.333007812 730 493 730 c 256
 513.666992188 730 531.166992188 723 545.5 709 c 0
 559.833007812 695 567 676.666992188 567 654 c 0
 567 632.666992188 559.833007812 614.666992188 545.5 600 c 0
 531.166992188 585.333007812 513.666992188 578 493 578 c 256xec
20 405 m 1
 20 510 l 1
 468 510 l 1
 468 405 l 1xc9
 20 405 l 1
EndSplineSet
Validated: 5
LCarets2: 1 311
EndChar
StartChar: f_l
Encoding: 65620 -1 313
Width: 626
GlyphClass: 3
LigCaretCntFixed: 1
Flags: HW
HStem: 0 22G<105 233 432 560> 415 108<13 334> 629 109<253 496>
VStem: 105 128<0 609> 432 128<0 629> 432 63<629 737>
AnchorPoint: "Anchor-5" 156 0 baselig 0
AnchorPoint: "Anchor-4" 156 758 baselig 0
AnchorPoint: "Anchor-5" 470 0 baselig 1
AnchorPoint: "Anchor-4" 470 758 baselig 1
LayerCount: 3
Fore
SplineSet
105 0 m 1xf4
 105 562 l 2
 105 619 121 663 152 693 c 0
 183 723 230 737 293 737 c 2
 496 737 l 1
 496 629 l 1
 311 629 l 2
 284 629 265 622 252 609 c 0
 239 596 233 578 233 553 c 2
 233 0 l 1
 105 0 l 1xf4
13 415 m 1
 13 522 l 1
 334 522 l 1
 334 415 l 1
 13 415 l 1
432 0 m 1xf8
 432 737 l 1xf4
 560 737 l 1
 560 0 l 1
 432 0 l 1xf8
EndSplineSet
Ligature2: "'liga' Standard Ligatures in Latin lookup 21 subtable" f l
LCarets2: 1 315
EndChar
StartChar: five.tf
Encoding: 65630 -1 335
Width: 600
Flags: HW
HStem: -10 104<238 358> 390 96<242 359> 633 104<245 503> 633 20<220 245>
VStem: 55 136<142 210> 399 144<138 346>
LayerCount: 3
Fore
SplineSet
302 -10 m 0xdc
 234 -10 178 10 135 49 c 0
 92 88 65 142 55 210 c 1
 192 210 l 1
 196 173 209 144 229 124 c 0
 249 104 272 94 299 94 c 0
 328 94 353 106 371 130 c 0
 389 154 399 191 399 241 c 0
 399 290 389 327 372 352 c 0
 355 377 331 390 301 390 c 0
 283 390 267 385 251 375 c 0
 235 365 223 350 214 331 c 1
 90 331 l 1
 123 737 l 1
 503 737 l 1
 503 633 l 1xec
 173 633 l 1
 245 653 l 1
 229 400 l 1
 185 407 l 1
 201 432 220 451 243 465 c 0
 266 479 295 486 330 486 c 0
 372 486 410 476 442 456 c 0
 474 436 498 408 516 371 c 0
 534 334 543 291 543 240 c 0
 543 187 533 142 513 105 c 0
 493 68 465 39 429 19 c 0
 393 -1 350 -10 302 -10 c 0xdc
EndSplineSet
Substitution2: "'pnum' Proportional Numbers in Latin lookup 18 subtable" five
Substitution2: "'aalt' Access All Alternates in Latin lookup 0 subtable" five
EndChar
StartChar: four.tf
Encoding: 65629 -1 334
Width: 602
Flags: HW
HStem: 0 21G<357 492> 145 102<155 357 363 559> 700 20G<346.681 492>
VStem: 363 129<0 597>
LayerCount: 3
Fore
SplineSet
357 0 m 1
 357 189 l 1
 363 209 l 1
 363 617 l 1
 415 597 l 1
 155 203 l 1
 97 247 l 1
 559 247 l 1
 559 145 l 1
 43 145 l 1
 43 244 l 1
 360 720 l 1
 492 720 l 1
 492 0 l 1
 357 0 l 1
EndSplineSet
Validated: 5
Substitution2: "'pnum' Proportional Numbers in Latin lookup 18 subtable" four
Substitution2: "'aalt' Access All Alternates in Latin lookup 0 subtable" four
EndChar
StartChar: greater.tf
Encoding: 65683 -1 452
Width: 600
Flags: HW
LayerCount: 3
Fore
SplineSet
65 170 m 1
 65 272 l 1
 441 391 l 1
 441 368 l 1
 65 484 l 1
 65 587 l 1
 536 433 l 1
 536 327 l 1
 65 170 l 1
EndSplineSet
Substitution2: "'pnum' Proportional Numbers in Latin lookup 18 subtable" greater
Substitution2: "'aalt' Access All Alternates in Latin lookup 0 subtable" greater
EndChar
StartChar: hyphen.case
Encoding: 65659 -1 385
Width: 491
Flags: HW
HStem: 307 106<70 421>
LayerCount: 3
Fore
SplineSet
70 307 m 1
 70 413 l 1
 421 413 l 1
 421 307 l 1
 70 307 l 1
EndSplineSet
Validated: 1
EndChar
StartChar: hyphen_greater.liga
Encoding: 65636 -1 343
Width: 849
GlyphClass: 3
LigCaretCntFixed: 1
Flags: HW
HStem: 309 119<60 638>
LayerCount: 3
Fore
SplineSet
60 428 m 1
 710 428 l 1
 638 377 l 1
 296 719 l 1
 459 719 l 1
 807 369 l 1
 459 18 l 1
 296 18 l 1
 638 360 l 1
 710 309 l 1
 60 309 l 1
 60 428 l 1
EndSplineSet
Ligature2: "'liga' Standard Ligatures in Latin lookup 21 subtable" hyphen greater
LCarets2: 1 427
EndChar
StartChar: k.ss04
Encoding: 65612 -1 305
Width: 558
GlyphClass: 2
Flags: HW
HStem: 0 22G<66 195 396 552> 502 20G<369 538> 717 20G<66 195>
VStem: 66 129<0 134 241 737>
AnchorPoint: "Anchor-2" 287 0 basechar 0
AnchorPoint: "Anchor-0" 280 758 basechar 0
LayerCount: 3
Fore
SplineSet
66 0 m 1
 66 737 l 1
 195 737 l 1
 195 0 l 1
 66 0 l 1
139 241 m 1
 387 522 l 1
 538 522 l 1
 322 283 l 1
 312 282 l 1
 175 134 l 1
 139 241 l 1
339 323 m 1
 552 0 l 1
 409 0 l 1
 233 276 l 1
 339 323 l 1
EndSplineSet
EndChar
StartChar: less.tf
Encoding: 65684 -1 453
Width: 602
Flags: HW
LayerCount: 3
Fore
SplineSet
496 576 m 1
 496 476 l 1
 153 360 l 1
 153 383 l 1
 496 269 l 1
 496 169 l 1
 58 319 l 1
 58 423 l 1
 496 576 l 1
EndSplineSet
Validated: 5
Substitution2: "'pnum' Proportional Numbers in Latin lookup 18 subtable" less
Substitution2: "'aalt' Access All Alternates in Latin lookup 0 subtable" less
EndChar
StartChar: less_hyphen.liga
Encoding: 65674 -1 418
Width: 849
GlyphClass: 3
LigCaretCntFixed: 1
Flags: HW
HStem: 309 119<229 807>
LayerCount: 3
Fore
SplineSet
807 309 m 1
 157 309 l 1
 229 360 l 1
 571 18 l 1
 409 18 l 1
 60 369 l 1
 409 719 l 1
 572 719 l 1
 229 377 l 1
 157 428 l 1
 807 428 l 1
 807 309 l 1
EndSplineSet
Ligature2: "'liga' Standard Ligatures in Latin lookup 21 subtable" less hyphen
LCarets2: 1 427
EndChar
StartChar: minus.tf
Encoding: 65679 -1 448
Width: 602
Flags: HW
HStem: 324 94<71 531>
LayerCount: 3
Fore
SplineSet
71 324 m 1
 71 418 l 1
 531 418 l 1
 531 324 l 1
 71 324 l 1
EndSplineSet
Validated: 1
Substitution2: "'pnum' Proportional Numbers in Latin lookup 18 subtable" minus
Substitution2: "'aalt' Access All Alternates in Latin lookup 0 subtable" minus
EndChar
StartChar: multiply.tf
Encoding: 65680 -1 449
Width: 600
Flags: HW
LayerCount: 3
Fore
SplineSet
465 158 m 1
 65 535 l 1
 134 604 l 1
 535 227 l 1
 465 158 l 1
134 158 m 1
 65 227 l 1
 465 604 l 1
 535 535 l 1
 134 158 l 1
EndSplineSet
Substitution2: "'pnum' Proportional Numbers in Latin lookup 18 subtable" multiply
Substitution2: "'aalt' Access All Alternates in Latin lookup 0 subtable" multiply
EndChar
StartChar: nine.tf
Encoding: 65634 -1 339
Width: 602
Flags: HW
HStem: -10 102<225.379 350.907> 274 99<232.717 347.4> 628 102<232.547 359.222>
VStem: 44 147<417.39 583.098> 54 132<135.147 212> 401 150<193.253 541.107>
LayerCount: 3
Fore
SplineSet
283 -10 m 0xf4
 238.333007812 -10 199.666992188 -1 167 17 c 0
 134.333007812 35 108.5 60.5 89.5 93.5 c 0
 70.5 126.5 58.6669921875 166 54 212 c 1
 186 212 l 1xec
 190 170 200.666992188 139.5 218 120.5 c 0
 235.333007812 101.5 258.666992188 92 288 92 c 0
 310 92 328.333007812 97.1669921875 343 107.5 c 0
 357.666992188 117.833007812 369.666992188 133.833007812 379 155.5 c 0
 388.333007812 177.166992188 394.833007812 205.5 398.5 240.5 c 0
 402.166992188 275.5 404 317.333007812 404 366 c 2
 404 428 l 1
 440 427 l 1
 433.333007812 395 421.333007812 367.5 404 344.5 c 0
 386.666992188 321.5 365.333007812 304 340 292 c 0
 314.666992188 280 286 274 254 274 c 0
 212.666992188 274 176.333007812 283.5 145 302.5 c 0
 113.666992188 321.5 89 348 71 382 c 0
 53 416 44 455 44 499 c 0
 44 545.666992188 54.1669921875 586.166992188 74.5 620.5 c 0
 94.8330078125 654.833007812 123.166992188 681.666992188 159.5 701 c 0
 195.833007812 720.333007812 238.333007812 730 287 730 c 0
 372.333007812 730 437.666992188 699.166992188 483 637.5 c 0
 528.333007812 575.833007812 551 486 551 368 c 0
 551 288 540.5 219.666992188 519.5 163 c 0
 498.5 106.333007812 468.166992188 63.3330078125 428.5 34 c 0
 388.833007812 4.6669921875 340.333007812 -10 283 -10 c 0xf4
297 373 m 0
 331 373 356.833007812 384 374.5 406 c 0
 392.166992188 428 401 457.666992188 401 495 c 0
 401 533.666992188 392.166992188 565.5 374.5 590.5 c 0
 356.833007812 615.5 331 628 297 628 c 0
 263.666992188 628 237.666992188 616.166992188 219 592.5 c 0
 200.333007812 568.833007812 191 538 191 500 c 0xf4
 191 462.666992188 200.333007812 432.166992188 219 408.5 c 0
 237.666992188 384.833007812 263.666992188 373 297 373 c 0
EndSplineSet
Validated: 5
Substitution2: "'pnum' Proportional Numbers in Latin lookup 18 subtable" nine
Substitution2: "'aalt' Access All Alternates in Latin lookup 0 subtable" nine
EndChar
StartChar: one.tf
Encoding: 65626 -1 331
Width: 600
Flags: HW
HStem: 0 104<111 282 415 557> 31 74<282 415> 476 128<118 182> 717 20G<297 415>
VStem: 282 133<31 608>
LayerCount: 3
Fore
SplineSet
282 31 m 1x78
 282 623 l 1
 299 608 l 1
 289 587 275 568 258 550 c 0
 241 532 220 517 196 504 c 0
 172 491 147 481 118 476 c 1
 118 604 l 1
 143 609 167 618 192 631 c 0
 217 644 238 660 258 679 c 0
 278 698 292 717 302 737 c 1
 415 737 l 1
 415 31 l 1
 282 31 l 1x78
111 0 m 1xb8
 111 104 l 1
 557 104 l 1
 557 0 l 1
 111 0 l 1xb8
EndSplineSet
Substitution2: "'pnum' Proportional Numbers in Latin lookup 18 subtable" one
Substitution2: "'aalt' Access All Alternates in Latin lookup 0 subtable" one
EndChar
StartChar: parenleft.case
Encoding: 65662 -1 394
Width: 453
Flags: HW
VStem: 80 122<225 512>
LayerCount: 3
Fore
SplineSet
280 -41 m 1
 235 -2 197 40 167 85 c 0
 137 130 115 177 101 225 c 0
 87 273 80 322 80 368 c 0
 80 415 87 463 101 511 c 0
 115 559 138 607 168 652 c 0
 198 697 236 739 280 778 c 1
 404 778 l 1
 336 720 286 656 252 585 c 0
 218 514 202 442 202 368 c 256
 202 294 219 221 254 151 c 0
 289 81 338 17 404 -41 c 1
 280 -41 l 1
EndSplineSet
EndChar
StartChar: parenright.case
Encoding: 65663 -1 395
Width: 439
Flags: HW
VStem: 245 122<225 513>
LayerCount: 3
Fore
SplineSet
167 778 m 1
 212 740 249 698 279 653 c 0
 309 608 331 561 345 513 c 0
 359 465 367 417 367 370 c 256
 367 323 359 274 345 226 c 0
 331 178 309 131 279 86 c 0
 249 41 212 -2 167 -41 c 1
 42 -41 l 1
 110 17 160 81 194 152 c 0
 228 223 245 296 245 370 c 256
 245 444 228 516 193 586 c 0
 158 656 108 720 42 778 c 1
 167 778 l 1
EndSplineSet
EndChar
StartChar: percent.tf
Encoding: 65685 -1 454
Width: 602
Flags: HW
HStem: -10 68<406.978 475.072> 0 21G<32 132.556> 288 68<406.667 476.801> 364 68<125.352 193.226> 662 68<125.135 194.928> 700 20G<472.417 572>
VStem: 23 84<453.856 640.819> 213 84<455.178 640.562> 304 85<79.5971 267.462> 495 84<80.9174 266.56>
LayerCount: 3
Fore
SplineSet
32 0 m 1x77c0
 485 720 l 1
 572 720 l 1
 120 0 l 1
 32 0 l 1x77c0
441 -10 m 0xb3c0
 417.666992188 -10 395.666992188 -3.3330078125 375 10 c 0
 354.333007812 23.3330078125 337.333007812 43.6669921875 324 71 c 0
 310.666992188 98.3330078125 304 132.333007812 304 173 c 0
 304 215 310.5 249.333007812 323.5 276 c 0
 336.5 302.666992188 353.5 322.666992188 374.5 336 c 0
 395.5 349.333007812 417.666992188 356 441 356 c 0
 465.666992188 356 488.5 349.333007812 509.5 336 c 0
 530.5 322.666992188 547.333007812 302.666992188 560 276 c 0
 572.666992188 249.333007812 579 215 579 173 c 0
 579 132.333007812 572.5 98.3330078125 559.5 71 c 0
 546.5 43.6669921875 529.5 23.3330078125 508.5 10 c 0
 487.5 -3.3330078125 465 -10 441 -10 c 0xb3c0
441 58 m 0
 454.333007812 58 466.666992188 66.5 478 83.5 c 0
 489.333007812 100.5 495 130.666992188 495 174 c 0
 495 216.666992188 489.666992188 246.333007812 479 263 c 0
 468.333007812 279.666992188 455.666992188 288 441 288 c 0
 427 288 414.833007812 279.833007812 404.5 263.5 c 0
 394.166992188 247.166992188 389 217.333007812 389 174 c 256
 389 130.666992188 394.166992188 100.5 404.5 83.5 c 0
 414.833007812 66.5 427 58 441 58 c 0
160 364 m 0
 136 364 113.666992188 370.666992188 93 384 c 0
 72.3330078125 397.333007812 55.5 417.666992188 42.5 445 c 0
 29.5 472.333007812 23 506.666992188 23 548 c 256
 23 589.333007812 29.5 623.333007812 42.5 650 c 0
 55.5 676.666992188 72.3330078125 696.666992188 93 710 c 0
 113.666992188 723.333007812 136 730 160 730 c 256x3bc0
 184 730 206.5 723.333007812 227.5 710 c 0
 248.5 696.666992188 265.333007812 676.666992188 278 650 c 0
 290.666992188 623.333007812 297 589.333007812 297 548 c 256
 297 506.666992188 290.5 472.333007812 277.5 445 c 0
 264.5 417.666992188 247.5 397.333007812 226.5 384 c 0
 205.5 370.666992188 183.333007812 364 160 364 c 0
159 432 m 256
 173 432 185.5 440.666992188 196.5 458 c 0
 207.5 475.333007812 213 505.666992188 213 549 c 0
 213 591 207.666992188 620.333007812 197 637 c 0
 186.333007812 653.666992188 174 662 160 662 c 256
 146 662 133.666992188 653.833007812 123 637.5 c 0
 112.333007812 621.166992188 107 591.333007812 107 548 c 0
 107 505.333007812 112.166992188 475.333007812 122.5 458 c 0
 132.833007812 440.666992188 145 432 159 432 c 256
EndSplineSet
Validated: 1
Substitution2: "'pnum' Proportional Numbers in Latin lookup 18 subtable" percent
Substitution2: "'aalt' Access All Alternates in Latin lookup 0 subtable" percent
EndChar
StartChar: period.ss01
Encoding: 65645 -1 367
Width: 275
Flags: HW
HStem: -10 165<80 195>
VStem: 55 165<15 129>
LayerCount: 3
Fore
SplineSet
138 -10 m 0
 115 -10 96 -2 80 13 c 0
 64 28 55 48 55 73 c 0
 55 97 64 117 80 132 c 0
 96 147 115 155 138 155 c 0
 160 155 180 147 196 132 c 0
 212 117 220 97 220 73 c 0
 220 48 212 27 196 12 c 0
 180 -3 160 -10 138 -10 c 0
EndSplineSet
EndChar
StartChar: perthousand.tf
Encoding: 65686 -1 455
Width: 602
Flags: HW
HStem: -10 61<230.423 293.992 414.45 477.992> 238 62<229.977 295.452 414.004 479.452> 420 61<122.963 186.532> 669 61<122.052 187.517>
VStem: 37 71<492.652 650.91> 144 72<62.075 227.63> 202 72<493.736 650.44> 310 90<116.667 174.667> 329 52<97.6667 192.333> 494 71<64.7203 219.547>
LayerCount: 3
Fore
SplineSet
62 279 m 1xf840
 41 345 l 1
 528 496 l 1
 549 429 l 1
 62 279 l 1xf840
262 -10 m 0
 228.666992188 -10 200.666992188 4 178 32 c 0
 155.333007812 60 144 97.6669921875 144 145 c 256
 144 192.333007812 155.166992188 230 177.5 258 c 0
 199.833007812 286 228 300 262 300 c 0
 296.666992188 300 325.166992188 286.166992188 347.5 258.5 c 0
 369.833007812 230.833007812 381 193 381 145 c 0xfcc0
 381 97.6669921875 369.666992188 60 347 32 c 0
 324.333007812 4 296 -10 262 -10 c 0
262 51 m 0
 276 51 287.5 59.5 296.5 76.5 c 0
 305.5 93.5 310 116.666992188 310 146 c 0xfd40
 310 174.666992188 305.666992188 197.166992188 297 213.5 c 0
 288.333007812 229.833007812 276.666992188 238 262 238 c 256
 247.333007812 238 236 229.833007812 228 213.5 c 0
 220 197.166992188 216 174.666992188 216 146 c 0
 216 116.666992188 220 93.5 228 76.5 c 0
 236 59.5 247.333007812 51 262 51 c 0
446 -10 m 0
 412.666992188 -10 384.833007812 4 362.5 32 c 0
 340.166992188 60 329 97.6669921875 329 145 c 256xf8c0
 329 192.333007812 340 230 362 258 c 0
 384 286 412 300 446 300 c 0
 480.666992188 300 509.166992188 286.166992188 531.5 258.5 c 0
 553.833007812 230.833007812 565 193 565 145 c 256
 565 97 553.666992188 59.1669921875 531 31.5 c 0
 508.333007812 3.8330078125 480 -10 446 -10 c 0
446 51 m 0
 460 51 471.5 59.5 480.5 76.5 c 0
 489.5 93.5 494 116.666992188 494 146 c 0
 494 174.666992188 489.666992188 197.166992188 481 213.5 c 0
 472.333007812 229.833007812 460.666992188 238 446 238 c 256
 431.333007812 238 420 229.833007812 412 213.5 c 0
 404 197.166992188 400 174.666992188 400 146 c 0xf940
 400 116.666992188 404 93.5 412 76.5 c 0
 420 59.5 431.333007812 51 446 51 c 0
155 420 m 0
 121 420 92.8330078125 434 70.5 462 c 0
 48.1669921875 490 37 528 37 576 c 0
 37 623.333007812 48.1669921875 660.833007812 70.5 688.5 c 0
 92.8330078125 716.166992188 121 730 155 730 c 0
 189.666992188 730 218.166992188 716.333007812 240.5 689 c 0
 262.833007812 661.666992188 274 624 274 576 c 256xfa40
 274 528 262.5 490 239.5 462 c 0
 216.5 434 188.333007812 420 155 420 c 0
155 481 m 0
 169 481 180.333007812 489.5 189 506.5 c 0
 197.666992188 523.5 202 547 202 577 c 0
 202 605.666992188 197.833007812 628.166992188 189.5 644.5 c 0
 181.166992188 660.833007812 169.666992188 669 155 669 c 256
 140.333007812 669 128.833007812 660.833007812 120.5 644.5 c 0
 112.166992188 628.166992188 108 605.666992188 108 577 c 0
 108 547 112.166992188 523.5 120.5 506.5 c 0
 128.833007812 489.5 140.333007812 481 155 481 c 0
EndSplineSet
Validated: 5
Substitution2: "'pnum' Proportional Numbers in Latin lookup 18 subtable" perthousand
Substitution2: "'aalt' Access All Alternates in Latin lookup 0 subtable" perthousand
EndChar
StartChar: plus.tf
Encoding: 65678 -1 447
Width: 602
Flags: HW
HStem: 324 94<71 531>
VStem: 252 99<140 603>
LayerCount: 3
Fore
SplineSet
252 140 m 1
 252 603 l 1
 351 603 l 1
 351 140 l 1
 252 140 l 1
71 324 m 1
 71 418 l 1
 531 418 l 1
 531 324 l 1
 71 324 l 1
EndSplineSet
Validated: 5
Substitution2: "'pnum' Proportional Numbers in Latin lookup 18 subtable" plus
Substitution2: "'aalt' Access All Alternates in Latin lookup 0 subtable" plus
EndChar
StartChar: question.case
Encoding: 65641 -1 363
Width: 579
Flags: HW
HStem: 0 147<225 373> 525 22G<34 164> 643 104<219 390>
VStem: 34 127<525 586> 225 147<0 147> 237 124<257 328> 420 132<500 614>
LayerCount: 3
Fore
SplineSet
237 257 m 1xf6
 237 290 241 317 250 340 c 0
 259 363 270 381 284 397 c 0
 298 413 313 427 328 439 c 0
 343 451 358 464 372 475 c 0
 386 486 398 499 407 513 c 0
 416 527 420 543 420 562 c 0
 420 585 410 605 391 620 c 0
 372 635 343 643 306 643 c 0
 266 643 233 633 207 613 c 0
 181 593 166 563 161 525 c 1
 34 525 l 1
 40 570 55 610 79 643 c 0
 103 676 135 702 174 720 c 0
 213 738 257 748 308 748 c 0
 358 748 401 740 437 724 c 0
 473 708 502 686 522 658 c 0
 542 630 552 598 552 563 c 0
 552 534 547 508 538 488 c 0
 529 468 517 451 503 436 c 0
 489 421 473 407 456 395 c 0
 439 383 424 371 410 358 c 0
 396 345 383 331 374 315 c 0
 365 299 361 280 361 257 c 1
 237 257 l 1xf6
225 0 m 1xfa
 225 147 l 1
 373 147 l 1
 373 0 l 1
 225 0 l 1xfa
EndSplineSet
EndChar
StartChar: question.ss01
Encoding: 65652 -1 374
Width: 576
Flags: HW
HStem: -10 161<240.237 352.248> 648 102<219.209 382.792>
VStem: 38 124<533 592.648> 216 161<14.0955 126.363> 236 121<251 325.316> 415 129<498.368 617.068>
LayerCount: 3
Fore
SplineSet
236 251 m 1xec
 236 285 240.333007812 313.5 249 336.5 c 0
 257.666992188 359.5 268.833007812 379 282.5 395 c 0
 296.166992188 411 310.5 425.166992188 325.5 437.5 c 0
 340.5 449.833007812 354.833007812 461.666992188 368.5 473 c 0
 382.166992188 484.333007812 393.333007812 496.833007812 402 510.5 c 0
 410.666992188 524.166992188 415 540.333007812 415 559 c 0
 415 587 405.166992188 608.833007812 385.5 624.5 c 0
 365.833007812 640.166992188 338.666992188 648 304 648 c 0
 264.666992188 648 232.5 638.166992188 207.5 618.5 c 0
 182.5 598.833007812 167.333007812 570.333007812 162 533 c 1
 38 533 l 1
 44 577 58.6669921875 615.333007812 82 648 c 0
 105.333007812 680.666992188 136.166992188 705.833007812 174.5 723.5 c 0
 212.833007812 741.166992188 256.666992188 750 306 750 c 0
 354 750 395.666992188 742.166992188 431 726.5 c 0
 466.333007812 710.833007812 494 688.666992188 514 660 c 0
 534 631.333007812 544 598 544 560 c 0
 544 531.333007812 539.5 507 530.5 487 c 0
 521.5 467 510 449.666992188 496 435 c 0
 482 420.333007812 466.833007812 407 450.5 395 c 0
 434.166992188 383 419 370.333007812 405 357 c 0
 391 343.666992188 379.5 328.666992188 370.5 312 c 0
 361.5 295.333007812 357 275 357 251 c 1
 236 251 l 1xec
297 -10 m 0
 274.333007812 -10 255.166992188 -2.6669921875 239.5 12 c 0
 223.833007812 26.6669921875 216 46.3330078125 216 71 c 0
 216 94.3330078125 223.833007812 113.5 239.5 128.5 c 0
 255.166992188 143.5 274.333007812 151 297 151 c 0
 318.333007812 151 337 143.5 353 128.5 c 0
 369 113.5 377 94.3330078125 377 71 c 0xf4
 377 46.3330078125 369 26.6669921875 353 12 c 0
 337 -2.6669921875 318.333007812 -10 297 -10 c 0
EndSplineSet
Validated: 1
EndChar
StartChar: questiondown.case
Encoding: 65642 -1 364
Width: 579
Flags: HW
HStem: -10 104<194 367> 590 147<208 354>
VStem: 28 133<125 245> 208 146<590 737> 219 124<410 480>
LayerCount: 3
Fore
SplineSet
271 -10 m 0xe8
 223 -10 182 -2 145 13 c 0
 108 28 80 50 59 78 c 0
 38 106 28 139 28 177 c 0
 28 207 33 233 42 253 c 0
 51 273 63 291 77 306 c 0
 91 321 107 334 124 346 c 0
 141 358 156 369 170 381 c 0
 184 393 196 407 205 423 c 0
 214 439 219 458 219 480 c 1
 343 480 l 1
 343 447 339 420 330 398 c 0
 321 376 311 358 297 343 c 0
 283 328 268 315 252 303 c 0
 236 291 221 280 207 269 c 0
 193 258 183 246 174 232 c 0
 165 218 161 202 161 182 c 0
 161 154 171 132 192 117 c 0
 213 102 242 94 279 94 c 0
 315 94 346 102 372 119 c 0
 398 136 414 161 419 194 c 1
 546 194 l 1
 541 152 526 114 501 84 c 0
 476 54 444 30 405 14 c 0
 366 -2 321 -10 271 -10 c 0xe8
354 737 m 1xf0
 354 590 l 1
 208 590 l 1
 208 737 l 1
 354 737 l 1xf0
EndSplineSet
EndChar
StartChar: questiondown.ss01
Encoding: 65653 -1 375
Width: 589
Flags: HW
HStem: -220 104<198 372> 368 165<230 344>
VStem: 33 133<-86 31> 204 165<394 507> 224 124<196 265>
LayerCount: 3
Fore
SplineSet
276 -220 m 0xe8
 228 -220 187 -212 150 -197 c 0
 113 -182 85 -160 64 -132 c 0
 43 -104 33 -72 33 -35 c 0
 33 -6 38 19 47 39 c 0
 56 59 68 77 82 92 c 0
 96 107 112 119 129 131 c 0
 146 143 161 155 175 167 c 0
 189 179 201 193 210 209 c 0
 219 225 224 243 224 265 c 1
 348 265 l 1
 348 232 344 205 335 183 c 0
 326 161 316 143 302 128 c 0
 288 113 273 100 257 88 c 0
 241 76 226 65 212 54 c 0
 198 43 188 31 179 17 c 0
 170 3 166 -13 166 -33 c 0
 166 -58 176 -78 197 -93 c 0
 218 -108 247 -116 284 -116 c 0
 320 -116 351 -108 377 -91 c 0
 403 -74 419 -49 424 -16 c 1
 551 -16 l 1
 546 -58 531 -95 506 -125 c 0
 481 -155 449 -180 410 -196 c 0
 371 -212 326 -220 276 -220 c 0xe8
286 532 m 0
 309 532 329 525 345 510 c 0
 361 495 369 475 369 450 c 0
 369 426 361 406 345 391 c 0
 329 376 309 368 286 368 c 0
 265 368 246 376 229 391 c 0
 212 406 204 426 204 450 c 0xf0
 204 475 212 495 229 510 c 0
 246 525 265 532 286 532 c 0
EndSplineSet
Validated: 1
EndChar
StartChar: quoteleft.ss01
Encoding: 65672 -1 416
Width: 297
Flags: HW
HStem: 678 62<172.672 224>
VStem: 69 162<471.506 571.583>
LayerCount: 3
Fore
SplineSet
153 443 m 0
 129 443 109 451.666992188 93 469 c 0
 77 486.333007812 69 514 69 552 c 0
 69 599.333007812 82.3330078125 640.166992188 109 674.5 c 0
 135.666992188 708.833007812 174 730.666992188 224 740 c 1
 224 678 l 1
 195.333007812 673.333007812 174.333007812 662.666992188 161 646 c 0
 147.666992188 629.333007812 141 606 141 576 c 1
 101 576 l 1
 107 580.666992188 114.666992188 584.833007812 124 588.5 c 0
 133.333007812 592.166992188 141.666992188 594 149 594 c 0
 173.666992188 594 193.5 586.833007812 208.5 572.5 c 0
 223.5 558.166992188 231 540.333007812 231 519 c 0
 231 497 223.333007812 478.833007812 208 464.5 c 0
 192.666992188 450.166992188 174.333007812 443 153 443 c 0
EndSplineSet
Validated: 5
EndChar
StartChar: quoteright.ss01
Encoding: 65673 -1 417
Width: 281
Flags: HW
HStem: 456 62<66 119.806>
VStem: 59 162<623.57 721.427>
LayerCount: 3
Fore
SplineSet
66 456 m 1
 66 518 l 1
 95.3330078125 522 116.5 532.166992188 129.5 548.5 c 0
 142.5 564.833007812 149 587.666992188 149 617 c 1
 189 618 l 1
 183 612.666992188 175.5 608.333007812 166.5 605 c 0
 157.5 601.666992188 149 600 141 600 c 0
 117 600 97.3330078125 607 82 621 c 0
 66.6669921875 635 59 653 59 675 c 256
 59 697 66.6669921875 715 82 729 c 0
 97.3330078125 743 115.666992188 750 137 750 c 0
 161 750 181 741.333007812 197 724 c 0
 213 706.666992188 221 679 221 641 c 0
 221 593.666992188 207.833007812 553.166992188 181.5 519.5 c 0
 155.166992188 485.833007812 116.666992188 464.666992188 66 456 c 1
EndSplineSet
Validated: 5
EndChar
StartChar: seven.tf
Encoding: 65632 -1 337
Width: 600
Flags: HW
HStem: 0 22G<173 325> 633 104<58 415>
VStem: 173 147<0 152>
LayerCount: 3
Fore
SplineSet
173 0 m 1
 183 117 209 230 251 340 c 0
 293 450 347 555 415 656 c 1
 421 633 l 1
 58 633 l 1
 58 737 l 1
 542 737 l 1
 542 642 l 1
 479 538 428 433 390 329 c 0
 352 225 329 115 321 0 c 1
 173 0 l 1
EndSplineSet
Substitution2: "'pnum' Proportional Numbers in Latin lookup 18 subtable" seven
Substitution2: "'aalt' Access All Alternates in Latin lookup 0 subtable" seven
EndChar
StartChar: six.tf
Encoding: 65631 -1 336
Width: 602
Flags: HW
HStem: -10 102<240.67 370.826> 355 99<254.942 369.551> 628 102<258.043 378.736>
VStem: 51 139<178.086 516.875> 415 142<138.662 308.623> 415 133<525 590.736>
LayerCount: 3
Fore
SplineSet
314 -10 m 0xf8
 230 -10 165.166992188 20.8330078125 119.5 82.5 c 0
 73.8330078125 144.166992188 51 232 51 346 c 0
 51 426 62 494.5 84 551.5 c 0
 106 608.5 137.333007812 652.5 178 683.5 c 0
 218.666992188 714.5 267 730 323 730 c 0
 385 730 435.833007812 711.833007812 475.5 675.5 c 0
 515.166992188 639.166992188 539.333007812 589 548 525 c 1
 415 525 l 1xf4
 411.666992188 558.333007812 401.5 583.833007812 384.5 601.5 c 0
 367.5 619.166992188 346.666992188 628 322 628 c 0
 277.333007812 628 244.166992188 605.5 222.5 560.5 c 0
 200.833007812 515.5 190 446.666992188 190 354 c 2
 190 292 l 1
 162 301 l 1
 168.666992188 332.333007812 180.5 359.5 197.5 382.5 c 0
 214.5 405.5 235.666992188 423.166992188 261 435.5 c 0
 286.333007812 447.833007812 314.666992188 454 346 454 c 0
 388 454 424.833007812 444.333007812 456.5 425 c 0
 488.166992188 405.666992188 512.833007812 378.833007812 530.5 344.5 c 0
 548.166992188 310.166992188 557 270 557 224 c 0
 557 176.666992188 547 135.5 527 100.5 c 0
 507 65.5 478.833007812 38.3330078125 442.5 19 c 0
 406.166992188 -0.3330078125 363.333007812 -10 314 -10 c 0xf8
306 92 m 0
 337.333007812 92 363.333007812 103.333007812 384 126 c 0
 404.666992188 148.666992188 415 181 415 223 c 0xf8
 415 265.666992188 404.5 298.333007812 383.5 321 c 0
 362.5 343.666992188 336 355 304 355 c 256
 272 355 245 344 223 322 c 0
 201 300 190 268.333007812 190 227 c 0
 190 199.666992188 195.333007812 175.833007812 206 155.5 c 0
 216.666992188 135.166992188 230.833007812 119.5 248.5 108.5 c 0
 266.166992188 97.5 285.333007812 92 306 92 c 0
EndSplineSet
Validated: 5
Substitution2: "'pnum' Proportional Numbers in Latin lookup 18 subtable" six
Substitution2: "'aalt' Access All Alternates in Latin lookup 0 subtable" six
EndChar
StartChar: three.tf
Encoding: 65628 -1 333
Width: 602
Flags: HW
HStem: -10 102<238.899 362.725> 326 100<225 352.568> 369 21<384 407.333> 514 21G<68 203> 628 102<242.203 359.634>
VStem: 60 133<145.634 225> 68 133<514 583.363> 384 141<457.975 603.359> 399 141<128.62 285.558>
LayerCount: 3
Fore
SplineSet
308 -10 m 0xb880
 262 -10 221 -1 185 17 c 0
 149 35 120.166992188 61.6669921875 98.5 97 c 0
 76.8330078125 132.333007812 64 175 60 225 c 1
 193 225 l 1
 197.666992188 182.333007812 209 149.5 227 126.5 c 0
 245 103.5 270.333007812 92 303 92 c 0
 330.333007812 92 353.166992188 101.833007812 371.5 121.5 c 0
 389.833007812 141.166992188 399 169 399 205 c 256
 399 241 390.166992188 270.166992188 372.5 292.5 c 0
 354.833007812 314.833007812 325.666992188 326 285 326 c 2
 225 326 l 1
 225 426 l 1
 282 426 l 2xdc80
 317.333007812 426 343.166992188 435.5 359.5 454.5 c 0
 375.833007812 473.5 384 498.333007812 384 529 c 0
 384 559 377.5 583 364.5 601 c 0
 351.5 619 330.333007812 628 301 628 c 0
 275.666992188 628 253.666992188 618.5 235 599.5 c 0
 216.333007812 580.5 205 552 201 514 c 1
 68 514 l 1
 72.6669921875 558.666992188 85.1669921875 597 105.5 629 c 0
 125.833007812 661 153 685.833007812 187 703.5 c 0
 221 721.166992188 260.666992188 730 306 730 c 0
 350.666992188 730 389.333007812 722.166992188 422 706.5 c 0
 454.666992188 690.833007812 480 668.833007812 498 640.5 c 0
 516 612.166992188 525 578.333007812 525 539 c 0
 525 505.666992188 518 476.166992188 504 450.5 c 0
 490 424.833007812 472.333007812 404.833007812 451 390.5 c 0
 429.666992188 376.166992188 407.333007812 369 384 369 c 1xbb
 383 390 l 1
 416.333007812 390 444.5 381.5 467.5 364.5 c 0
 490.5 347.5 508.333007812 324.666992188 521 296 c 0
 533.666992188 267.333007812 540 235 540 199 c 0
 540 156.333007812 530 119.333007812 510 88 c 0
 490 56.6669921875 462.5 32.5 427.5 15.5 c 0
 392.5 -1.5 352.666992188 -10 308 -10 c 0xb880
EndSplineSet
Validated: 5
Substitution2: "'pnum' Proportional Numbers in Latin lookup 18 subtable" three
Substitution2: "'aalt' Access All Alternates in Latin lookup 0 subtable" three
EndChar
StartChar: two.ss10
Encoding: 65624 -1 329
Width: 568
Flags: HW
HStem: 0 104<166 543> 523 22G<29 164> 643 104<215 355>
VStem: 29 133<523 589> 390 140<464 609>
LayerCount: 3
Fore
SplineSet
37 0 m 1
 37 78 l 2
 37 122 45 159 62 191 c 0
 79 223 100 250 127 274 c 0
 154 298 184 319 214 339 c 0
 244 359 272 378 299 397 c 0
 326 416 348 437 365 460 c 0
 382 483 390 509 390 538 c 0
 390 572 380 598 361 616 c 0
 342 634 318 643 287 643 c 0
 254 643 226 633 203 612 c 0
 180 591 167 561 162 523 c 1
 29 523 l 1
 36 592 62 647 109 687 c 0
 156 727 217 748 291 748 c 0
 364 748 422 729 465 691 c 0
 508 653 530 599 530 530 c 0
 530 494 523 462 509 434 c 0
 495 406 476 381 453 359 c 0
 430 337 405 317 378 299 c 0
 351 281 325 263 298 246 c 0
 271 229 247 212 226 194 c 0
 205 176 189 157 178 136 c 0
 167 115 163 92 166 65 c 1
 147 104 l 1
 543 104 l 1
 543 0 l 1
 37 0 l 1
EndSplineSet
Validated: 37
EndChar
StartChar: two.tf
Encoding: 65627 -1 332
Width: 602
Flags: HW
HStem: 0 102<201 537> 511 21G<64 200> 628 102<238.556 358.124>
VStem: 64 134<511 583.498> 383 141<430.173 602.242>
LayerCount: 3
Fore
SplineSet
71 0 m 1
 71 101 l 1
 133 157 184.166992188 205.833007812 224.5 247.5 c 0
 264.833007812 289.166992188 296.666992188 326.5 320 359.5 c 0
 343.333007812 392.5 359.666992188 422.666992188 369 450 c 0
 378.333007812 477.333007812 383 503.666992188 383 529 c 0
 383 561 376.166992188 585.5 362.5 602.5 c 0
 348.833007812 619.5 328 628 300 628 c 0
 270 628 246.5 617.833007812 229.5 597.5 c 0
 212.5 577.166992188 202 548.333007812 198 511 c 1
 64 511 l 1
 70 578.333007812 94.5 631.666992188 137.5 671 c 0
 180.5 710.333007812 236.666992188 730 306 730 c 0
 374 730 427.333007812 711 466 673 c 0
 504.666992188 635 524 582.666992188 524 516 c 0
 524 482.666992188 518.5 450 507.5 418 c 0
 496.5 386 478.666992188 352.5 454 317.5 c 0
 429.333007812 282.5 396.333007812 244.333007812 355 203 c 0
 313.666992188 161.666992188 262.333007812 114.666992188 201 62 c 1
 173 102 l 1
 537 102 l 1
 537 0 l 1
 71 0 l 1
EndSplineSet
Validated: 5
Substitution2: "'ss10' Style Set 10 in Latin lookup 31 subtable" two.tf.ss10
Substitution2: "'pnum' Proportional Numbers in Latin lookup 18 subtable" two
AlternateSubs2: "'aalt' Access All Alternates in Latin lookup 1 subtable" two two.tf.ss10
EndChar
StartChar: two.tf.ss10
Encoding: 65635 -1 340
Width: 616
Flags: HW
HStem: 0 104<208 550> 523 22G<66 204> 643 104<243 366>
VStem: 66 137<523 600> 392 144<465 616>
LayerCount: 3
Fore
SplineSet
74 0 m 1
 74 78 l 2
 74 122 82 159 97 191 c 0
 112 223 132 250 156 274 c 0
 180 298 206 320 233 340 c 0
 260 360 286 379 310 399 c 0
 334 419 354 441 369 464 c 0
 384 487 392 514 392 544 c 0
 392 575 385 600 370 617 c 0
 355 634 334 643 307 643 c 0
 278 643 255 633 236 614 c 0
 217 595 206 564 203 523 c 1
 66 523 l 1
 73 592 98 647 141 687 c 0
 184 727 240 748 310 748 c 256
 380 748 435 729 476 692 c 0
 517 655 537 604 537 538 c 0
 537 500 531 467 518 438 c 0
 505 409 488 384 467 361 c 0
 446 338 423 318 398 300 c 0
 373 282 350 264 326 247 c 0
 302 230 280 212 261 194 c 0
 242 176 227 157 217 136 c 0
 207 115 204 92 208 65 c 1
 189 104 l 1
 550 104 l 1
 550 0 l 1
 74 0 l 1
EndSplineSet
EndChar
StartChar: uni0307.ss01
Encoding: 65689 -1 483
Width: 0
GlyphClass: 4
Flags: HW
HStem: 592 169<89 201>
VStem: 62 166<620 735>
AnchorPoint: "Anchor-7" 145 761 basemark 0
AnchorPoint: "Anchor-7" 145 522 mark 0
AnchorPoint: "Anchor-4" 145 522 mark 0
AnchorPoint: "Anchor-0" 145 522 mark 0
LayerCount: 3
Fore
SplineSet
147 592 m 0
 124 592 104 600 87 616 c 0
 70 632 62 653 62 676 c 0
 62 702 70 723 87 738 c 0
 104 753 124 761 147 761 c 0
 169 761 187 753 203 738 c 0
 219 723 227 702 227 676 c 0
 227 653 219 632 203 616 c 0
 187 600 169 592 147 592 c 0
EndSplineSet
EndChar
StartChar: uni0308.ss01
Encoding: 65688 -1 482
Width: 10
GlyphClass: 4
Flags: HW
HStem: 590 152<87.1744 191.826 315.174 419.826>
VStem: 65 149<613.205 720.341> 293 149<613.205 720.341>
AnchorPoint: "Anchor-7" 254 742 basemark 0
AnchorPoint: "Anchor-7" 254 510 mark 0
AnchorPoint: "Anchor-4" 254 510 mark 0
AnchorPoint: "Anchor-0" 254 510 mark 0
LayerCount: 3
Fore
SplineSet
140 590 m 0
 118.666992188 590 100.833007812 597.5 86.5 612.5 c 0
 72.1669921875 627.5 65 645.666992188 65 667 c 0
 65 689 72.1669921875 707 86.5 721 c 0
 100.833007812 735 118.666992188 742 140 742 c 0
 160.666992188 742 178.166992188 735 192.5 721 c 0
 206.833007812 707 214 689 214 667 c 0
 214 645.666992188 206.833007812 627.5 192.5 612.5 c 0
 178.166992188 597.5 160.666992188 590 140 590 c 0
367 590 m 0
 346.333007812 590 328.833007812 597.5 314.5 612.5 c 0
 300.166992188 627.5 293 645.666992188 293 667 c 0
 293 689 300.166992188 707 314.5 721 c 0
 328.833007812 735 346.333007812 742 367 742 c 0
 388.333007812 742 406.166992188 735 420.5 721 c 0
 434.833007812 707 442 689 442 667 c 0
 442 645.666992188 434.833007812 627.5 420.5 612.5 c 0
 406.166992188 597.5 388.333007812 590 367 590 c 0
EndSplineSet
Validated: 1
EndChar
StartChar: uni030C.alt
Encoding: 65687 -1 471
Width: 10
GlyphClass: 4
Flags: HW
HStem: 490 230<65 148>
VStem: 65 109<658.077 720> 65 83<490 551.923>
AnchorPoint: "Anchor-1" 65 720 mark 0
LayerCount: 3
Fore
SplineSet
148 490 m 1xa0
 65 490 l 1xa0
 65 720 l 1
 174 720 l 1xc0
 148 490 l 1xa0
EndSplineSet
Validated: 1
EndChar
StartChar: uni0312.ss01
Encoding: 65690 -1 484
Width: 10
GlyphClass: 4
Flags: HW
HStem: 801 59<156 205>
VStem: 67 154<616 712>
AnchorPoint: "Anchor-7" 143 860 basemark 0
AnchorPoint: "Anchor-7" 143 522 mark 0
AnchorPoint: "Anchor-4" 143 522 mark 0
AnchorPoint: "Anchor-0" 143 522 mark 0
LayerCount: 3
Fore
SplineSet
146 590 m 0
 123 590 105 598 90 614 c 0
 75 630 67 656 67 691 c 0
 67 720 72 746 83 771 c 0
 94 796 111 816 131 832 c 0
 151 848 176 857 205 860 c 1
 205 801 l 1
 182 798 165 790 153 776 c 0
 141 762 135 742 135 717 c 1
 97 716 l 1
 103 721 110 725 119 728 c 0
 128 731 135 733 143 733 c 0
 165 733 183 727 198 713 c 0
 213 699 220 682 220 662 c 256
 220 642 213 624 199 610 c 0
 185 596 166 590 146 590 c 0
EndSplineSet
Validated: 5
EndChar
StartChar: uni0326.ss01
Encoding: 65691 -1 485
Width: 0
GlyphClass: 4
Flags: HW
HStem: -339 59<77 126>
VStem: 62 154<-191 -94>
AnchorPoint: "Anchor-6" 138 -339 basemark 0
AnchorPoint: "Anchor-6" 138 0 mark 0
AnchorPoint: "Anchor-5" 138 0 mark 0
AnchorPoint: "Anchor-2" 138 0 mark 0
LayerCount: 3
Fore
SplineSet
77 -339 m 1
 77 -280 l 1
 100 -277 117 -268 129 -254 c 0
 141 -240 147 -221 147 -196 c 1
 184 -195 l 1
 178 -200 171 -204 162 -207 c 0
 153 -210 146 -212 138 -212 c 0
 116 -212 99 -205 84 -191 c 0
 69 -177 62 -160 62 -140 c 0
 62 -119 69 -102 83 -89 c 0
 97 -76 115 -69 135 -69 c 0
 158 -69 177 -77 192 -93 c 0
 207 -109 215 -135 215 -169 c 0
 215 -198 210 -225 199 -250 c 0
 188 -275 172 -295 151 -311 c 0
 130 -327 106 -336 77 -339 c 1
EndSplineSet
EndChar
StartChar: w_w_w.liga
Encoding: 65621 -1 314
Width: 2153
GlyphClass: 3
LigCaretCntFixed: 1
Flags: HW
HStem: 0 22G<172 305 511 639 845 974 1180 1308 1514 1642 1848 1980> 502 20G<23 161 345 475 680 809 1014 1143 1349 1477 1683 1811 1996 2131>
AnchorPoint: "Anchor-5" 362 0 baselig 0
AnchorPoint: "Anchor-4" 362 522 baselig 0
AnchorPoint: "Anchor-5" 1076 0 baselig 1
AnchorPoint: "Anchor-4" 1076 522 baselig 1
AnchorPoint: "Anchor-5" 1791 0 baselig 2
AnchorPoint: "Anchor-4" 1791 522 baselig 2
LayerCount: 3
Fore
SplineSet
178 0 m 1
 23 522 l 1
 157 522 l 1
 248 130 l 1
 239 130 l 1
 351 522 l 1
 469 522 l 1
 583 130 l 1
 573 130 l 1
 686 522 l 1
 803 522 l 1
 916 130 l 1
 907 130 l 1
 1020 522 l 1
 1137 522 l 1
 1251 130 l 1
 1241 130 l 1
 1355 522 l 1
 1471 522 l 1
 1585 130 l 1
 1576 130 l 1
 1689 522 l 1
 1805 522 l 1
 1920 130 l 1
 1910 130 l 1
 2001 522 l 1
 2131 522 l 1
 1974 0 l 1
 1854 0 l 1
 1741 388 l 1
 1751 388 l 1
 1636 0 l 1
 1520 0 l 1
 1406 388 l 1
 1416 388 l 1
 1302 0 l 1
 1186 0 l 1
 1072 388 l 1
 1081 388 l 1
 968 0 l 1
 851 0 l 1
 737 388 l 1
 748 388 l 1
 633 0 l 1
 517 0 l 1
 403 388 l 1
 414 388 l 1
 299 0 l 1
 178 0 l 1
EndSplineSet
Ligature2: "'liga' Standard Ligatures in Latin lookup 21 subtable" w w w
LCarets2: 2 715 1428
EndChar
StartChar: y.ss03
Encoding: 65573 -1 257
Width: 556
GlyphClass: 2
Flags: HW
HStem: -212 105<70 165> 502 20G<17 162 410 545>
AnchorPoint: "Anchor-2" 275 0 basechar 0
AnchorPoint: "Anchor-0" 278 522 basechar 0
LayerCount: 3
Fore
SplineSet
130 -212 m 0
 99 -212 100 -212 70 -212 c 1
 70 -106 l 1
 92 -106 91 -106 114 -106 c 0
 139 -106 155 -103 165 -95 c 0
 178 -85 190 -67 200 -41 c 2
 248 90 l 1
 278 127 l 1
 417 522 l 1
 545 522 l 1
 301 -92 l 2
 289 -121 276 -146 260 -165 c 0
 244 -184 225 -197 204 -203 c 0
 183 -209 158 -212 130 -212 c 0
225 4 m 1
 17 522 l 1
 155 522 l 1
 324 62 l 1
 225 4 l 1
EndSplineSet
Substitution2: "'calt' Contextual Alternates in Latin lookup 24 subtable" y
Substitution2: "'aalt' Access All Alternates in Latin lookup 0 subtable" y
EndChar
StartChar: zero.tf
Encoding: 65625 -1 330
Width: 600
Flags: HW
HStem: -10 111<236 364> 637 111<234 365>
VStem: 18 143<211 531> 438 144<211 531>
LayerCount: 3
Fore
SplineSet
300 -10 m 0
 245 -10 196 6 154 38 c 0
 112 70 78 116 54 173 c 0
 30 230 18 296 18 372 c 256
 18 448 30 513 54 569 c 0
 78 625 111 669 154 700 c 0
 197 731 245 748 300 748 c 0
 355 748 405 731 447 700 c 0
 489 669 522 625 546 569 c 0
 570 513 583 448 583 372 c 256
 583 296 571 229 546 172 c 0
 521 115 488 70 446 38 c 0
 404 6 355 -10 300 -10 c 0
300 100 m 256
 331 100 357 112 377 135 c 0
 397 158 413 191 423 232 c 0
 433 273 438 320 438 373 c 256
 438 426 433 471 423 511 c 0
 413 551 398 582 378 604 c 0
 358 626 331 637 300 637 c 256
 269 637 242 626 222 604 c 0
 202 582 186 551 176 511 c 0
 166 471 161 426 161 373 c 0
 161 320 166 272 176 231 c 0
 186 190 202 158 223 135 c 0
 244 112 269 100 300 100 c 256
EndSplineSet
Substitution2: "'pnum' Proportional Numbers in Latin lookup 18 subtable" zero
Substitution2: "'aalt' Access All Alternates in Latin lookup 0 subtable" zero
EndChar
